G04 Layer_Physical_Order=1*
G04 Layer_Color=255*
%FSLAX24Y24*%
%MOIN*%
G70*
G01*
G75*
%ADD10R,0.0250X0.0200*%
%ADD11R,0.0354X0.0394*%
%ADD12R,0.0200X0.0250*%
%ADD13R,0.0256X0.0532*%
%ADD14O,0.0787X0.0138*%
%ADD15R,0.0787X0.0138*%
%ADD16R,0.0800X0.0260*%
%ADD17R,0.1000X0.1260*%
%ADD18C,0.0100*%
%ADD19C,0.0591*%
%ADD20R,0.0591X0.0591*%
%ADD21R,0.0591X0.0591*%
%ADD22C,0.0394*%
%ADD23R,0.0394X0.0394*%
%ADD24C,0.0300*%
G36*
X18850Y153D02*
X153D01*
Y29147D01*
X1112D01*
X1131Y29101D01*
X731Y28701D01*
X706Y28665D01*
X698Y28622D01*
X698Y28622D01*
Y26267D01*
X648Y26243D01*
X620Y26264D01*
X557Y26290D01*
X530Y26294D01*
Y26040D01*
X490D01*
Y26000D01*
X236D01*
X240Y25973D01*
X266Y25910D01*
X307Y25857D01*
X358Y25817D01*
X362Y25791D01*
Y25789D01*
X358Y25763D01*
X307Y25723D01*
X266Y25670D01*
X240Y25607D01*
X231Y25540D01*
X240Y25473D01*
X266Y25410D01*
X307Y25357D01*
X320Y25347D01*
X303Y25297D01*
X233D01*
Y24783D01*
X747D01*
Y25138D01*
X972Y25363D01*
X1018Y25344D01*
Y19960D01*
X1018Y19960D01*
X1026Y19917D01*
X1051Y19881D01*
X8148Y12784D01*
Y3390D01*
X8148Y3390D01*
X8156Y3347D01*
X8181Y3311D01*
X9271Y2221D01*
X9271Y2221D01*
X9307Y2196D01*
X9350Y2188D01*
X9350Y2188D01*
X11136D01*
X11136Y2188D01*
X11146Y2190D01*
X12794D01*
X12822Y2123D01*
X12879Y2049D01*
X12953Y1992D01*
X13039Y1956D01*
X13132Y1944D01*
X13225Y1956D01*
X13311Y1992D01*
X13386Y2049D01*
X13442Y2123D01*
X13478Y2209D01*
X13490Y2302D01*
X13478Y2395D01*
X13442Y2481D01*
X13386Y2556D01*
X13343Y2588D01*
X13360Y2638D01*
X13686D01*
X13686Y2638D01*
X13729Y2646D01*
X13766Y2671D01*
X14683Y3588D01*
X14717Y3611D01*
X14741Y3647D01*
X14750Y3690D01*
Y7761D01*
X15972Y8984D01*
X16039Y8956D01*
X16132Y8944D01*
X16225Y8956D01*
X16311Y8992D01*
X16386Y9049D01*
X16442Y9123D01*
X16470Y9190D01*
X16845D01*
Y9150D01*
X17195D01*
X17245Y9150D01*
X17265Y9150D01*
X17390D01*
Y9310D01*
Y9470D01*
X17265D01*
X17215Y9470D01*
X17195Y9470D01*
X16845D01*
Y9414D01*
X16470D01*
X16442Y9481D01*
X16386Y9556D01*
X16311Y9612D01*
X16225Y9648D01*
X16132Y9660D01*
X16039Y9648D01*
X15953Y9612D01*
X15879Y9556D01*
X15822Y9481D01*
X15786Y9395D01*
X15774Y9302D01*
X15786Y9209D01*
X15814Y9142D01*
X14636Y7964D01*
X14590Y7984D01*
Y9940D01*
X14631Y9988D01*
X17418D01*
X17828Y9578D01*
Y5156D01*
X16292Y3620D01*
X16225Y3648D01*
X16132Y3660D01*
X16039Y3648D01*
X15953Y3612D01*
X15879Y3556D01*
X15822Y3481D01*
X15786Y3395D01*
X15774Y3302D01*
X15786Y3209D01*
X15822Y3123D01*
X15879Y3049D01*
X15953Y2992D01*
X16039Y2956D01*
X16132Y2944D01*
X16225Y2956D01*
X16311Y2992D01*
X16386Y3049D01*
X16442Y3123D01*
X16478Y3209D01*
X16490Y3302D01*
X16478Y3395D01*
X16451Y3462D01*
X17942Y4953D01*
X17988Y4934D01*
Y4316D01*
X16292Y2621D01*
X16225Y2648D01*
X16132Y2660D01*
X16039Y2648D01*
X15953Y2612D01*
X15879Y2556D01*
X15822Y2481D01*
X15786Y2395D01*
X15774Y2302D01*
X15786Y2209D01*
X15822Y2123D01*
X15879Y2049D01*
X15953Y1992D01*
X16039Y1956D01*
X16132Y1944D01*
X16225Y1956D01*
X16311Y1992D01*
X16386Y2049D01*
X16442Y2123D01*
X16478Y2209D01*
X16490Y2302D01*
X16478Y2395D01*
X16451Y2462D01*
X18179Y4191D01*
X18179Y4191D01*
X18204Y4227D01*
X18212Y4270D01*
X18212Y4270D01*
Y9747D01*
X18212Y9747D01*
X18204Y9790D01*
X18179Y9826D01*
X17666Y10339D01*
X17630Y10364D01*
X17587Y10372D01*
X17587Y10372D01*
X14656D01*
X13752Y11276D01*
Y23694D01*
X13798Y23713D01*
X14438Y23073D01*
X14438Y23073D01*
X14474Y23049D01*
X14517Y23040D01*
X14517Y23040D01*
X16951D01*
X16965Y23031D01*
X17015Y23021D01*
X17665D01*
X17715Y23031D01*
X17758Y23060D01*
X17786Y23102D01*
X17796Y23153D01*
X17786Y23203D01*
X17758Y23246D01*
X17715Y23274D01*
X17665Y23284D01*
X17015D01*
X16965Y23274D01*
X16951Y23265D01*
X14564D01*
X13912Y23916D01*
Y26226D01*
X13904Y26269D01*
X13879Y26306D01*
X13879Y26306D01*
X12500Y27685D01*
X12464Y27709D01*
X12421Y27717D01*
X12421Y27717D01*
X11091D01*
X10768Y28040D01*
X10796Y28107D01*
X10808Y28200D01*
X10796Y28293D01*
X10760Y28379D01*
X10703Y28453D01*
X10629Y28510D01*
X10543Y28546D01*
X10450Y28558D01*
X10357Y28546D01*
X10271Y28510D01*
X10197Y28453D01*
X10140Y28379D01*
X10104Y28293D01*
X10092Y28200D01*
X10104Y28107D01*
X10140Y28021D01*
X10197Y27947D01*
X10271Y27890D01*
X10357Y27854D01*
X10450Y27842D01*
X10543Y27854D01*
X10610Y27882D01*
X10965Y27526D01*
X10965Y27526D01*
X11002Y27502D01*
X11045Y27493D01*
X11045Y27493D01*
X11173D01*
X11189Y27443D01*
X11140Y27379D01*
X11104Y27293D01*
X11097Y27240D01*
X11803D01*
X11796Y27293D01*
X11760Y27379D01*
X11711Y27443D01*
X11727Y27493D01*
X12375D01*
X13039Y26828D01*
X13020Y26782D01*
X8636D01*
X8597Y26822D01*
X8608Y26881D01*
X8629Y26890D01*
X8703Y26947D01*
X8760Y27021D01*
X8796Y27107D01*
X8808Y27200D01*
X8796Y27293D01*
X8760Y27379D01*
X8703Y27453D01*
X8629Y27510D01*
X8543Y27546D01*
X8450Y27558D01*
X8357Y27546D01*
X8271Y27510D01*
X8197Y27453D01*
X8140Y27379D01*
X8104Y27293D01*
X8092Y27200D01*
X8104Y27107D01*
X8140Y27021D01*
X8197Y26947D01*
X8271Y26890D01*
X8338Y26862D01*
Y26810D01*
X8338Y26810D01*
X8346Y26767D01*
X8371Y26731D01*
X8433Y26668D01*
X8414Y26622D01*
X8082D01*
X7727Y26977D01*
X7760Y27021D01*
X7796Y27107D01*
X7808Y27200D01*
X7796Y27293D01*
X7760Y27379D01*
X7703Y27453D01*
X7629Y27510D01*
X7543Y27546D01*
X7450Y27558D01*
X7357Y27546D01*
X7271Y27510D01*
X7197Y27453D01*
X7140Y27379D01*
X7104Y27293D01*
X7092Y27200D01*
X7104Y27107D01*
X7140Y27021D01*
X7197Y26947D01*
X7271Y26890D01*
X7357Y26854D01*
X7450Y26842D01*
X7534Y26853D01*
X7879Y26508D01*
X7860Y26462D01*
X7346D01*
X6768Y27040D01*
X6796Y27107D01*
X6808Y27200D01*
X6796Y27293D01*
X6760Y27379D01*
X6703Y27453D01*
X6629Y27510D01*
X6543Y27546D01*
X6450Y27558D01*
X6357Y27546D01*
X6271Y27510D01*
X6197Y27453D01*
X6140Y27379D01*
X6104Y27293D01*
X6092Y27200D01*
X6104Y27107D01*
X6140Y27021D01*
X6197Y26947D01*
X6271Y26890D01*
X6357Y26854D01*
X6450Y26842D01*
X6543Y26854D01*
X6610Y26882D01*
X7221Y26271D01*
X7221Y26271D01*
X7257Y26246D01*
X7300Y26238D01*
X7300Y26238D01*
X12951D01*
X13208Y25981D01*
Y11097D01*
X13208Y11097D01*
X13216Y11055D01*
X13241Y11018D01*
X14365Y9894D01*
Y3814D01*
X13966Y3414D01*
X13470D01*
X13442Y3481D01*
X13386Y3556D01*
X13311Y3612D01*
X13225Y3648D01*
X13132Y3660D01*
X13039Y3648D01*
X12953Y3612D01*
X12879Y3556D01*
X12822Y3481D01*
X12786Y3395D01*
X12774Y3302D01*
X12786Y3209D01*
X12822Y3123D01*
X12879Y3049D01*
X12953Y2992D01*
X13039Y2956D01*
X13132Y2944D01*
X13225Y2956D01*
X13311Y2992D01*
X13386Y3049D01*
X13442Y3123D01*
X13470Y3190D01*
X13902D01*
X13921Y3144D01*
X13640Y2862D01*
X9173D01*
X8532Y3503D01*
Y12896D01*
X8532Y12896D01*
X8524Y12939D01*
X8499Y12976D01*
X8499Y12976D01*
X4791Y16684D01*
X4810Y16730D01*
X8717D01*
X8745Y16663D01*
X8802Y16589D01*
X8876Y16532D01*
X8962Y16496D01*
X9055Y16484D01*
X9148Y16496D01*
X9234Y16532D01*
X9309Y16589D01*
X9365Y16663D01*
X9401Y16750D01*
X9413Y16843D01*
X9401Y16935D01*
X9365Y17022D01*
X9309Y17096D01*
X9234Y17153D01*
X9148Y17189D01*
X9055Y17201D01*
X8962Y17189D01*
X8876Y17153D01*
X8802Y17096D01*
X8745Y17022D01*
X8717Y16955D01*
X4746D01*
X1562Y20139D01*
Y21024D01*
X1608Y21043D01*
X1701Y20951D01*
X1701Y20951D01*
X1737Y20926D01*
X1780Y20918D01*
X2015D01*
Y20840D01*
X2935D01*
Y21181D01*
X2963Y21186D01*
X2990Y21204D01*
X3040Y21188D01*
Y20590D01*
X3560D01*
Y21280D01*
Y21970D01*
X3102D01*
Y22535D01*
X3447Y22880D01*
X3645D01*
Y22928D01*
X4394D01*
X4612Y22709D01*
Y22220D01*
X4265D01*
Y21840D01*
X5185D01*
Y22220D01*
X4837D01*
Y22755D01*
X4837Y22755D01*
X4828Y22798D01*
X4804Y22835D01*
X4519Y23119D01*
X4483Y23144D01*
X4440Y23152D01*
X4440Y23152D01*
X3650D01*
X3645Y23200D01*
D01*
X3639Y23249D01*
Y23526D01*
X3289D01*
X3239Y23526D01*
X3219Y23526D01*
X3094D01*
Y23366D01*
X3054D01*
Y23326D01*
X2869D01*
Y23248D01*
X2869Y23206D01*
X2875Y23159D01*
Y23080D01*
X3060D01*
Y23000D01*
X2875D01*
Y22880D01*
X3064D01*
X3083Y22834D01*
X2911Y22661D01*
X2886Y22625D01*
X2878Y22582D01*
X2878Y22582D01*
Y22220D01*
X2587D01*
Y24099D01*
X2726Y24238D01*
X3590D01*
Y24024D01*
X3966D01*
Y24676D01*
X3887D01*
Y24783D01*
X4012D01*
Y25297D01*
X3538D01*
Y24783D01*
X3663D01*
Y24676D01*
X3590D01*
Y24462D01*
X2680D01*
X2680Y24462D01*
X2637Y24454D01*
X2601Y24429D01*
X2601Y24429D01*
X2396Y24224D01*
X2371Y24188D01*
X2363Y24145D01*
X2363Y24145D01*
Y22220D01*
X2015D01*
Y21840D01*
X2878D01*
Y21720D01*
X2015D01*
Y21340D01*
X2561D01*
X2580Y21294D01*
X2506Y21220D01*
X2015D01*
Y21142D01*
X1826D01*
X1722Y21246D01*
Y26314D01*
X2253Y26845D01*
X2805D01*
Y27555D01*
X2095D01*
Y27003D01*
X1608Y26517D01*
X1562Y26536D01*
Y27354D01*
X1886Y27678D01*
X3670D01*
X3670Y27678D01*
X3713Y27686D01*
X3749Y27711D01*
X4084Y28046D01*
X4133Y28036D01*
X4140Y28021D01*
X4197Y27947D01*
X4271Y27890D01*
X4357Y27854D01*
X4450Y27842D01*
X4543Y27854D01*
X4629Y27890D01*
X4698Y27942D01*
X4748Y27931D01*
Y27790D01*
X4748Y27790D01*
X4756Y27747D01*
X4781Y27711D01*
X5132Y27360D01*
X5104Y27293D01*
X5092Y27200D01*
X5104Y27107D01*
X5140Y27021D01*
X5197Y26947D01*
X5271Y26890D01*
X5357Y26854D01*
X5450Y26842D01*
X5543Y26854D01*
X5629Y26890D01*
X5703Y26947D01*
X5760Y27021D01*
X5796Y27107D01*
X5808Y27200D01*
X5796Y27293D01*
X5760Y27379D01*
X5703Y27453D01*
X5629Y27510D01*
X5543Y27546D01*
X5450Y27558D01*
X5357Y27546D01*
X5290Y27518D01*
X4972Y27836D01*
Y28363D01*
X4972Y28363D01*
X4964Y28406D01*
X4939Y28442D01*
X4939Y28442D01*
X4611Y28770D01*
X4628Y28824D01*
X4645Y28827D01*
X5126Y28346D01*
X5104Y28293D01*
X5092Y28200D01*
X5104Y28107D01*
X5140Y28021D01*
X5197Y27947D01*
X5271Y27890D01*
X5357Y27854D01*
X5450Y27842D01*
X5543Y27854D01*
X5629Y27890D01*
X5703Y27947D01*
X5760Y28021D01*
X5796Y28107D01*
X5808Y28200D01*
X5796Y28293D01*
X5760Y28379D01*
X5703Y28453D01*
X5629Y28510D01*
X5543Y28546D01*
X5450Y28558D01*
X5357Y28546D01*
X5276Y28513D01*
X4808Y28981D01*
X4827Y29027D01*
X5464D01*
X6132Y28360D01*
X6104Y28293D01*
X6092Y28200D01*
X6104Y28107D01*
X6140Y28021D01*
X6197Y27947D01*
X6271Y27890D01*
X6357Y27854D01*
X6450Y27842D01*
X6543Y27854D01*
X6629Y27890D01*
X6703Y27947D01*
X6760Y28021D01*
X6796Y28107D01*
X6808Y28200D01*
X6796Y28293D01*
X6760Y28379D01*
X6703Y28453D01*
X6629Y28510D01*
X6543Y28546D01*
X6450Y28558D01*
X6357Y28546D01*
X6290Y28518D01*
X5708Y29101D01*
X5727Y29147D01*
X18850D01*
Y153D01*
D02*
G37*
G36*
X2228Y28478D02*
X2197Y28453D01*
X2140Y28379D01*
X2104Y28293D01*
X2092Y28200D01*
X2104Y28107D01*
X2140Y28021D01*
X2192Y27952D01*
X2181Y27902D01*
X1840D01*
X1797Y27894D01*
X1761Y27869D01*
X1761Y27869D01*
X1448Y27557D01*
X1402Y27576D01*
Y28374D01*
X1556Y28528D01*
X2212D01*
X2228Y28478D01*
D02*
G37*
G36*
X12921Y2588D02*
X12879Y2556D01*
X12822Y2481D01*
X12794Y2414D01*
X11138D01*
X11127Y2412D01*
X9396D01*
X9217Y2592D01*
X9236Y2638D01*
X12904D01*
X12921Y2588D01*
D02*
G37*
G36*
X4461Y28603D02*
X4437Y28557D01*
X4357Y28546D01*
X4271Y28510D01*
X4197Y28453D01*
X4140Y28379D01*
X4112Y28312D01*
X4080D01*
X4080Y28312D01*
X4037Y28304D01*
X4000Y28279D01*
X4000Y28279D01*
X3849Y28128D01*
X3802Y28152D01*
X3808Y28200D01*
X3796Y28293D01*
X3760Y28379D01*
X3703Y28453D01*
X3629Y28510D01*
X3543Y28546D01*
X3450Y28558D01*
X3357Y28546D01*
X3290Y28518D01*
X3167Y28642D01*
X3186Y28688D01*
X4377D01*
X4461Y28603D01*
D02*
G37*
%LPC*%
G36*
X9055Y14201D02*
X8962Y14189D01*
X8876Y14153D01*
X8802Y14096D01*
X8745Y14022D01*
X8709Y13935D01*
X8697Y13843D01*
X8709Y13750D01*
X8745Y13663D01*
X8802Y13589D01*
X8876Y13532D01*
X8962Y13496D01*
X9055Y13484D01*
X9148Y13496D01*
X9234Y13532D01*
X9309Y13589D01*
X9365Y13663D01*
X9401Y13750D01*
X9413Y13843D01*
X9401Y13935D01*
X9365Y14022D01*
X9309Y14096D01*
X9234Y14153D01*
X9148Y14189D01*
X9055Y14201D01*
D02*
G37*
G36*
X17665Y13429D02*
X17015D01*
X16965Y13419D01*
X16922Y13390D01*
X16894Y13348D01*
X16884Y13297D01*
X16894Y13247D01*
X16922Y13205D01*
X16965Y13176D01*
X17015Y13166D01*
X17665D01*
X17715Y13176D01*
X17758Y13205D01*
X17786Y13247D01*
X17796Y13297D01*
X17786Y13348D01*
X17758Y13390D01*
X17715Y13419D01*
X17665Y13429D01*
D02*
G37*
G36*
X1181Y14264D02*
X1088Y14252D01*
X1002Y14216D01*
X928Y14159D01*
X871Y14085D01*
X835Y13998D01*
X823Y13906D01*
X835Y13813D01*
X871Y13726D01*
X928Y13652D01*
X1002Y13595D01*
X1088Y13559D01*
X1181Y13547D01*
X1274Y13559D01*
X1360Y13595D01*
X1434Y13652D01*
X1491Y13726D01*
X1527Y13813D01*
X1539Y13906D01*
X1527Y13998D01*
X1491Y14085D01*
X1434Y14159D01*
X1360Y14216D01*
X1274Y14252D01*
X1181Y14264D01*
D02*
G37*
G36*
X17665Y14610D02*
X17015D01*
X16965Y14600D01*
X16922Y14572D01*
X16894Y14529D01*
X16884Y14479D01*
X16894Y14428D01*
X16922Y14386D01*
X16965Y14357D01*
X17015Y14347D01*
X17665D01*
X17715Y14357D01*
X17758Y14386D01*
X17786Y14428D01*
X17796Y14479D01*
X17786Y14529D01*
X17758Y14572D01*
X17715Y14600D01*
X17665Y14610D01*
D02*
G37*
G36*
X9015Y14803D02*
X8702D01*
X8709Y14750D01*
X8745Y14663D01*
X8802Y14589D01*
X8876Y14532D01*
X8962Y14496D01*
X9015Y14489D01*
Y14803D01*
D02*
G37*
G36*
X17665Y13823D02*
X17015D01*
X16965Y13813D01*
X16922Y13784D01*
X16894Y13741D01*
X16884Y13691D01*
X16894Y13641D01*
X16922Y13598D01*
X16965Y13570D01*
X17015Y13560D01*
X17665D01*
X17715Y13570D01*
X17758Y13598D01*
X17786Y13641D01*
X17796Y13691D01*
X17786Y13741D01*
X17758Y13784D01*
X17715Y13813D01*
X17665Y13823D01*
D02*
G37*
G36*
Y14216D02*
X17015D01*
X16965Y14206D01*
X16922Y14178D01*
X16894Y14135D01*
X16884Y14085D01*
X16894Y14035D01*
X16922Y13992D01*
X16965Y13963D01*
X17015Y13953D01*
X17665D01*
X17715Y13963D01*
X17758Y13992D01*
X17786Y14035D01*
X17796Y14085D01*
X17786Y14135D01*
X17758Y14178D01*
X17715Y14206D01*
X17665Y14216D01*
D02*
G37*
G36*
Y13035D02*
X17015D01*
X16965Y13025D01*
X16922Y12997D01*
X16894Y12954D01*
X16884Y12904D01*
X16894Y12853D01*
X16922Y12811D01*
X16965Y12782D01*
X17015Y12772D01*
X17665D01*
X17715Y12782D01*
X17758Y12811D01*
X17786Y12853D01*
X17796Y12904D01*
X17786Y12954D01*
X17758Y12997D01*
X17715Y13025D01*
X17665Y13035D01*
D02*
G37*
G36*
X17794Y11852D02*
X16886D01*
Y11594D01*
X17794D01*
Y11852D01*
D02*
G37*
G36*
X1181Y12264D02*
X1088Y12252D01*
X1002Y12216D01*
X928Y12159D01*
X871Y12085D01*
X835Y11998D01*
X823Y11906D01*
X835Y11813D01*
X871Y11726D01*
X928Y11652D01*
X1002Y11595D01*
X1088Y11559D01*
X1181Y11547D01*
X1274Y11559D01*
X1360Y11595D01*
X1434Y11652D01*
X1491Y11726D01*
X1527Y11813D01*
X1539Y11906D01*
X1527Y11998D01*
X1491Y12085D01*
X1434Y12159D01*
X1360Y12216D01*
X1274Y12252D01*
X1181Y12264D01*
D02*
G37*
G36*
X9055Y12201D02*
X8962Y12189D01*
X8876Y12153D01*
X8802Y12096D01*
X8745Y12022D01*
X8709Y11935D01*
X8697Y11843D01*
X8709Y11750D01*
X8745Y11663D01*
X8802Y11589D01*
X8876Y11532D01*
X8962Y11496D01*
X9055Y11484D01*
X9148Y11496D01*
X9234Y11532D01*
X9309Y11589D01*
X9365Y11663D01*
X9401Y11750D01*
X9413Y11843D01*
X9401Y11935D01*
X9365Y12022D01*
X9309Y12096D01*
X9234Y12153D01*
X9148Y12189D01*
X9055Y12201D01*
D02*
G37*
G36*
X17665Y12248D02*
X17015D01*
X16965Y12238D01*
X16922Y12209D01*
X16894Y12167D01*
X16884Y12116D01*
X16894Y12066D01*
X16922Y12023D01*
X16965Y11995D01*
X17015Y11985D01*
X17665D01*
X17715Y11995D01*
X17758Y12023D01*
X17786Y12066D01*
X17796Y12116D01*
X17786Y12167D01*
X17758Y12209D01*
X17715Y12238D01*
X17665Y12248D01*
D02*
G37*
G36*
X1181Y13264D02*
X1088Y13252D01*
X1002Y13216D01*
X928Y13159D01*
X871Y13085D01*
X835Y12998D01*
X823Y12906D01*
X835Y12813D01*
X871Y12726D01*
X928Y12652D01*
X1002Y12595D01*
X1088Y12559D01*
X1181Y12547D01*
X1274Y12559D01*
X1360Y12595D01*
X1434Y12652D01*
X1491Y12726D01*
X1527Y12813D01*
X1539Y12906D01*
X1527Y12998D01*
X1491Y13085D01*
X1434Y13159D01*
X1360Y13216D01*
X1274Y13252D01*
X1181Y13264D01*
D02*
G37*
G36*
X9055Y13201D02*
X8962Y13189D01*
X8876Y13153D01*
X8802Y13096D01*
X8745Y13022D01*
X8709Y12935D01*
X8697Y12843D01*
X8709Y12750D01*
X8745Y12663D01*
X8802Y12589D01*
X8876Y12532D01*
X8962Y12496D01*
X9055Y12484D01*
X9148Y12496D01*
X9234Y12532D01*
X9309Y12589D01*
X9365Y12663D01*
X9401Y12750D01*
X9413Y12843D01*
X9401Y12935D01*
X9365Y13022D01*
X9309Y13096D01*
X9234Y13153D01*
X9148Y13189D01*
X9055Y13201D01*
D02*
G37*
G36*
X17665Y12641D02*
X17015D01*
X16965Y12631D01*
X16922Y12603D01*
X16894Y12560D01*
X16884Y12510D01*
X16894Y12460D01*
X16922Y12417D01*
X16965Y12389D01*
X17015Y12379D01*
X17665D01*
X17715Y12389D01*
X17758Y12417D01*
X17786Y12460D01*
X17796Y12510D01*
X17786Y12560D01*
X17758Y12603D01*
X17715Y12631D01*
X17665Y12641D01*
D02*
G37*
G36*
Y16579D02*
X17015D01*
X16965Y16568D01*
X16922Y16540D01*
X16894Y16497D01*
X16884Y16447D01*
X16894Y16397D01*
X16922Y16354D01*
X16965Y16326D01*
X17015Y16316D01*
X17665D01*
X17715Y16326D01*
X17758Y16354D01*
X17786Y16397D01*
X17796Y16447D01*
X17786Y16497D01*
X17758Y16540D01*
X17715Y16568D01*
X17665Y16579D01*
D02*
G37*
G36*
Y16185D02*
X17015D01*
X16965Y16175D01*
X16922Y16146D01*
X16894Y16104D01*
X16884Y16053D01*
X16894Y16003D01*
X16922Y15960D01*
X16965Y15932D01*
X17015Y15922D01*
X17665D01*
X17715Y15932D01*
X17758Y15960D01*
X17786Y16003D01*
X17796Y16053D01*
X17786Y16104D01*
X17758Y16146D01*
X17715Y16175D01*
X17665Y16185D01*
D02*
G37*
G36*
X1181Y16264D02*
X1088Y16252D01*
X1002Y16216D01*
X928Y16159D01*
X871Y16085D01*
X835Y15998D01*
X823Y15906D01*
X835Y15813D01*
X871Y15726D01*
X928Y15652D01*
X1002Y15595D01*
X1088Y15559D01*
X1181Y15547D01*
X1274Y15559D01*
X1360Y15595D01*
X1434Y15652D01*
X1491Y15726D01*
X1527Y15813D01*
X1539Y15906D01*
X1527Y15998D01*
X1491Y16085D01*
X1434Y16159D01*
X1360Y16216D01*
X1274Y16252D01*
X1181Y16264D01*
D02*
G37*
G36*
Y17264D02*
X1088Y17252D01*
X1002Y17216D01*
X928Y17159D01*
X871Y17085D01*
X835Y16998D01*
X823Y16906D01*
X835Y16813D01*
X871Y16726D01*
X928Y16652D01*
X1002Y16595D01*
X1088Y16559D01*
X1181Y16547D01*
X1274Y16559D01*
X1360Y16595D01*
X1434Y16652D01*
X1491Y16726D01*
X1527Y16813D01*
X1539Y16906D01*
X1527Y16998D01*
X1491Y17085D01*
X1434Y17159D01*
X1360Y17216D01*
X1274Y17252D01*
X1181Y17264D01*
D02*
G37*
G36*
X9055Y18201D02*
X8962Y18189D01*
X8876Y18153D01*
X8802Y18096D01*
X8745Y18022D01*
X8709Y17935D01*
X8697Y17843D01*
X8709Y17750D01*
X8745Y17663D01*
X8802Y17589D01*
X8876Y17532D01*
X8962Y17496D01*
X9055Y17484D01*
X9148Y17496D01*
X9234Y17532D01*
X9309Y17589D01*
X9365Y17663D01*
X9401Y17750D01*
X9413Y17843D01*
X9401Y17935D01*
X9365Y18022D01*
X9309Y18096D01*
X9234Y18153D01*
X9148Y18189D01*
X9055Y18201D01*
D02*
G37*
G36*
X17665Y17366D02*
X17015D01*
X16965Y17356D01*
X16922Y17327D01*
X16894Y17285D01*
X16884Y17234D01*
X16894Y17184D01*
X16922Y17142D01*
X16965Y17113D01*
X17015Y17103D01*
X17665D01*
X17715Y17113D01*
X17758Y17142D01*
X17786Y17184D01*
X17796Y17234D01*
X17786Y17285D01*
X17758Y17327D01*
X17715Y17356D01*
X17665Y17366D01*
D02*
G37*
G36*
Y16972D02*
X17015D01*
X16965Y16962D01*
X16922Y16934D01*
X16894Y16891D01*
X16884Y16841D01*
X16894Y16790D01*
X16922Y16748D01*
X16965Y16719D01*
X17015Y16709D01*
X17665D01*
X17715Y16719D01*
X17758Y16748D01*
X17786Y16790D01*
X17796Y16841D01*
X17786Y16891D01*
X17758Y16934D01*
X17715Y16962D01*
X17665Y16972D01*
D02*
G37*
G36*
X17794Y15789D02*
X16886D01*
Y15531D01*
X17794D01*
Y15789D01*
D02*
G37*
G36*
X17665Y15004D02*
X17015D01*
X16965Y14994D01*
X16922Y14965D01*
X16894Y14923D01*
X16884Y14872D01*
X16894Y14822D01*
X16922Y14779D01*
X16965Y14751D01*
X17015Y14741D01*
X17665D01*
X17715Y14751D01*
X17758Y14779D01*
X17786Y14822D01*
X17796Y14872D01*
X17786Y14923D01*
X17758Y14965D01*
X17715Y14994D01*
X17665Y15004D01*
D02*
G37*
G36*
X1181Y15264D02*
X1088Y15252D01*
X1002Y15216D01*
X928Y15159D01*
X871Y15085D01*
X835Y14998D01*
X823Y14906D01*
X835Y14813D01*
X871Y14726D01*
X928Y14652D01*
X1002Y14595D01*
X1088Y14559D01*
X1181Y14547D01*
X1274Y14559D01*
X1360Y14595D01*
X1434Y14652D01*
X1491Y14726D01*
X1527Y14813D01*
X1539Y14906D01*
X1527Y14998D01*
X1491Y15085D01*
X1434Y15159D01*
X1360Y15216D01*
X1274Y15252D01*
X1181Y15264D01*
D02*
G37*
G36*
X9408Y14803D02*
X9095D01*
Y14489D01*
X9148Y14496D01*
X9234Y14532D01*
X9309Y14589D01*
X9365Y14663D01*
X9401Y14750D01*
X9408Y14803D01*
D02*
G37*
G36*
X9015Y15196D02*
X8962Y15189D01*
X8876Y15153D01*
X8802Y15096D01*
X8745Y15022D01*
X8709Y14935D01*
X8702Y14883D01*
X9015D01*
Y15196D01*
D02*
G37*
G36*
X9055Y16201D02*
X8962Y16189D01*
X8876Y16153D01*
X8802Y16096D01*
X8745Y16022D01*
X8709Y15935D01*
X8697Y15843D01*
X8709Y15750D01*
X8745Y15663D01*
X8802Y15589D01*
X8876Y15532D01*
X8962Y15496D01*
X9055Y15484D01*
X9148Y15496D01*
X9234Y15532D01*
X9309Y15589D01*
X9365Y15663D01*
X9401Y15750D01*
X9413Y15843D01*
X9401Y15935D01*
X9365Y16022D01*
X9309Y16096D01*
X9234Y16153D01*
X9148Y16189D01*
X9055Y16201D01*
D02*
G37*
G36*
X17665Y15397D02*
X17015D01*
X16965Y15387D01*
X16922Y15359D01*
X16894Y15316D01*
X16884Y15266D01*
X16894Y15216D01*
X16922Y15173D01*
X16965Y15145D01*
X17015Y15135D01*
X17665D01*
X17715Y15145D01*
X17758Y15173D01*
X17786Y15216D01*
X17796Y15266D01*
X17786Y15316D01*
X17758Y15359D01*
X17715Y15387D01*
X17665Y15397D01*
D02*
G37*
G36*
X9095Y15196D02*
Y14883D01*
X9408D01*
X9401Y14935D01*
X9365Y15022D01*
X9309Y15096D01*
X9234Y15153D01*
X9148Y15189D01*
X9095Y15196D01*
D02*
G37*
G36*
X17665Y11460D02*
X17015D01*
X16965Y11450D01*
X16922Y11422D01*
X16894Y11379D01*
X16884Y11329D01*
X16894Y11279D01*
X16922Y11236D01*
X16965Y11208D01*
X17015Y11198D01*
X17665D01*
X17715Y11208D01*
X17758Y11236D01*
X17786Y11279D01*
X17796Y11329D01*
X17786Y11379D01*
X17758Y11422D01*
X17715Y11450D01*
X17665Y11460D01*
D02*
G37*
G36*
X16132Y6660D02*
X16039Y6648D01*
X15953Y6612D01*
X15879Y6556D01*
X15822Y6481D01*
X15786Y6395D01*
X15774Y6302D01*
X15786Y6209D01*
X15822Y6123D01*
X15879Y6049D01*
X15953Y5992D01*
X16039Y5956D01*
X16132Y5944D01*
X16225Y5956D01*
X16311Y5992D01*
X16386Y6049D01*
X16442Y6123D01*
X16478Y6209D01*
X16490Y6302D01*
X16478Y6395D01*
X16442Y6481D01*
X16386Y6556D01*
X16311Y6612D01*
X16225Y6648D01*
X16132Y6660D01*
D02*
G37*
G36*
X13132D02*
X13039Y6648D01*
X12953Y6612D01*
X12879Y6556D01*
X12822Y6481D01*
X12794Y6414D01*
X12132D01*
X12089Y6406D01*
X12053Y6381D01*
X12053Y6381D01*
X11478Y5807D01*
X11454Y5770D01*
X11445Y5727D01*
X11445Y5727D01*
Y5494D01*
X11366D01*
Y5174D01*
X11716D01*
X11766Y5174D01*
X11786Y5174D01*
X12136D01*
Y5221D01*
X12784D01*
X12786Y5209D01*
X12822Y5123D01*
X12879Y5049D01*
X12953Y4992D01*
X13039Y4956D01*
X13132Y4944D01*
X13225Y4956D01*
X13311Y4992D01*
X13386Y5049D01*
X13442Y5123D01*
X13478Y5209D01*
X13490Y5302D01*
X13478Y5395D01*
X13442Y5481D01*
X13386Y5556D01*
X13311Y5612D01*
X13225Y5648D01*
X13132Y5660D01*
X13039Y5648D01*
X12953Y5612D01*
X12879Y5556D01*
X12822Y5481D01*
X12807Y5446D01*
X12136D01*
Y5494D01*
X11786D01*
X11736Y5494D01*
X11719Y5494D01*
X11669Y5502D01*
Y5681D01*
X12179Y6190D01*
X12794D01*
X12822Y6123D01*
X12879Y6049D01*
X12953Y5992D01*
X13039Y5956D01*
X13132Y5944D01*
X13225Y5956D01*
X13311Y5992D01*
X13386Y6049D01*
X13442Y6123D01*
X13478Y6209D01*
X13490Y6302D01*
X13478Y6395D01*
X13442Y6481D01*
X13386Y6556D01*
X13311Y6612D01*
X13225Y6648D01*
X13132Y6660D01*
D02*
G37*
G36*
X1181Y6264D02*
X1088Y6252D01*
X1002Y6216D01*
X928Y6159D01*
X871Y6085D01*
X835Y5998D01*
X823Y5906D01*
X835Y5813D01*
X871Y5726D01*
X928Y5652D01*
X1002Y5595D01*
X1088Y5559D01*
X1181Y5547D01*
X1274Y5559D01*
X1360Y5595D01*
X1434Y5652D01*
X1491Y5726D01*
X1527Y5813D01*
X1539Y5906D01*
X1527Y5998D01*
X1491Y6085D01*
X1434Y6159D01*
X1360Y6216D01*
X1274Y6252D01*
X1181Y6264D01*
D02*
G37*
G36*
X9055Y7201D02*
X8962Y7189D01*
X8876Y7153D01*
X8802Y7096D01*
X8745Y7022D01*
X8709Y6935D01*
X8697Y6843D01*
X8709Y6750D01*
X8745Y6663D01*
X8802Y6589D01*
X8876Y6532D01*
X8962Y6496D01*
X9055Y6484D01*
X9148Y6496D01*
X9234Y6532D01*
X9309Y6589D01*
X9365Y6663D01*
X9401Y6750D01*
X9413Y6843D01*
X9401Y6935D01*
X9365Y7022D01*
X9309Y7096D01*
X9234Y7153D01*
X9148Y7189D01*
X9055Y7201D01*
D02*
G37*
G36*
Y8201D02*
X8962Y8189D01*
X8876Y8153D01*
X8802Y8096D01*
X8745Y8022D01*
X8709Y7935D01*
X8697Y7843D01*
X8709Y7750D01*
X8745Y7663D01*
X8802Y7589D01*
X8876Y7532D01*
X8962Y7496D01*
X9055Y7484D01*
X9148Y7496D01*
X9234Y7532D01*
X9309Y7589D01*
X9365Y7663D01*
X9401Y7750D01*
X9413Y7843D01*
X9401Y7935D01*
X9365Y8022D01*
X9309Y8096D01*
X9234Y8153D01*
X9148Y8189D01*
X9055Y8201D01*
D02*
G37*
G36*
X16132Y7660D02*
X16039Y7648D01*
X15953Y7612D01*
X15879Y7556D01*
X15822Y7481D01*
X15786Y7395D01*
X15774Y7302D01*
X15786Y7209D01*
X15822Y7123D01*
X15879Y7049D01*
X15953Y6992D01*
X16039Y6956D01*
X16132Y6944D01*
X16225Y6956D01*
X16311Y6992D01*
X16386Y7049D01*
X16442Y7123D01*
X16478Y7209D01*
X16490Y7302D01*
X16478Y7395D01*
X16442Y7481D01*
X16386Y7556D01*
X16311Y7612D01*
X16225Y7648D01*
X16132Y7660D01*
D02*
G37*
G36*
X1181Y7264D02*
X1088Y7252D01*
X1002Y7216D01*
X928Y7159D01*
X871Y7085D01*
X835Y6998D01*
X823Y6906D01*
X835Y6813D01*
X871Y6726D01*
X928Y6652D01*
X1002Y6595D01*
X1088Y6559D01*
X1181Y6547D01*
X1274Y6559D01*
X1360Y6595D01*
X1434Y6652D01*
X1491Y6726D01*
X1527Y6813D01*
X1539Y6906D01*
X1527Y6998D01*
X1491Y7085D01*
X1434Y7159D01*
X1360Y7216D01*
X1274Y7252D01*
X1181Y7264D01*
D02*
G37*
G36*
X9055Y6201D02*
X8962Y6189D01*
X8876Y6153D01*
X8802Y6096D01*
X8745Y6022D01*
X8709Y5935D01*
X8697Y5843D01*
X8709Y5750D01*
X8745Y5663D01*
X8802Y5589D01*
X8876Y5532D01*
X8962Y5496D01*
X9055Y5484D01*
X9148Y5496D01*
X9234Y5532D01*
X9309Y5589D01*
X9365Y5663D01*
X9401Y5750D01*
X9413Y5843D01*
X9401Y5935D01*
X9365Y6022D01*
X9309Y6096D01*
X9234Y6153D01*
X9148Y6189D01*
X9055Y6201D01*
D02*
G37*
G36*
X11740Y4460D02*
X11595D01*
Y4340D01*
X11740D01*
Y4460D01*
D02*
G37*
G36*
Y4260D02*
X11595D01*
Y4140D01*
X11740D01*
Y4260D01*
D02*
G37*
G36*
X16132Y4660D02*
X16039Y4648D01*
X15953Y4612D01*
X15879Y4556D01*
X15822Y4481D01*
X15786Y4395D01*
X15774Y4302D01*
X15786Y4209D01*
X15822Y4123D01*
X15879Y4049D01*
X15953Y3992D01*
X16039Y3956D01*
X16132Y3944D01*
X16225Y3956D01*
X16311Y3992D01*
X16386Y4049D01*
X16442Y4123D01*
X16478Y4209D01*
X16490Y4302D01*
X16478Y4395D01*
X16442Y4481D01*
X16386Y4556D01*
X16311Y4612D01*
X16225Y4648D01*
X16132Y4660D01*
D02*
G37*
G36*
X13132D02*
X13039Y4648D01*
X12953Y4612D01*
X12879Y4556D01*
X12822Y4481D01*
X12793Y4412D01*
X12365D01*
Y4460D01*
X12015D01*
X11965Y4460D01*
X11945Y4460D01*
X11820D01*
Y4300D01*
Y4140D01*
X11945D01*
X11995Y4140D01*
X12015Y4140D01*
X12365D01*
Y4188D01*
X12795D01*
X12822Y4123D01*
X12879Y4049D01*
X12953Y3992D01*
X13039Y3956D01*
X13132Y3944D01*
X13225Y3956D01*
X13311Y3992D01*
X13386Y4049D01*
X13442Y4123D01*
X13478Y4209D01*
X13490Y4302D01*
X13478Y4395D01*
X13442Y4481D01*
X13386Y4556D01*
X13311Y4612D01*
X13225Y4648D01*
X13132Y4660D01*
D02*
G37*
G36*
X16132Y5660D02*
X16039Y5648D01*
X15953Y5612D01*
X15879Y5556D01*
X15822Y5481D01*
X15786Y5395D01*
X15774Y5302D01*
X15786Y5209D01*
X15822Y5123D01*
X15879Y5049D01*
X15953Y4992D01*
X16039Y4956D01*
X16132Y4944D01*
X16225Y4956D01*
X16311Y4992D01*
X16386Y5049D01*
X16442Y5123D01*
X16478Y5209D01*
X16490Y5302D01*
X16478Y5395D01*
X16442Y5481D01*
X16386Y5556D01*
X16311Y5612D01*
X16225Y5648D01*
X16132Y5660D01*
D02*
G37*
G36*
X1536Y5261D02*
X826D01*
Y4550D01*
X1536D01*
Y5261D01*
D02*
G37*
G36*
X9410Y5198D02*
X8700D01*
Y4487D01*
X9410D01*
Y5198D01*
D02*
G37*
G36*
X9055Y10201D02*
X8962Y10189D01*
X8876Y10153D01*
X8802Y10096D01*
X8745Y10022D01*
X8709Y9935D01*
X8697Y9843D01*
X8709Y9750D01*
X8745Y9663D01*
X8802Y9589D01*
X8876Y9532D01*
X8962Y9496D01*
X9055Y9484D01*
X9148Y9496D01*
X9234Y9532D01*
X9309Y9589D01*
X9365Y9663D01*
X9401Y9750D01*
X9413Y9843D01*
X9401Y9935D01*
X9365Y10022D01*
X9309Y10096D01*
X9234Y10153D01*
X9148Y10189D01*
X9055Y10201D01*
D02*
G37*
G36*
X13487Y9657D02*
X12777D01*
Y9383D01*
X12111D01*
Y9456D01*
X11791D01*
Y9383D01*
X11557D01*
X11514Y9374D01*
X11478Y9350D01*
X11478Y9350D01*
X11084Y8956D01*
X11060Y8920D01*
X11051Y8877D01*
X11051Y8877D01*
Y7696D01*
X11051Y7696D01*
X11060Y7653D01*
X11084Y7617D01*
X11459Y7242D01*
X11472Y7223D01*
X11508Y7199D01*
X11551Y7190D01*
X11760D01*
Y7142D01*
X12110D01*
X12160Y7142D01*
X12180Y7142D01*
X12530D01*
Y7190D01*
X12794D01*
X12822Y7123D01*
X12879Y7049D01*
X12953Y6992D01*
X13039Y6956D01*
X13132Y6944D01*
X13225Y6956D01*
X13311Y6992D01*
X13386Y7049D01*
X13442Y7123D01*
X13478Y7209D01*
X13490Y7302D01*
X13478Y7395D01*
X13442Y7481D01*
X13386Y7556D01*
X13311Y7612D01*
X13225Y7648D01*
X13132Y7660D01*
X13039Y7648D01*
X12953Y7612D01*
X12879Y7556D01*
X12822Y7481D01*
X12794Y7414D01*
X12530D01*
Y7462D01*
X12180D01*
X12130Y7462D01*
X12110Y7462D01*
X11760D01*
Y7414D01*
X11604D01*
X11276Y7742D01*
Y8830D01*
X11604Y9158D01*
X11756D01*
X11791Y9123D01*
X11791Y9056D01*
X11791Y9036D01*
Y8686D01*
X11977D01*
X12440Y8223D01*
X12477Y8199D01*
X12520Y8190D01*
X12520Y8190D01*
X12794D01*
X12822Y8123D01*
X12879Y8049D01*
X12953Y7992D01*
X13039Y7956D01*
X13132Y7944D01*
X13225Y7956D01*
X13311Y7992D01*
X13386Y8049D01*
X13442Y8123D01*
X13478Y8209D01*
X13490Y8302D01*
X13478Y8395D01*
X13442Y8481D01*
X13386Y8556D01*
X13311Y8612D01*
X13225Y8648D01*
X13132Y8660D01*
X13039Y8648D01*
X12953Y8612D01*
X12879Y8556D01*
X12822Y8481D01*
X12794Y8414D01*
X12566D01*
X12111Y8869D01*
X12111Y9086D01*
X12111Y9106D01*
Y9158D01*
X12777D01*
Y8947D01*
X13487D01*
Y9657D01*
D02*
G37*
G36*
X17470Y9470D02*
Y9350D01*
X17615D01*
Y9470D01*
X17470D01*
D02*
G37*
G36*
X1181Y10264D02*
X1088Y10252D01*
X1002Y10216D01*
X928Y10159D01*
X871Y10085D01*
X835Y9998D01*
X823Y9906D01*
X835Y9813D01*
X871Y9726D01*
X928Y9652D01*
X1002Y9595D01*
X1088Y9559D01*
X1181Y9547D01*
X1274Y9559D01*
X1360Y9595D01*
X1434Y9652D01*
X1491Y9726D01*
X1527Y9813D01*
X1539Y9906D01*
X1527Y9998D01*
X1491Y10085D01*
X1434Y10159D01*
X1360Y10216D01*
X1274Y10252D01*
X1181Y10264D01*
D02*
G37*
G36*
X17665Y11067D02*
X17015D01*
X16965Y11057D01*
X16922Y11028D01*
X16894Y10986D01*
X16884Y10935D01*
X16894Y10885D01*
X16922Y10842D01*
X16965Y10814D01*
X17015Y10804D01*
X17665D01*
X17715Y10814D01*
X17758Y10842D01*
X17786Y10885D01*
X17796Y10935D01*
X17786Y10986D01*
X17758Y11028D01*
X17715Y11057D01*
X17665Y11067D01*
D02*
G37*
G36*
X1181Y11264D02*
X1088Y11252D01*
X1002Y11216D01*
X928Y11159D01*
X871Y11085D01*
X835Y10998D01*
X823Y10906D01*
X835Y10813D01*
X871Y10726D01*
X928Y10652D01*
X1002Y10595D01*
X1088Y10559D01*
X1181Y10547D01*
X1274Y10559D01*
X1360Y10595D01*
X1434Y10652D01*
X1491Y10726D01*
X1527Y10813D01*
X1539Y10906D01*
X1527Y10998D01*
X1491Y11085D01*
X1434Y11159D01*
X1360Y11216D01*
X1274Y11252D01*
X1181Y11264D01*
D02*
G37*
G36*
X9055Y11201D02*
X8962Y11189D01*
X8876Y11153D01*
X8802Y11096D01*
X8745Y11022D01*
X8709Y10935D01*
X8697Y10843D01*
X8709Y10750D01*
X8745Y10663D01*
X8802Y10589D01*
X8876Y10532D01*
X8962Y10496D01*
X9055Y10484D01*
X9148Y10496D01*
X9234Y10532D01*
X9309Y10589D01*
X9365Y10663D01*
X9401Y10750D01*
X9413Y10843D01*
X9401Y10935D01*
X9365Y11022D01*
X9309Y11096D01*
X9234Y11153D01*
X9148Y11189D01*
X9055Y11201D01*
D02*
G37*
G36*
X17615Y9270D02*
X17470D01*
Y9150D01*
X17615D01*
Y9270D01*
D02*
G37*
G36*
X16485Y8262D02*
X16172D01*
Y7949D01*
X16225Y7956D01*
X16311Y7992D01*
X16386Y8049D01*
X16442Y8123D01*
X16478Y8209D01*
X16485Y8262D01*
D02*
G37*
G36*
X16092D02*
X15779D01*
X15786Y8209D01*
X15822Y8123D01*
X15879Y8049D01*
X15953Y7992D01*
X16039Y7956D01*
X16092Y7949D01*
Y8262D01*
D02*
G37*
G36*
X1181Y8264D02*
X1088Y8252D01*
X1002Y8216D01*
X928Y8159D01*
X871Y8085D01*
X835Y7998D01*
X823Y7906D01*
X835Y7813D01*
X871Y7726D01*
X928Y7652D01*
X1002Y7595D01*
X1088Y7559D01*
X1181Y7547D01*
X1274Y7559D01*
X1360Y7595D01*
X1434Y7652D01*
X1491Y7726D01*
X1527Y7813D01*
X1539Y7906D01*
X1527Y7998D01*
X1491Y8085D01*
X1434Y8159D01*
X1360Y8216D01*
X1274Y8252D01*
X1181Y8264D01*
D02*
G37*
G36*
X16092Y8655D02*
X16039Y8648D01*
X15953Y8612D01*
X15879Y8556D01*
X15822Y8481D01*
X15786Y8395D01*
X15779Y8342D01*
X16092D01*
Y8655D01*
D02*
G37*
G36*
X1181Y9264D02*
X1088Y9252D01*
X1002Y9216D01*
X928Y9159D01*
X871Y9085D01*
X835Y8998D01*
X823Y8906D01*
X835Y8813D01*
X871Y8726D01*
X928Y8652D01*
X1002Y8595D01*
X1088Y8559D01*
X1181Y8547D01*
X1274Y8559D01*
X1360Y8595D01*
X1434Y8652D01*
X1491Y8726D01*
X1527Y8813D01*
X1539Y8906D01*
X1527Y8998D01*
X1491Y9085D01*
X1434Y9159D01*
X1360Y9216D01*
X1274Y9252D01*
X1181Y9264D01*
D02*
G37*
G36*
X9055Y9201D02*
X8962Y9189D01*
X8876Y9153D01*
X8802Y9096D01*
X8745Y9022D01*
X8709Y8935D01*
X8697Y8843D01*
X8709Y8750D01*
X8745Y8663D01*
X8802Y8589D01*
X8876Y8532D01*
X8962Y8496D01*
X9055Y8484D01*
X9148Y8496D01*
X9234Y8532D01*
X9309Y8589D01*
X9365Y8663D01*
X9401Y8750D01*
X9413Y8843D01*
X9401Y8935D01*
X9365Y9022D01*
X9309Y9096D01*
X9234Y9153D01*
X9148Y9189D01*
X9055Y9201D01*
D02*
G37*
G36*
X16172Y8655D02*
Y8342D01*
X16485D01*
X16478Y8395D01*
X16442Y8481D01*
X16386Y8556D01*
X16311Y8612D01*
X16225Y8648D01*
X16172Y8655D01*
D02*
G37*
G36*
X4012Y25937D02*
X3815D01*
Y25720D01*
X4012D01*
Y25937D01*
D02*
G37*
G36*
X3735D02*
X3538D01*
Y25720D01*
X3735D01*
Y25937D01*
D02*
G37*
G36*
X4012Y25640D02*
X3815D01*
Y25423D01*
X4012D01*
Y25640D01*
D02*
G37*
G36*
X5166Y26006D02*
X4790D01*
Y25792D01*
X4642D01*
Y25937D01*
X4168D01*
Y25423D01*
X4293D01*
Y25297D01*
X4168D01*
Y24783D01*
X4642D01*
Y24928D01*
X4898D01*
Y24783D01*
X5023D01*
Y23760D01*
X4945D01*
Y23440D01*
X5295D01*
X5345Y23440D01*
X5365Y23440D01*
X5418D01*
Y22900D01*
X5345D01*
Y22580D01*
X5418D01*
Y21850D01*
X5345D01*
Y21530D01*
X5418D01*
Y20976D01*
X5162Y20720D01*
X4265D01*
Y20340D01*
X5185D01*
Y20434D01*
X5210Y20451D01*
X5609Y20851D01*
X5609Y20851D01*
X5634Y20887D01*
X5642Y20930D01*
Y21495D01*
X5678Y21530D01*
X5745Y21530D01*
X5765Y21530D01*
X5818D01*
Y20346D01*
X5494Y20022D01*
X3141D01*
X2870Y20294D01*
X2889Y20340D01*
X2935D01*
Y20720D01*
X2015D01*
Y20340D01*
X2506D01*
X3016Y19831D01*
X3016Y19831D01*
X3052Y19806D01*
X3095Y19798D01*
X5540D01*
X5540Y19798D01*
X5583Y19806D01*
X5619Y19831D01*
X6009Y20221D01*
X6009Y20221D01*
X6034Y20257D01*
X6042Y20300D01*
Y21530D01*
X6115D01*
Y21850D01*
X6042D01*
Y22074D01*
X6484Y22516D01*
X6509Y22552D01*
X6517Y22595D01*
X6517Y22595D01*
Y22743D01*
X6642D01*
Y23257D01*
X6168D01*
Y22743D01*
X6293D01*
Y22641D01*
X5851Y22199D01*
X5826Y22163D01*
X5818Y22120D01*
X5818Y22120D01*
Y21885D01*
X5782Y21850D01*
X5715Y21850D01*
X5695Y21850D01*
X5642D01*
Y22545D01*
X5678Y22580D01*
X5745Y22580D01*
X5765Y22580D01*
X5890D01*
Y22740D01*
Y22900D01*
X5765D01*
X5715Y22900D01*
X5695Y22900D01*
X5642D01*
Y23440D01*
X5715D01*
Y23578D01*
X6178D01*
Y23433D01*
X6652D01*
Y23947D01*
X6507D01*
Y24083D01*
X6632D01*
Y24597D01*
X6158D01*
Y24083D01*
X6283D01*
Y23947D01*
X6178D01*
Y23802D01*
X5620D01*
X5577Y23794D01*
X5541Y23769D01*
X5541Y23769D01*
X5531Y23760D01*
X5315Y23760D01*
X5297Y23760D01*
X5247Y23765D01*
Y24783D01*
X5372D01*
Y25297D01*
X4898D01*
Y25152D01*
X4642D01*
Y25297D01*
X4517D01*
Y25423D01*
X4642D01*
Y25568D01*
X4790D01*
Y25354D01*
X5166D01*
Y26006D01*
D02*
G37*
G36*
X9410Y27160D02*
X9097D01*
X9104Y27107D01*
X9140Y27021D01*
X9197Y26947D01*
X9271Y26890D01*
X9357Y26854D01*
X9410Y26847D01*
Y27160D01*
D02*
G37*
G36*
X3450Y27558D02*
X3357Y27546D01*
X3271Y27510D01*
X3197Y27453D01*
X3140Y27379D01*
X3104Y27293D01*
X3092Y27200D01*
X3104Y27107D01*
X3140Y27021D01*
X3197Y26947D01*
X3271Y26890D01*
X3357Y26854D01*
X3450Y26842D01*
X3543Y26854D01*
X3629Y26890D01*
X3703Y26947D01*
X3760Y27021D01*
X3796Y27107D01*
X3808Y27200D01*
X3796Y27293D01*
X3760Y27379D01*
X3703Y27453D01*
X3629Y27510D01*
X3543Y27546D01*
X3450Y27558D01*
D02*
G37*
G36*
X450Y26294D02*
X423Y26290D01*
X360Y26264D01*
X307Y26223D01*
X266Y26170D01*
X240Y26107D01*
X236Y26080D01*
X450D01*
Y26294D01*
D02*
G37*
G36*
X3735Y25640D02*
X3538D01*
Y25423D01*
X3735D01*
Y25640D01*
D02*
G37*
G36*
X4910Y24310D02*
X4762D01*
Y24024D01*
X4910D01*
Y24310D01*
D02*
G37*
G36*
X4682D02*
X4534D01*
Y24024D01*
X4682D01*
Y24310D01*
D02*
G37*
G36*
X17794Y24069D02*
X17380D01*
Y23980D01*
X17794D01*
Y24069D01*
D02*
G37*
G36*
X6002Y25297D02*
X5528D01*
Y24783D01*
X5653D01*
Y24597D01*
X5528D01*
Y24083D01*
X6002D01*
Y24597D01*
X5877D01*
Y24783D01*
X6002D01*
Y25297D01*
D02*
G37*
G36*
X4450Y27558D02*
X4357Y27546D01*
X4271Y27510D01*
X4197Y27453D01*
X4140Y27379D01*
X4104Y27293D01*
X4092Y27200D01*
X4104Y27107D01*
X4140Y27021D01*
X4197Y26947D01*
X4271Y26890D01*
X4338Y26862D01*
Y26560D01*
X4338Y26560D01*
X4346Y26517D01*
X4371Y26481D01*
X4681Y26171D01*
X4681Y26171D01*
X4717Y26146D01*
X4760Y26138D01*
X5306D01*
X5734Y25709D01*
Y25354D01*
X6110D01*
Y26006D01*
X5755D01*
X5432Y26329D01*
X5395Y26354D01*
X5352Y26362D01*
X5352Y26362D01*
X4806D01*
X4562Y26606D01*
Y26862D01*
X4629Y26890D01*
X4703Y26947D01*
X4760Y27021D01*
X4796Y27107D01*
X4808Y27200D01*
X4796Y27293D01*
X4760Y27379D01*
X4703Y27453D01*
X4629Y27510D01*
X4543Y27546D01*
X4450Y27558D01*
D02*
G37*
G36*
X4910Y24676D02*
X4762D01*
Y24390D01*
X4910D01*
Y24676D01*
D02*
G37*
G36*
X4682D02*
X4534D01*
Y24390D01*
X4682D01*
Y24676D01*
D02*
G37*
G36*
X9803Y27160D02*
X9490D01*
Y26847D01*
X9543Y26854D01*
X9629Y26890D01*
X9703Y26947D01*
X9760Y27021D01*
X9796Y27107D01*
X9803Y27160D01*
D02*
G37*
G36*
X9450Y28558D02*
X9357Y28546D01*
X9271Y28510D01*
X9197Y28453D01*
X9140Y28379D01*
X9104Y28293D01*
X9092Y28200D01*
X9104Y28107D01*
X9140Y28021D01*
X9197Y27947D01*
X9271Y27890D01*
X9357Y27854D01*
X9450Y27842D01*
X9543Y27854D01*
X9629Y27890D01*
X9703Y27947D01*
X9760Y28021D01*
X9796Y28107D01*
X9808Y28200D01*
X9796Y28293D01*
X9760Y28379D01*
X9703Y28453D01*
X9629Y28510D01*
X9543Y28546D01*
X9450Y28558D01*
D02*
G37*
G36*
X8450D02*
X8357Y28546D01*
X8271Y28510D01*
X8197Y28453D01*
X8140Y28379D01*
X8104Y28293D01*
X8092Y28200D01*
X8104Y28107D01*
X8140Y28021D01*
X8197Y27947D01*
X8271Y27890D01*
X8357Y27854D01*
X8450Y27842D01*
X8543Y27854D01*
X8629Y27890D01*
X8703Y27947D01*
X8760Y28021D01*
X8796Y28107D01*
X8808Y28200D01*
X8796Y28293D01*
X8760Y28379D01*
X8703Y28453D01*
X8629Y28510D01*
X8543Y28546D01*
X8450Y28558D01*
D02*
G37*
G36*
X7450D02*
X7357Y28546D01*
X7271Y28510D01*
X7197Y28453D01*
X7140Y28379D01*
X7104Y28293D01*
X7092Y28200D01*
X7104Y28107D01*
X7140Y28021D01*
X7197Y27947D01*
X7271Y27890D01*
X7357Y27854D01*
X7450Y27842D01*
X7543Y27854D01*
X7629Y27890D01*
X7703Y27947D01*
X7760Y28021D01*
X7796Y28107D01*
X7808Y28200D01*
X7796Y28293D01*
X7760Y28379D01*
X7703Y28453D01*
X7629Y28510D01*
X7543Y28546D01*
X7450Y28558D01*
D02*
G37*
G36*
X11410Y28160D02*
X11097D01*
X11104Y28107D01*
X11140Y28021D01*
X11197Y27947D01*
X11271Y27890D01*
X11357Y27854D01*
X11410Y27847D01*
Y28160D01*
D02*
G37*
G36*
X11490Y28553D02*
Y28240D01*
X11803D01*
X11796Y28293D01*
X11760Y28379D01*
X11703Y28453D01*
X11629Y28510D01*
X11543Y28546D01*
X11490Y28553D01*
D02*
G37*
G36*
X11410D02*
X11357Y28546D01*
X11271Y28510D01*
X11197Y28453D01*
X11140Y28379D01*
X11104Y28293D01*
X11097Y28240D01*
X11410D01*
Y28553D01*
D02*
G37*
G36*
X11803Y28160D02*
X11490D01*
Y27847D01*
X11543Y27854D01*
X11629Y27890D01*
X11703Y27947D01*
X11760Y28021D01*
X11796Y28107D01*
X11803Y28160D01*
D02*
G37*
G36*
X10490Y27553D02*
Y27240D01*
X10803D01*
X10796Y27293D01*
X10760Y27379D01*
X10703Y27453D01*
X10629Y27510D01*
X10543Y27546D01*
X10490Y27553D01*
D02*
G37*
G36*
X11410Y27160D02*
X11097D01*
X11104Y27107D01*
X11140Y27021D01*
X11197Y26947D01*
X11271Y26890D01*
X11357Y26854D01*
X11410Y26847D01*
Y27160D01*
D02*
G37*
G36*
X10803D02*
X10490D01*
Y26847D01*
X10543Y26854D01*
X10629Y26890D01*
X10703Y26947D01*
X10760Y27021D01*
X10796Y27107D01*
X10803Y27160D01*
D02*
G37*
G36*
X10410D02*
X10097D01*
X10104Y27107D01*
X10140Y27021D01*
X10197Y26947D01*
X10271Y26890D01*
X10357Y26854D01*
X10410Y26847D01*
Y27160D01*
D02*
G37*
G36*
X11803D02*
X11490D01*
Y26847D01*
X11543Y26854D01*
X11629Y26890D01*
X11703Y26947D01*
X11760Y27021D01*
X11796Y27107D01*
X11803Y27160D01*
D02*
G37*
G36*
X10410Y27553D02*
X10357Y27546D01*
X10271Y27510D01*
X10197Y27453D01*
X10140Y27379D01*
X10104Y27293D01*
X10097Y27240D01*
X10410D01*
Y27553D01*
D02*
G37*
G36*
X9490D02*
Y27240D01*
X9803D01*
X9796Y27293D01*
X9760Y27379D01*
X9703Y27453D01*
X9629Y27510D01*
X9543Y27546D01*
X9490Y27553D01*
D02*
G37*
G36*
X9410D02*
X9357Y27546D01*
X9271Y27510D01*
X9197Y27453D01*
X9140Y27379D01*
X9104Y27293D01*
X9097Y27240D01*
X9410D01*
Y27553D01*
D02*
G37*
G36*
X5185Y20990D02*
X4765D01*
Y20840D01*
X5185D01*
Y20990D01*
D02*
G37*
G36*
X4685D02*
X4265D01*
Y20840D01*
X4685D01*
Y20990D01*
D02*
G37*
G36*
X17665Y20922D02*
X17015D01*
X16965Y20912D01*
X16922Y20883D01*
X16894Y20841D01*
X16884Y20790D01*
X16894Y20740D01*
X16922Y20697D01*
X16965Y20669D01*
X17015Y20659D01*
X17665D01*
X17715Y20669D01*
X17758Y20697D01*
X17786Y20740D01*
X17796Y20790D01*
X17786Y20841D01*
X17758Y20883D01*
X17715Y20912D01*
X17665Y20922D01*
D02*
G37*
G36*
Y21316D02*
X17015D01*
X16965Y21306D01*
X16922Y21277D01*
X16894Y21234D01*
X16884Y21184D01*
X16894Y21134D01*
X16922Y21091D01*
X16965Y21063D01*
X17015Y21053D01*
X17665D01*
X17715Y21063D01*
X17758Y21091D01*
X17786Y21134D01*
X17796Y21184D01*
X17786Y21234D01*
X17758Y21277D01*
X17715Y21306D01*
X17665Y21316D01*
D02*
G37*
G36*
X4160Y21970D02*
X3640D01*
Y21320D01*
X4160D01*
Y21970D01*
D02*
G37*
G36*
X5185Y21220D02*
X4765D01*
Y21070D01*
X5185D01*
Y21220D01*
D02*
G37*
G36*
X4685D02*
X4265D01*
Y21070D01*
X4685D01*
Y21220D01*
D02*
G37*
G36*
X4160Y21240D02*
X3640D01*
Y20590D01*
X4160D01*
Y21240D01*
D02*
G37*
G36*
X17665Y18153D02*
X17015D01*
X16965Y18143D01*
X16922Y18115D01*
X16894Y18072D01*
X16884Y18022D01*
X16894Y17972D01*
X16922Y17929D01*
X16965Y17900D01*
X17015Y17890D01*
X17665D01*
X17715Y17900D01*
X17758Y17929D01*
X17786Y17972D01*
X17796Y18022D01*
X17786Y18072D01*
X17758Y18115D01*
X17715Y18143D01*
X17665Y18153D01*
D02*
G37*
G36*
X1181Y18264D02*
X1088Y18252D01*
X1002Y18216D01*
X928Y18159D01*
X871Y18085D01*
X835Y17998D01*
X823Y17906D01*
X835Y17813D01*
X871Y17726D01*
X928Y17652D01*
X1002Y17595D01*
X1088Y17559D01*
X1181Y17547D01*
X1274Y17559D01*
X1360Y17595D01*
X1434Y17652D01*
X1491Y17726D01*
X1527Y17813D01*
X1539Y17906D01*
X1527Y17998D01*
X1491Y18085D01*
X1434Y18159D01*
X1360Y18216D01*
X1274Y18252D01*
X1181Y18264D01*
D02*
G37*
G36*
X17665Y17760D02*
X17015D01*
X16965Y17750D01*
X16922Y17721D01*
X16894Y17678D01*
X16884Y17628D01*
X16894Y17578D01*
X16922Y17535D01*
X16965Y17507D01*
X17015Y17497D01*
X17665D01*
X17715Y17507D01*
X17758Y17535D01*
X17786Y17578D01*
X17796Y17628D01*
X17786Y17678D01*
X17758Y17721D01*
X17715Y17750D01*
X17665Y17760D01*
D02*
G37*
G36*
Y18547D02*
X17015D01*
X16965Y18537D01*
X16922Y18509D01*
X16894Y18466D01*
X16884Y18416D01*
X16894Y18365D01*
X16922Y18323D01*
X16965Y18294D01*
X17015Y18284D01*
X17665D01*
X17715Y18294D01*
X17758Y18323D01*
X17786Y18365D01*
X17796Y18416D01*
X17786Y18466D01*
X17758Y18509D01*
X17715Y18537D01*
X17665Y18547D01*
D02*
G37*
G36*
X17794Y20526D02*
X16886D01*
Y20268D01*
X17794D01*
Y20526D01*
D02*
G37*
G36*
X17665Y20134D02*
X17015D01*
X16965Y20124D01*
X16922Y20096D01*
X16894Y20053D01*
X16884Y20003D01*
X16894Y19953D01*
X16922Y19910D01*
X16965Y19882D01*
X17015Y19872D01*
X17665D01*
X17715Y19882D01*
X17758Y19910D01*
X17786Y19953D01*
X17796Y20003D01*
X17786Y20053D01*
X17758Y20096D01*
X17715Y20124D01*
X17665Y20134D01*
D02*
G37*
G36*
Y18941D02*
X17015D01*
X16965Y18931D01*
X16922Y18902D01*
X16894Y18860D01*
X16884Y18809D01*
X16894Y18759D01*
X16922Y18716D01*
X16965Y18688D01*
X17015Y18678D01*
X17665D01*
X17715Y18688D01*
X17758Y18716D01*
X17786Y18759D01*
X17796Y18809D01*
X17786Y18860D01*
X17758Y18902D01*
X17715Y18931D01*
X17665Y18941D01*
D02*
G37*
G36*
X4685Y21490D02*
X4265D01*
Y21340D01*
X4685D01*
Y21490D01*
D02*
G37*
G36*
X3014Y23526D02*
X2869D01*
Y23406D01*
X3014D01*
Y23526D01*
D02*
G37*
G36*
X5970Y22900D02*
Y22780D01*
X6115D01*
Y22900D01*
X5970D01*
D02*
G37*
G36*
X7282Y23947D02*
X6808D01*
Y23433D01*
X6933D01*
Y23257D01*
X6798D01*
Y22743D01*
X7272D01*
Y23257D01*
X7157D01*
Y23433D01*
X7282D01*
Y23947D01*
D02*
G37*
G36*
X15746Y23760D02*
X15664Y23744D01*
X15595Y23698D01*
X15548Y23628D01*
X15532Y23546D01*
X15548Y23464D01*
X15595Y23395D01*
X15664Y23348D01*
X15746Y23332D01*
X15828Y23348D01*
X15898Y23395D01*
X15924Y23434D01*
X16951D01*
X16965Y23425D01*
X17015Y23415D01*
X17665D01*
X17715Y23425D01*
X17758Y23453D01*
X17786Y23496D01*
X17796Y23546D01*
X17786Y23597D01*
X17758Y23639D01*
X17715Y23668D01*
X17665Y23678D01*
X17015D01*
X16965Y23668D01*
X16951Y23658D01*
X15924D01*
X15898Y23698D01*
X15828Y23744D01*
X15746Y23760D01*
D02*
G37*
G36*
X17300Y24069D02*
X16886D01*
Y23980D01*
X17300D01*
Y24069D01*
D02*
G37*
G36*
X17794Y23900D02*
X17380D01*
Y23811D01*
X17794D01*
Y23900D01*
D02*
G37*
G36*
X17300D02*
X16886D01*
Y23811D01*
X17300D01*
Y23900D01*
D02*
G37*
G36*
X17665Y22890D02*
X17015D01*
X16965Y22880D01*
X16922Y22852D01*
X16894Y22809D01*
X16884Y22759D01*
X16894Y22709D01*
X16922Y22666D01*
X16965Y22637D01*
X17015Y22627D01*
X17665D01*
X17715Y22637D01*
X17758Y22666D01*
X17786Y22709D01*
X17796Y22759D01*
X17786Y22809D01*
X17758Y22852D01*
X17715Y22880D01*
X17665Y22890D01*
D02*
G37*
G36*
X4685Y21720D02*
X4265D01*
Y21570D01*
X4685D01*
Y21720D01*
D02*
G37*
G36*
X17665Y21709D02*
X17015D01*
X16965Y21699D01*
X16922Y21671D01*
X16894Y21628D01*
X16884Y21578D01*
X16894Y21528D01*
X16922Y21485D01*
X16965Y21456D01*
X17015Y21446D01*
X17665D01*
X17715Y21456D01*
X17758Y21485D01*
X17786Y21528D01*
X17796Y21578D01*
X17786Y21628D01*
X17758Y21671D01*
X17715Y21699D01*
X17665Y21709D01*
D02*
G37*
G36*
X5185Y21490D02*
X4765D01*
Y21340D01*
X5185D01*
Y21490D01*
D02*
G37*
G36*
Y21720D02*
X4765D01*
Y21570D01*
X5185D01*
Y21720D01*
D02*
G37*
G36*
X6115Y22700D02*
X5970D01*
Y22580D01*
X6115D01*
Y22700D01*
D02*
G37*
G36*
X17665Y22497D02*
X17015D01*
X16965Y22487D01*
X16922Y22458D01*
X16894Y22415D01*
X16884Y22365D01*
X16894Y22315D01*
X16922Y22272D01*
X16965Y22244D01*
X17015Y22234D01*
X17665D01*
X17715Y22244D01*
X17758Y22272D01*
X17786Y22315D01*
X17796Y22365D01*
X17786Y22415D01*
X17758Y22458D01*
X17715Y22487D01*
X17665Y22497D01*
D02*
G37*
G36*
Y22103D02*
X17015D01*
X16965Y22093D01*
X16922Y22064D01*
X16894Y22022D01*
X16884Y21971D01*
X16894Y21921D01*
X16922Y21879D01*
X16965Y21850D01*
X17015Y21840D01*
X17665D01*
X17715Y21850D01*
X17758Y21879D01*
X17786Y21921D01*
X17796Y21971D01*
X17786Y22022D01*
X17758Y22064D01*
X17715Y22093D01*
X17665Y22103D01*
D02*
G37*
%LPD*%
D10*
X5530Y22740D02*
D03*
X5930D02*
D03*
X5530Y21690D02*
D03*
X5930D02*
D03*
X3454Y23366D02*
D03*
X3054D02*
D03*
X11951Y5334D02*
D03*
X11551D02*
D03*
X12345Y7302D02*
D03*
X11945D02*
D03*
X17030Y9310D02*
D03*
X17430D02*
D03*
X12180Y4300D02*
D03*
X11780D02*
D03*
X5130Y23600D02*
D03*
X5530D02*
D03*
X3060Y23040D02*
D03*
X3460D02*
D03*
D11*
X6395Y24340D02*
D03*
X5765D02*
D03*
X4405Y25680D02*
D03*
X3775D02*
D03*
X6415Y23690D02*
D03*
X7045D02*
D03*
X4405Y25040D02*
D03*
X3775D02*
D03*
X5135D02*
D03*
X5765D02*
D03*
X7035Y23000D02*
D03*
X6405D02*
D03*
D12*
X11951Y8871D02*
D03*
Y9271D02*
D03*
D13*
X5922Y25680D02*
D03*
X4978D02*
D03*
X3778Y24350D02*
D03*
X4722D02*
D03*
D14*
X17340Y10935D02*
D03*
Y11329D02*
D03*
Y12116D02*
D03*
Y12510D02*
D03*
Y12904D02*
D03*
Y13297D02*
D03*
Y13691D02*
D03*
Y14085D02*
D03*
Y14479D02*
D03*
Y14872D02*
D03*
Y15266D02*
D03*
Y16053D02*
D03*
Y16447D02*
D03*
Y16841D02*
D03*
Y17234D02*
D03*
Y17628D02*
D03*
Y18022D02*
D03*
Y18416D02*
D03*
Y18809D02*
D03*
Y23546D02*
D03*
Y23153D02*
D03*
Y22759D02*
D03*
Y22365D02*
D03*
Y21971D02*
D03*
Y21578D02*
D03*
Y21184D02*
D03*
Y20790D02*
D03*
Y20003D02*
D03*
D15*
Y11723D02*
D03*
Y15660D02*
D03*
Y23940D02*
D03*
Y20397D02*
D03*
D16*
X2475Y20530D02*
D03*
Y21030D02*
D03*
Y21530D02*
D03*
Y22030D02*
D03*
X4725Y20530D02*
D03*
Y21030D02*
D03*
Y21530D02*
D03*
Y22030D02*
D03*
D17*
X3600Y21280D02*
D03*
D18*
X14517Y23153D02*
X17340D01*
X11045Y27605D02*
X12421D01*
X10450Y28200D02*
X11045Y27605D01*
X11136Y2300D02*
X11138Y2302D01*
X9350Y2300D02*
X11136D01*
X8260Y3390D02*
X9350Y2300D01*
X8260Y3390D02*
Y12830D01*
X14477Y3767D02*
Y9940D01*
X14610Y10260D02*
X17587D01*
X13640Y11230D02*
X14610Y10260D01*
X14544Y10100D02*
X17464D01*
X7450Y27096D02*
Y27200D01*
X13132Y3302D02*
Y3315D01*
X12345Y7302D02*
X13132D01*
X11551D02*
X11945D01*
X12520Y8302D02*
X13132D01*
X12132Y6302D02*
X13132D01*
X13101Y5334D02*
X13132Y5302D01*
X13101Y9271D02*
X13132Y9302D01*
X11951Y9271D02*
X13101D01*
X11951Y8871D02*
X12520Y8302D01*
X11551Y7302D02*
Y7308D01*
X11164Y7696D02*
X11551Y7308D01*
X11164Y7696D02*
Y8877D01*
X11557Y9271D01*
X11951D01*
X11557Y5727D02*
X12132Y6302D01*
X11557Y5340D02*
Y5727D01*
X11551Y5334D02*
X11557Y5340D01*
X11951Y5334D02*
X13101D01*
X11138Y2302D02*
X13132D01*
X15746Y23546D02*
X17340D01*
X3010Y28640D02*
X3450Y28200D01*
X1510Y28640D02*
X3010D01*
X16132Y9302D02*
X17022D01*
X17030Y9310D01*
X12180Y4300D02*
X13130D01*
X13132Y4302D01*
X14012Y3302D02*
X14477Y3767D01*
X13132Y3302D02*
X14012D01*
X14637Y7807D02*
X16132Y9302D01*
X14637Y3690D02*
Y7807D01*
X14626Y3690D02*
X14637D01*
X13686Y2750D02*
X14626Y3690D01*
X8420Y3456D02*
Y12896D01*
Y3456D02*
X9126Y2750D01*
X13686D01*
X4700Y16843D02*
X9055D01*
X16132Y2302D02*
X18100Y4270D01*
Y9747D01*
X17587Y10260D02*
X18100Y9747D01*
X16132Y3302D02*
X17940Y5110D01*
Y9624D01*
X17464Y10100D02*
X17940Y9624D01*
X8450Y26810D02*
Y27200D01*
Y26810D02*
X8590Y26670D01*
X7450Y27096D02*
X8036Y26510D01*
X6450Y27200D02*
X7300Y26350D01*
X8590Y26670D02*
X13130D01*
X13640Y26160D01*
Y11230D02*
Y26160D01*
X8036Y26510D02*
X13064D01*
X7300Y26350D02*
X12997D01*
X13480Y11164D02*
X14544Y10100D01*
X13480Y11164D02*
Y26094D01*
X13064Y26510D02*
X13480Y26094D01*
X13320Y11097D02*
X14477Y9940D01*
X13320Y11097D02*
Y26027D01*
X12997Y26350D02*
X13320Y26027D01*
X13800Y23870D02*
X14517Y23153D01*
X13800Y23870D02*
Y26226D01*
X12421Y27605D02*
X13800Y26226D01*
X4080Y28200D02*
X4450D01*
X4405Y25680D02*
X4978D01*
X4405Y25040D02*
Y25680D01*
X5765Y24340D02*
Y25040D01*
Y24340D02*
X5765Y24340D01*
X3775Y24353D02*
Y25040D01*
Y24353D02*
X3778Y24350D01*
X4405Y25040D02*
X5135D01*
X6395Y24340D02*
X6395Y24340D01*
X7025Y23010D02*
X7035Y23000D01*
X1290Y28420D02*
X1510Y28640D01*
X490Y25040D02*
X970Y25520D01*
X5511Y29139D02*
X6450Y28200D01*
X1450Y27400D02*
X1840Y27790D01*
X3670D01*
X4080Y28200D01*
X4423Y28800D02*
X4860Y28363D01*
Y27790D02*
X5450Y27200D01*
X4860Y27790D02*
Y28363D01*
X5540Y19910D02*
X5930Y20300D01*
X3095Y19910D02*
X5540D01*
X2475Y20530D02*
X3095Y19910D01*
X4725Y20530D02*
X5130D01*
X5530Y20930D01*
X2680Y24350D02*
X3778D01*
X2475Y24145D02*
X2680Y24350D01*
X2475Y22030D02*
Y24145D01*
X4725Y22030D02*
Y22755D01*
X4440Y23040D02*
X4725Y22755D01*
X3460Y23040D02*
X4440D01*
X3454Y23046D02*
Y23366D01*
Y23046D02*
X3460Y23040D01*
X2475Y21030D02*
X2735Y21290D01*
X2921D01*
X2990Y21359D01*
Y22582D01*
X1610Y26360D02*
X2450Y27200D01*
X1290Y20026D02*
Y28420D01*
X1450Y20093D02*
Y27400D01*
X1130Y19960D02*
X8260Y12830D01*
X1290Y20026D02*
X8420Y12896D01*
X1450Y20093D02*
X4700Y16843D01*
X1329Y29139D02*
X5511D01*
X1130Y19960D02*
Y28489D01*
X1441Y28800D01*
X4423D01*
X490Y25540D02*
X810Y25860D01*
Y28622D02*
X1308Y29120D01*
X1310D01*
X1329Y29139D01*
X810Y25860D02*
Y28622D01*
X1375Y28960D02*
X4670D01*
X970Y28555D02*
X1375Y28960D01*
X970Y25520D02*
Y28555D01*
X4670Y28960D02*
X5440Y28190D01*
X1610Y21200D02*
Y26360D01*
Y21200D02*
X1780Y21030D01*
X2475D01*
X2990Y22582D02*
X3454Y23046D01*
X5135Y23605D02*
Y25040D01*
X5130Y23600D02*
X5135Y23605D01*
X5530Y22740D02*
Y23600D01*
Y21690D02*
Y22740D01*
X5930Y21690D02*
Y22120D01*
X6405Y22595D01*
Y23000D01*
X5530Y20930D02*
Y21690D01*
X5930Y20300D02*
Y21690D01*
X4450Y26560D02*
Y27200D01*
Y26560D02*
X4760Y26250D01*
X5352D01*
X5922Y25680D01*
X6395Y23710D02*
Y24340D01*
Y23710D02*
X6415Y23690D01*
X5620D02*
X6415D01*
X5530Y23600D02*
X5620Y23690D01*
X7045Y23030D02*
Y23690D01*
X7025Y23010D02*
X7045Y23030D01*
D19*
X1181Y17906D02*
D03*
Y16906D02*
D03*
Y15906D02*
D03*
Y14906D02*
D03*
Y13906D02*
D03*
Y12906D02*
D03*
Y11906D02*
D03*
Y10906D02*
D03*
Y9906D02*
D03*
Y8906D02*
D03*
Y7906D02*
D03*
Y6906D02*
D03*
Y5906D02*
D03*
X16132Y2302D02*
D03*
Y3302D02*
D03*
Y4302D02*
D03*
Y5302D02*
D03*
Y6302D02*
D03*
Y7302D02*
D03*
Y8302D02*
D03*
Y9302D02*
D03*
X13132Y2302D02*
D03*
Y3302D02*
D03*
Y4302D02*
D03*
Y5302D02*
D03*
Y6302D02*
D03*
Y7302D02*
D03*
Y8302D02*
D03*
X9055Y17843D02*
D03*
Y16843D02*
D03*
Y15843D02*
D03*
Y14843D02*
D03*
Y13843D02*
D03*
Y12843D02*
D03*
Y11843D02*
D03*
Y10843D02*
D03*
Y9843D02*
D03*
Y8843D02*
D03*
Y7843D02*
D03*
Y6843D02*
D03*
Y5843D02*
D03*
X2450Y28200D02*
D03*
X3450Y27200D02*
D03*
Y28200D02*
D03*
X4450Y27200D02*
D03*
Y28200D02*
D03*
X5450Y27200D02*
D03*
Y28200D02*
D03*
X6450Y27200D02*
D03*
Y28200D02*
D03*
X7450Y27200D02*
D03*
Y28200D02*
D03*
X8450Y27200D02*
D03*
Y28200D02*
D03*
X9450Y27200D02*
D03*
Y28200D02*
D03*
X10450Y27200D02*
D03*
Y28200D02*
D03*
X11450Y27200D02*
D03*
Y28200D02*
D03*
D20*
X1181Y4906D02*
D03*
X9055Y4843D02*
D03*
D21*
X13132Y9302D02*
D03*
X2450Y27200D02*
D03*
D22*
X490Y26040D02*
D03*
Y25540D02*
D03*
D23*
Y25040D02*
D03*
D24*
X15746Y23546D02*
D03*
M02*
