G04*
G04 #@! TF.GenerationSoftware,Altium Limited,Altium Designer,19.0.10 (269)*
G04*
G04 Layer_Color=32768*
%FSLAX24Y24*%
%MOIN*%
G70*
G01*
G75*
%ADD13C,0.0060*%
%ADD48C,0.0039*%
%ADD50C,0.0020*%
G36*
X12244Y17716D02*
X12340D01*
Y16964D01*
X11840D01*
Y16740D01*
X11440D01*
X11440Y16964D01*
X10940D01*
Y17716D01*
X11036D01*
Y17940D01*
X12244D01*
Y17716D01*
D02*
G37*
G36*
X9186Y25580D02*
X9410D01*
Y25180D01*
X9186Y25180D01*
Y24680D01*
X8434D01*
Y24776D01*
X8210D01*
Y25984D01*
X8434D01*
Y26080D01*
X9186D01*
Y25580D01*
D02*
G37*
G36*
X13180Y24530D02*
X14360D01*
Y19210D01*
X13180D01*
Y19020D01*
X10220D01*
Y19210D01*
X9040D01*
Y24530D01*
X10220D01*
Y24720D01*
X13180D01*
Y24530D01*
D02*
G37*
D13*
X8210Y24780D02*
Y25980D01*
Y25984D02*
X8434D01*
X8210Y24776D02*
X8434D01*
Y25984D02*
Y26080D01*
Y24680D02*
Y24776D01*
Y24680D02*
X9186D01*
Y25180D01*
X9410D01*
Y25580D01*
X9186D02*
X9410Y25580D01*
X9186Y25580D02*
Y26080D01*
X8434D02*
X9186D01*
X11040Y17940D02*
X12240D01*
X12244Y17716D02*
Y17940D01*
X11036Y17716D02*
Y17940D01*
X12244Y17716D02*
X12340D01*
X10940D02*
X11036D01*
X10940Y16964D02*
Y17716D01*
Y16964D02*
X11440D01*
Y16740D02*
Y16964D01*
Y16740D02*
X11840D01*
X11840D02*
X11840Y16964D01*
X12340D01*
Y17716D01*
X10220Y24720D02*
X13180D01*
Y24530D02*
Y24720D01*
Y19020D02*
Y19210D01*
X10220Y19020D02*
X13180D01*
X10220D02*
Y19210D01*
Y24530D02*
Y24720D01*
X9040Y24530D02*
X10220D01*
X13180D02*
X14360D01*
Y19210D02*
Y24530D01*
X13180Y19210D02*
X14360D01*
X9040D02*
X10220D01*
X9040D02*
Y24530D01*
D48*
X14632Y5605D02*
Y5999D01*
X14435Y5802D02*
X14829D01*
X11490Y18333D02*
Y18727D01*
X11293Y18530D02*
X11687D01*
X10703Y18156D02*
X12277D01*
X10703Y18904D02*
X12277D01*
Y18156D02*
Y18904D01*
X10703Y18156D02*
Y18904D01*
D50*
X12723Y1826D02*
X16542D01*
X12723Y9779D02*
X16542D01*
Y1826D02*
Y9779D01*
X12723Y1826D02*
Y9779D01*
M02*
