G04*
G04 #@! TF.GenerationSoftware,Altium Limited,Altium Designer,19.0.10 (269)*
G04*
G04 Layer_Physical_Order=1*
G04 Layer_Color=255*
%FSLAX24Y24*%
%MOIN*%
G70*
G01*
G75*
%ADD14C,0.0080*%
%ADD17R,0.0350X0.0320*%
%ADD18R,0.0320X0.0350*%
%ADD19R,0.2760X0.1570*%
%ADD20R,0.0433X0.0669*%
%ADD21O,0.0787X0.0138*%
%ADD22R,0.0787X0.0138*%
%ADD23R,0.0260X0.0800*%
%ADD24R,0.0394X0.0354*%
%ADD25R,0.0250X0.0200*%
%ADD26R,0.0354X0.0394*%
%ADD27R,0.0200X0.0250*%
%ADD41R,0.1260X0.1000*%
%ADD42C,0.0120*%
%ADD43R,0.0591X0.0591*%
%ADD44C,0.0591*%
%ADD45R,0.0591X0.0591*%
%ADD46C,0.0300*%
G36*
X6388Y29101D02*
X5853Y28567D01*
X5827Y28527D01*
X5818Y28480D01*
Y28371D01*
X5768Y28362D01*
X5760Y28379D01*
X5703Y28453D01*
X5629Y28510D01*
X5543Y28546D01*
X5450Y28558D01*
X5357Y28546D01*
X5271Y28510D01*
X5197Y28453D01*
X5140Y28379D01*
X5121Y28335D01*
X5103Y28331D01*
X5067Y28334D01*
X5047Y28364D01*
X4314Y29097D01*
X4313Y29097D01*
X4328Y29147D01*
X6369D01*
X6388Y29101D01*
D02*
G37*
G36*
X4461Y28603D02*
X4437Y28557D01*
X4357Y28546D01*
X4271Y28510D01*
X4197Y28453D01*
X4140Y28379D01*
X4104Y28293D01*
X4092Y28200D01*
X4104Y28107D01*
X4140Y28021D01*
X4197Y27947D01*
X4271Y27890D01*
X4357Y27854D01*
X4450Y27842D01*
X4543Y27854D01*
X4629Y27890D01*
X4703Y27947D01*
X4760Y28021D01*
X4788Y28087D01*
X4838Y28077D01*
Y27690D01*
X4847Y27643D01*
X4873Y27603D01*
X5127Y27350D01*
X5104Y27293D01*
X5092Y27200D01*
X5104Y27107D01*
X5140Y27021D01*
X5197Y26947D01*
X5271Y26890D01*
X5357Y26854D01*
X5450Y26842D01*
X5543Y26854D01*
X5629Y26890D01*
X5703Y26947D01*
X5751Y27009D01*
X5796Y27003D01*
X5804Y26999D01*
X5807Y26980D01*
X5509Y26682D01*
X3141D01*
X2805Y27018D01*
Y27493D01*
X2984D01*
X3127Y27350D01*
X3104Y27293D01*
X3092Y27200D01*
X3104Y27107D01*
X3140Y27021D01*
X3197Y26947D01*
X3271Y26890D01*
X3357Y26854D01*
X3450Y26842D01*
X3543Y26854D01*
X3629Y26890D01*
X3703Y26947D01*
X3760Y27021D01*
X3796Y27107D01*
X3808Y27200D01*
X3796Y27293D01*
X3760Y27379D01*
X3703Y27453D01*
X3629Y27510D01*
X3543Y27546D01*
X3450Y27558D01*
X3357Y27546D01*
X3300Y27523D01*
X3121Y27702D01*
X3082Y27728D01*
X3035Y27738D01*
X2105D01*
X2058Y27728D01*
X2018Y27702D01*
X1333Y27017D01*
X1307Y26977D01*
X1298Y26930D01*
Y20810D01*
X1307Y20763D01*
X1333Y20723D01*
X2743Y19313D01*
X2783Y19287D01*
X2830Y19278D01*
X8579D01*
X10096Y17761D01*
X10136Y17734D01*
X10183Y17725D01*
X11016D01*
Y17477D01*
X11456D01*
Y17947D01*
X11183D01*
X11163Y17960D01*
X11116Y17969D01*
X10234D01*
X8717Y19487D01*
X8677Y19513D01*
X8630Y19522D01*
X2881D01*
X1542Y20861D01*
Y26880D01*
X2049Y27386D01*
X2095Y27367D01*
Y26845D01*
X2632D01*
X3003Y26473D01*
X3373Y26103D01*
X3413Y26077D01*
X3460Y26068D01*
X5729D01*
X5988Y25809D01*
Y25604D01*
X5939Y25571D01*
X5892Y25502D01*
X5876Y25420D01*
X5892Y25338D01*
X5939Y25269D01*
X5968Y25249D01*
Y24710D01*
X5940D01*
Y23790D01*
X6320D01*
Y24710D01*
X6212D01*
Y25249D01*
X6241Y25269D01*
X6288Y25338D01*
X6304Y25420D01*
X6288Y25502D01*
X6241Y25571D01*
X6232Y25577D01*
Y25860D01*
X6223Y25907D01*
X6197Y25947D01*
X5867Y26277D01*
X5827Y26303D01*
X5780Y26312D01*
X3511D01*
X3432Y26391D01*
X3451Y26438D01*
X5560D01*
X5607Y26447D01*
X5647Y26473D01*
X6027Y26853D01*
X6053Y26893D01*
X6062Y26940D01*
Y27077D01*
X6112Y27087D01*
X6140Y27021D01*
X6197Y26947D01*
X6271Y26890D01*
X6357Y26854D01*
X6450Y26842D01*
X6543Y26854D01*
X6600Y26877D01*
X7363Y26113D01*
X7403Y26087D01*
X7450Y26078D01*
X13040D01*
X14688Y24430D01*
Y4291D01*
X13821Y3424D01*
X13466D01*
X13442Y3481D01*
X13386Y3556D01*
X13311Y3612D01*
X13225Y3648D01*
X13132Y3660D01*
X13039Y3648D01*
X12953Y3612D01*
X12879Y3556D01*
X12822Y3481D01*
X12786Y3395D01*
X12774Y3302D01*
X12786Y3209D01*
X12822Y3123D01*
X12879Y3049D01*
X12953Y2992D01*
X13039Y2956D01*
X13132Y2944D01*
X13225Y2956D01*
X13311Y2992D01*
X13386Y3049D01*
X13442Y3123D01*
X13466Y3180D01*
X13872D01*
X13878Y3181D01*
X13902Y3135D01*
X13640Y2872D01*
X9001D01*
X7832Y4041D01*
Y13120D01*
X7823Y13167D01*
X7797Y13207D01*
X842Y20161D01*
Y27443D01*
X892Y27458D01*
X919Y27419D01*
X948Y27399D01*
Y20473D01*
X957Y20426D01*
X983Y20386D01*
X4614Y16756D01*
X4653Y16729D01*
X4700Y16720D01*
X8721D01*
X8745Y16663D01*
X8802Y16589D01*
X8876Y16532D01*
X8962Y16496D01*
X9055Y16484D01*
X9148Y16496D01*
X9234Y16532D01*
X9309Y16589D01*
X9365Y16663D01*
X9401Y16750D01*
X9413Y16843D01*
X9401Y16935D01*
X9365Y17022D01*
X9309Y17096D01*
X9234Y17153D01*
X9148Y17189D01*
X9055Y17201D01*
X8962Y17189D01*
X8876Y17153D01*
X8802Y17096D01*
X8745Y17022D01*
X8721Y16965D01*
X4751D01*
X1192Y20523D01*
Y27399D01*
X1221Y27419D01*
X1268Y27488D01*
X1284Y27570D01*
X1268Y27652D01*
X1221Y27721D01*
X1152Y27768D01*
X1070Y27784D01*
X988Y27768D01*
X919Y27721D01*
X892Y27682D01*
X842Y27697D01*
Y27859D01*
X1691Y28708D01*
X3079D01*
X3238Y28549D01*
X3234Y28482D01*
X3197Y28453D01*
X3140Y28379D01*
X3104Y28293D01*
X3092Y28200D01*
X3104Y28107D01*
X3140Y28021D01*
X3197Y27947D01*
X3271Y27890D01*
X3357Y27854D01*
X3450Y27842D01*
X3543Y27854D01*
X3629Y27890D01*
X3703Y27947D01*
X3760Y28021D01*
X3796Y28107D01*
X3808Y28200D01*
X3796Y28293D01*
X3760Y28379D01*
X3703Y28453D01*
X3629Y28510D01*
X3567Y28536D01*
X3563Y28557D01*
X3537Y28597D01*
X3292Y28841D01*
X3311Y28888D01*
X4177D01*
X4461Y28603D01*
D02*
G37*
G36*
X18850Y153D02*
X153D01*
Y29147D01*
X1049D01*
X1064Y29097D01*
X1063Y29097D01*
X273Y28307D01*
X247Y28267D01*
X238Y28220D01*
Y19810D01*
X247Y19763D01*
X273Y19723D01*
X7138Y12859D01*
Y3700D01*
X7147Y3653D01*
X7173Y3613D01*
X8573Y2213D01*
X8613Y2187D01*
X8660Y2178D01*
X11136D01*
X11146Y2180D01*
X12798D01*
X12822Y2123D01*
X12879Y2049D01*
X12953Y1992D01*
X13039Y1956D01*
X13132Y1944D01*
X13225Y1956D01*
X13311Y1992D01*
X13386Y2049D01*
X13442Y2123D01*
X13478Y2209D01*
X13490Y2302D01*
X13478Y2395D01*
X13442Y2481D01*
X13386Y2556D01*
X13357Y2578D01*
X13374Y2628D01*
X13691D01*
X13737Y2637D01*
X13777Y2663D01*
X15627Y4513D01*
X15653Y4553D01*
X15662Y4599D01*
Y8659D01*
X15983Y8980D01*
X16039Y8956D01*
X16132Y8944D01*
X16225Y8956D01*
X16311Y8992D01*
X16386Y9049D01*
X16442Y9123D01*
X16478Y9209D01*
X16490Y9302D01*
X16478Y9395D01*
X16442Y9481D01*
X16386Y9556D01*
X16311Y9612D01*
X16225Y9648D01*
X16132Y9660D01*
X16039Y9648D01*
X15953Y9612D01*
X15879Y9556D01*
X15822Y9481D01*
X15786Y9395D01*
X15774Y9302D01*
X15786Y9209D01*
X15810Y9153D01*
X15453Y8797D01*
X15427Y8757D01*
X15418Y8710D01*
Y4650D01*
X14977Y4210D01*
X14931Y4234D01*
X14932Y4240D01*
Y24375D01*
X14979Y24394D01*
X16940Y22433D01*
Y9445D01*
X16682D01*
Y9075D01*
X16682D01*
Y9045D01*
X16682D01*
Y8900D01*
X16842D01*
Y8860D01*
X16882D01*
Y8675D01*
X16940D01*
Y4283D01*
X16282Y3625D01*
X16225Y3648D01*
X16132Y3660D01*
X16039Y3648D01*
X15953Y3612D01*
X15879Y3556D01*
X15822Y3481D01*
X15786Y3395D01*
X15774Y3302D01*
X15786Y3209D01*
X15822Y3123D01*
X15879Y3049D01*
X15953Y2992D01*
X16039Y2956D01*
X16132Y2944D01*
X16225Y2956D01*
X16311Y2992D01*
X16386Y3049D01*
X16442Y3123D01*
X16478Y3209D01*
X16490Y3302D01*
X16478Y3395D01*
X16455Y3452D01*
X17074Y4071D01*
X17120Y4051D01*
Y3463D01*
X16282Y2625D01*
X16225Y2648D01*
X16132Y2660D01*
X16039Y2648D01*
X15953Y2612D01*
X15879Y2556D01*
X15822Y2481D01*
X15786Y2395D01*
X15774Y2302D01*
X15786Y2209D01*
X15822Y2123D01*
X15879Y2049D01*
X15953Y1992D01*
X16039Y1956D01*
X16132Y1944D01*
X16225Y1956D01*
X16311Y1992D01*
X16386Y2049D01*
X16442Y2123D01*
X16478Y2209D01*
X16490Y2302D01*
X16478Y2395D01*
X16455Y2452D01*
X17329Y3326D01*
X17355Y3365D01*
X17364Y3412D01*
Y22558D01*
X17355Y22605D01*
X17329Y22644D01*
X13217Y26757D01*
X13177Y26783D01*
X13130Y26792D01*
X11459D01*
X11455Y26842D01*
X11543Y26854D01*
X11629Y26890D01*
X11703Y26947D01*
X11760Y27021D01*
X11796Y27107D01*
X11803Y27160D01*
X11097D01*
X11104Y27107D01*
X11140Y27021D01*
X11197Y26947D01*
X11271Y26890D01*
X11357Y26854D01*
X11445Y26842D01*
X11441Y26792D01*
X10459D01*
X10455Y26842D01*
X10543Y26854D01*
X10629Y26890D01*
X10703Y26947D01*
X10760Y27021D01*
X10796Y27107D01*
X10803Y27160D01*
X10097D01*
X10104Y27107D01*
X10140Y27021D01*
X10197Y26947D01*
X10271Y26890D01*
X10357Y26854D01*
X10445Y26842D01*
X10441Y26792D01*
X9459D01*
X9455Y26842D01*
X9543Y26854D01*
X9629Y26890D01*
X9703Y26947D01*
X9760Y27021D01*
X9796Y27107D01*
X9803Y27160D01*
X9097D01*
X9104Y27107D01*
X9140Y27021D01*
X9197Y26947D01*
X9271Y26890D01*
X9357Y26854D01*
X9445Y26842D01*
X9441Y26792D01*
X8641D01*
X8607Y26826D01*
X8619Y26885D01*
X8629Y26890D01*
X8703Y26947D01*
X8760Y27021D01*
X8796Y27107D01*
X8808Y27200D01*
X8796Y27293D01*
X8760Y27379D01*
X8703Y27453D01*
X8629Y27510D01*
X8543Y27546D01*
X8450Y27558D01*
X8357Y27546D01*
X8271Y27510D01*
X8197Y27453D01*
X8140Y27379D01*
X8104Y27293D01*
X8092Y27200D01*
X8104Y27107D01*
X8140Y27021D01*
X8197Y26947D01*
X8271Y26890D01*
X8328Y26866D01*
Y26810D01*
X8337Y26763D01*
X8363Y26723D01*
X8503Y26583D01*
X8543Y26557D01*
X8566Y26552D01*
X8561Y26502D01*
X8216D01*
X7733Y26985D01*
X7760Y27021D01*
X7796Y27107D01*
X7808Y27200D01*
X7796Y27293D01*
X7760Y27379D01*
X7703Y27453D01*
X7629Y27510D01*
X7543Y27546D01*
X7450Y27558D01*
X7357Y27546D01*
X7271Y27510D01*
X7197Y27453D01*
X7140Y27379D01*
X7104Y27293D01*
X7092Y27200D01*
X7104Y27107D01*
X7140Y27021D01*
X7197Y26947D01*
X7271Y26890D01*
X7357Y26854D01*
X7450Y26842D01*
X7522Y26851D01*
X8004Y26369D01*
X7985Y26322D01*
X7501D01*
X6773Y27050D01*
X6796Y27107D01*
X6808Y27200D01*
X6796Y27293D01*
X6760Y27379D01*
X6703Y27453D01*
X6629Y27510D01*
X6543Y27546D01*
X6450Y27558D01*
X6357Y27546D01*
X6271Y27510D01*
X6197Y27453D01*
X6140Y27379D01*
X6112Y27313D01*
X6062Y27323D01*
Y28077D01*
X6112Y28087D01*
X6140Y28021D01*
X6197Y27947D01*
X6271Y27890D01*
X6357Y27854D01*
X6450Y27842D01*
X6543Y27854D01*
X6629Y27890D01*
X6703Y27947D01*
X6760Y28021D01*
X6796Y28107D01*
X6808Y28200D01*
X6796Y28293D01*
X6760Y28379D01*
X6703Y28453D01*
X6629Y28510D01*
X6543Y28546D01*
X6450Y28558D01*
X6357Y28546D01*
X6271Y28510D01*
X6197Y28453D01*
X6140Y28379D01*
X6112Y28313D01*
X6062Y28323D01*
Y28429D01*
X6581Y28948D01*
X11439D01*
X12599Y27788D01*
X12579Y27738D01*
X11278D01*
X11231Y27728D01*
X11230Y27728D01*
X11095D01*
X10773Y28050D01*
X10796Y28107D01*
X10808Y28200D01*
X10796Y28293D01*
X10760Y28379D01*
X10703Y28453D01*
X10629Y28510D01*
X10543Y28546D01*
X10450Y28558D01*
X10357Y28546D01*
X10271Y28510D01*
X10197Y28453D01*
X10140Y28379D01*
X10104Y28293D01*
X10092Y28200D01*
X10104Y28107D01*
X10140Y28021D01*
X10197Y27947D01*
X10271Y27890D01*
X10357Y27854D01*
X10450Y27842D01*
X10543Y27854D01*
X10600Y27877D01*
X10958Y27519D01*
X10998Y27492D01*
X11045Y27483D01*
X11156D01*
X11181Y27433D01*
X11140Y27379D01*
X11104Y27293D01*
X11097Y27240D01*
X11803D01*
X11796Y27293D01*
X11760Y27379D01*
X11711Y27443D01*
X11727Y27493D01*
X12594D01*
X17431Y22656D01*
X17471Y22630D01*
X17517Y22620D01*
X17580D01*
X17625Y22611D01*
X18275D01*
X18325Y22621D01*
X18368Y22650D01*
X18396Y22692D01*
X18406Y22743D01*
X18396Y22793D01*
X18368Y22836D01*
X18325Y22864D01*
X18275Y22874D01*
X17625D01*
X17580Y22865D01*
X17568D01*
X17469Y22964D01*
X17490Y23014D01*
X17580D01*
X17625Y23005D01*
X18275D01*
X18325Y23015D01*
X18368Y23043D01*
X18396Y23086D01*
X18406Y23136D01*
X18396Y23187D01*
X18368Y23229D01*
X18325Y23258D01*
X18275Y23268D01*
X17625D01*
X17580Y23259D01*
X17474D01*
X11632Y29101D01*
X11651Y29147D01*
X18850D01*
Y153D01*
D02*
G37*
G36*
X5140Y28021D02*
X5197Y27947D01*
X5271Y27890D01*
X5357Y27854D01*
X5450Y27842D01*
X5543Y27854D01*
X5629Y27890D01*
X5703Y27947D01*
X5760Y28021D01*
X5768Y28038D01*
X5818Y28029D01*
Y27371D01*
X5768Y27362D01*
X5760Y27379D01*
X5703Y27453D01*
X5629Y27510D01*
X5543Y27546D01*
X5450Y27558D01*
X5357Y27546D01*
X5300Y27523D01*
X5082Y27741D01*
Y28029D01*
X5132Y28038D01*
X5140Y28021D01*
D02*
G37*
G36*
X1478Y28841D02*
X633Y27997D01*
X607Y27957D01*
X598Y27910D01*
Y20110D01*
X607Y20063D01*
X633Y20023D01*
X7588Y13069D01*
Y3990D01*
X7597Y3943D01*
X7623Y3903D01*
X8863Y2663D01*
X8903Y2637D01*
X8950Y2628D01*
X12891D01*
X12908Y2578D01*
X12879Y2556D01*
X12822Y2481D01*
X12798Y2424D01*
X11138D01*
X11127Y2422D01*
X8711D01*
X7382Y3751D01*
Y12910D01*
X7373Y12957D01*
X7347Y12997D01*
X482Y19861D01*
Y28169D01*
X1201Y28888D01*
X1459D01*
X1478Y28841D01*
D02*
G37*
%LPC*%
G36*
X2450Y28558D02*
X2357Y28546D01*
X2271Y28510D01*
X2197Y28453D01*
X2140Y28379D01*
X2104Y28293D01*
X2092Y28200D01*
X2104Y28107D01*
X2140Y28021D01*
X2197Y27947D01*
X2271Y27890D01*
X2357Y27854D01*
X2450Y27842D01*
X2543Y27854D01*
X2629Y27890D01*
X2703Y27947D01*
X2760Y28021D01*
X2796Y28107D01*
X2808Y28200D01*
X2796Y28293D01*
X2760Y28379D01*
X2703Y28453D01*
X2629Y28510D01*
X2543Y28546D01*
X2450Y28558D01*
D02*
G37*
G36*
X4450Y27558D02*
X4357Y27546D01*
X4271Y27510D01*
X4197Y27453D01*
X4140Y27379D01*
X4104Y27293D01*
X4092Y27200D01*
X4104Y27107D01*
X4140Y27021D01*
X4197Y26947D01*
X4271Y26890D01*
X4357Y26854D01*
X4450Y26842D01*
X4543Y26854D01*
X4629Y26890D01*
X4703Y26947D01*
X4760Y27021D01*
X4796Y27107D01*
X4808Y27200D01*
X4796Y27293D01*
X4760Y27379D01*
X4703Y27453D01*
X4629Y27510D01*
X4543Y27546D01*
X4450Y27558D01*
D02*
G37*
G36*
X8673Y26004D02*
X8478D01*
Y25824D01*
X8673D01*
Y26004D01*
D02*
G37*
G36*
X8398D02*
X8203D01*
Y25824D01*
X8398D01*
Y26004D01*
D02*
G37*
G36*
X8673Y25744D02*
X8478D01*
Y25564D01*
X8673D01*
Y25744D01*
D02*
G37*
G36*
X8398D02*
X8203D01*
Y25564D01*
X8398D01*
Y25744D01*
D02*
G37*
G36*
X9417Y25600D02*
X8947D01*
Y25160D01*
X9417D01*
Y25600D01*
D02*
G37*
G36*
X4297Y25132D02*
X3783D01*
Y25017D01*
X3637D01*
Y25122D01*
X3123D01*
Y24648D01*
X3637D01*
Y24773D01*
X3783D01*
Y24658D01*
X4297D01*
Y25132D01*
D02*
G37*
G36*
X5820Y24710D02*
X5440D01*
Y24387D01*
X4297D01*
Y24502D01*
X3783D01*
Y24028D01*
X3888D01*
Y23895D01*
X3852Y23860D01*
X3735Y23860D01*
X3715Y23860D01*
X3640D01*
Y24118D01*
X3637Y24131D01*
Y24492D01*
X3123D01*
Y24018D01*
X3395D01*
Y23860D01*
X3365D01*
Y23540D01*
X3428D01*
Y23375D01*
X3392Y23340D01*
X3285Y23340D01*
X3265Y23340D01*
X2915D01*
Y23302D01*
X2810D01*
X2763Y23293D01*
X2723Y23267D01*
X2639Y23182D01*
X2612Y23142D01*
X2603Y23095D01*
Y22817D01*
X2488D01*
Y22303D01*
X2603D01*
Y20565D01*
X2612Y20518D01*
X2639Y20478D01*
X3503Y19613D01*
X3543Y19587D01*
X3590Y19578D01*
X10260D01*
Y19060D01*
X11899D01*
Y18925D01*
X11745D01*
Y18135D01*
X11921D01*
Y17947D01*
X11824D01*
Y17477D01*
X12264D01*
Y17947D01*
X12166D01*
Y18135D01*
X12298D01*
Y18925D01*
X12144D01*
Y19060D01*
X13140D01*
Y20750D01*
X10260D01*
Y19822D01*
X7282D01*
X7267Y19872D01*
X7291Y19889D01*
X7338Y19958D01*
X7354Y20040D01*
X7338Y20122D01*
X7291Y20191D01*
X7262Y20211D01*
Y20420D01*
X7325D01*
Y20740D01*
X7262D01*
Y20920D01*
X7325D01*
Y21240D01*
X7262D01*
Y21540D01*
X7320D01*
Y22460D01*
X6940D01*
Y21906D01*
X6927Y21887D01*
X6918Y21840D01*
X6927Y21793D01*
X6940Y21774D01*
Y21540D01*
X7018D01*
Y21275D01*
X6982Y21240D01*
X6925Y21240D01*
X6905Y21240D01*
X6780D01*
Y21080D01*
Y20920D01*
X6905D01*
X6955Y20920D01*
X6968Y20920D01*
X7018Y20902D01*
Y20775D01*
X6982Y20740D01*
X6925Y20740D01*
X6905Y20740D01*
X6780D01*
Y20580D01*
Y20420D01*
X6905D01*
X6955Y20420D01*
X6968Y20420D01*
X7018Y20402D01*
Y20211D01*
X6989Y20191D01*
X6942Y20122D01*
X6926Y20040D01*
X6942Y19958D01*
X6989Y19889D01*
X7013Y19872D01*
X6998Y19822D01*
X3641D01*
X2847Y20616D01*
Y22303D01*
X2962D01*
Y22817D01*
X2847D01*
Y23044D01*
X2861Y23058D01*
X2915D01*
Y23020D01*
X3265D01*
X3315Y23020D01*
X3335Y23020D01*
X3512D01*
X3598Y22934D01*
Y22865D01*
X3592Y22817D01*
X3548Y22817D01*
X3118D01*
Y22303D01*
X3213D01*
Y22187D01*
X3098D01*
Y21673D01*
X3572D01*
Y22187D01*
X3457D01*
Y22303D01*
X3592D01*
Y22326D01*
X3609Y22337D01*
X3642Y22345D01*
X3754Y22233D01*
X3735Y22187D01*
X3728D01*
Y21673D01*
X4202D01*
Y21808D01*
X5440D01*
Y21540D01*
X5820D01*
Y22460D01*
X5440D01*
Y22052D01*
X4202D01*
Y22187D01*
X4082D01*
Y22200D01*
X4073Y22247D01*
X4047Y22287D01*
X3842Y22491D01*
Y22595D01*
X3940D01*
Y22780D01*
X3980D01*
Y22820D01*
X4140D01*
Y22945D01*
X4140Y22965D01*
X4140D01*
Y22995D01*
X4140D01*
Y23365D01*
X3820D01*
Y23302D01*
X3685D01*
Y23340D01*
X3672D01*
Y23505D01*
X3708Y23540D01*
X3765Y23540D01*
X3785Y23540D01*
X4135D01*
Y23860D01*
X4132D01*
Y24028D01*
X4297D01*
Y24143D01*
X5440D01*
Y23790D01*
X5820D01*
Y24710D01*
D02*
G37*
G36*
X6820D02*
X6440D01*
Y23790D01*
X6820D01*
Y24710D01*
D02*
G37*
G36*
X7070Y23685D02*
X6420D01*
Y23165D01*
X7070D01*
Y23685D01*
D02*
G37*
G36*
X6340D02*
X5690D01*
Y23165D01*
X6340D01*
Y23685D01*
D02*
G37*
G36*
X8673Y25196D02*
X8203D01*
Y25099D01*
X8143D01*
X8096Y25089D01*
X8056Y25063D01*
X7725Y24732D01*
X7220D01*
X7173Y24723D01*
X7153Y24710D01*
X6940D01*
Y23790D01*
X7320D01*
Y24487D01*
X7776D01*
X7823Y24497D01*
X7863Y24523D01*
X8153Y24813D01*
X8203Y24793D01*
Y24756D01*
X8673D01*
Y24854D01*
X9913D01*
X10260Y24507D01*
Y22990D01*
X13140D01*
Y24680D01*
X10433D01*
X10050Y25063D01*
X10010Y25089D01*
X9964Y25099D01*
X8673D01*
Y25196D01*
D02*
G37*
G36*
X4140Y22740D02*
X4020D01*
Y22595D01*
X4140D01*
Y22740D01*
D02*
G37*
G36*
X7070Y23085D02*
X6420D01*
Y22565D01*
X7070D01*
Y23085D01*
D02*
G37*
G36*
X6340D02*
X5690D01*
Y22565D01*
X6340D01*
Y23085D01*
D02*
G37*
G36*
X6820Y22460D02*
X6670D01*
Y22040D01*
X6820D01*
Y22460D01*
D02*
G37*
G36*
X6320D02*
X6170D01*
Y22040D01*
X6320D01*
Y22460D01*
D02*
G37*
G36*
X6590D02*
X6440D01*
Y22040D01*
X6590D01*
Y22460D01*
D02*
G37*
G36*
X6090D02*
X5940D01*
Y22040D01*
X6090D01*
Y22460D01*
D02*
G37*
G36*
X6820Y21960D02*
X6670D01*
Y21540D01*
X6820D01*
Y21960D01*
D02*
G37*
G36*
X6590D02*
X6440D01*
Y21540D01*
X6590D01*
Y21960D01*
D02*
G37*
G36*
X6320D02*
X6170D01*
Y21540D01*
X6320D01*
Y21960D01*
D02*
G37*
G36*
X6090D02*
X5940D01*
Y21540D01*
X6090D01*
Y21960D01*
D02*
G37*
G36*
X6700Y21240D02*
X6555D01*
Y21120D01*
X6700D01*
Y21240D01*
D02*
G37*
G36*
Y21040D02*
X6555D01*
Y20920D01*
X6700D01*
Y21040D01*
D02*
G37*
G36*
Y20740D02*
X6555D01*
Y20620D01*
X6700D01*
Y20740D01*
D02*
G37*
G36*
Y20540D02*
X6555D01*
Y20420D01*
X6700D01*
Y20540D01*
D02*
G37*
G36*
X11235Y18925D02*
X10999D01*
Y18570D01*
X11235D01*
Y18925D01*
D02*
G37*
G36*
X10919D02*
X10682D01*
Y18570D01*
X10919D01*
Y18925D01*
D02*
G37*
G36*
X11235Y18490D02*
X10999D01*
Y18135D01*
X11235D01*
Y18490D01*
D02*
G37*
G36*
X10919D02*
X10682D01*
Y18135D01*
X10919D01*
Y18490D01*
D02*
G37*
G36*
X9055Y18201D02*
X8962Y18189D01*
X8876Y18153D01*
X8802Y18096D01*
X8745Y18022D01*
X8709Y17935D01*
X8697Y17843D01*
X8709Y17750D01*
X8745Y17663D01*
X8802Y17589D01*
X8876Y17532D01*
X8962Y17496D01*
X9055Y17484D01*
X9148Y17496D01*
X9234Y17532D01*
X9309Y17589D01*
X9365Y17663D01*
X9401Y17750D01*
X9413Y17843D01*
X9401Y17935D01*
X9365Y18022D01*
X9309Y18096D01*
X9234Y18153D01*
X9148Y18189D01*
X9055Y18201D01*
D02*
G37*
G36*
X11860Y17203D02*
X11420D01*
Y16733D01*
X11860D01*
Y17203D01*
D02*
G37*
G36*
X9055Y16201D02*
X8962Y16189D01*
X8876Y16153D01*
X8802Y16096D01*
X8745Y16022D01*
X8709Y15935D01*
X8697Y15843D01*
X8709Y15750D01*
X8745Y15663D01*
X8802Y15589D01*
X8876Y15532D01*
X8962Y15496D01*
X9055Y15484D01*
X9148Y15496D01*
X9234Y15532D01*
X9309Y15589D01*
X9365Y15663D01*
X9401Y15750D01*
X9413Y15843D01*
X9401Y15935D01*
X9365Y16022D01*
X9309Y16096D01*
X9234Y16153D01*
X9148Y16189D01*
X9055Y16201D01*
D02*
G37*
G36*
X9095Y15196D02*
Y14883D01*
X9408D01*
X9401Y14935D01*
X9365Y15022D01*
X9309Y15096D01*
X9234Y15153D01*
X9148Y15189D01*
X9095Y15196D01*
D02*
G37*
G36*
X9015D02*
X8962Y15189D01*
X8876Y15153D01*
X8802Y15096D01*
X8745Y15022D01*
X8709Y14935D01*
X8702Y14883D01*
X9015D01*
Y15196D01*
D02*
G37*
G36*
X9408Y14803D02*
X9095D01*
Y14489D01*
X9148Y14496D01*
X9234Y14532D01*
X9309Y14589D01*
X9365Y14663D01*
X9401Y14750D01*
X9408Y14803D01*
D02*
G37*
G36*
X9015D02*
X8702D01*
X8709Y14750D01*
X8745Y14663D01*
X8802Y14589D01*
X8876Y14532D01*
X8962Y14496D01*
X9015Y14489D01*
Y14803D01*
D02*
G37*
G36*
X9055Y14201D02*
X8962Y14189D01*
X8876Y14153D01*
X8802Y14096D01*
X8745Y14022D01*
X8709Y13935D01*
X8697Y13843D01*
X8709Y13750D01*
X8745Y13663D01*
X8802Y13589D01*
X8876Y13532D01*
X8962Y13496D01*
X9055Y13484D01*
X9148Y13496D01*
X9234Y13532D01*
X9309Y13589D01*
X9365Y13663D01*
X9401Y13750D01*
X9413Y13843D01*
X9401Y13935D01*
X9365Y14022D01*
X9309Y14096D01*
X9234Y14153D01*
X9148Y14189D01*
X9055Y14201D01*
D02*
G37*
G36*
Y13201D02*
X8962Y13189D01*
X8876Y13153D01*
X8802Y13096D01*
X8745Y13022D01*
X8709Y12935D01*
X8697Y12843D01*
X8709Y12750D01*
X8745Y12663D01*
X8802Y12589D01*
X8876Y12532D01*
X8962Y12496D01*
X9055Y12484D01*
X9148Y12496D01*
X9234Y12532D01*
X9309Y12589D01*
X9365Y12663D01*
X9401Y12750D01*
X9413Y12843D01*
X9401Y12935D01*
X9365Y13022D01*
X9309Y13096D01*
X9234Y13153D01*
X9148Y13189D01*
X9055Y13201D01*
D02*
G37*
G36*
Y12201D02*
X8962Y12189D01*
X8876Y12153D01*
X8802Y12096D01*
X8745Y12022D01*
X8709Y11935D01*
X8697Y11843D01*
X8709Y11750D01*
X8745Y11663D01*
X8802Y11589D01*
X8876Y11532D01*
X8962Y11496D01*
X9055Y11484D01*
X9148Y11496D01*
X9234Y11532D01*
X9309Y11589D01*
X9365Y11663D01*
X9401Y11750D01*
X9413Y11843D01*
X9401Y11935D01*
X9365Y12022D01*
X9309Y12096D01*
X9234Y12153D01*
X9148Y12189D01*
X9055Y12201D01*
D02*
G37*
G36*
Y11201D02*
X8962Y11189D01*
X8876Y11153D01*
X8802Y11096D01*
X8745Y11022D01*
X8709Y10935D01*
X8697Y10843D01*
X8709Y10750D01*
X8745Y10663D01*
X8802Y10589D01*
X8876Y10532D01*
X8962Y10496D01*
X9055Y10484D01*
X9148Y10496D01*
X9234Y10532D01*
X9309Y10589D01*
X9365Y10663D01*
X9401Y10750D01*
X9413Y10843D01*
X9401Y10935D01*
X9365Y11022D01*
X9309Y11096D01*
X9234Y11153D01*
X9148Y11189D01*
X9055Y11201D01*
D02*
G37*
G36*
Y10201D02*
X8962Y10189D01*
X8876Y10153D01*
X8802Y10096D01*
X8745Y10022D01*
X8709Y9935D01*
X8697Y9843D01*
X8709Y9750D01*
X8745Y9663D01*
X8802Y9589D01*
X8876Y9532D01*
X8962Y9496D01*
X9055Y9484D01*
X9148Y9496D01*
X9234Y9532D01*
X9309Y9589D01*
X9365Y9663D01*
X9401Y9750D01*
X9413Y9843D01*
X9401Y9935D01*
X9365Y10022D01*
X9309Y10096D01*
X9234Y10153D01*
X9148Y10189D01*
X9055Y10201D01*
D02*
G37*
G36*
X13487Y9657D02*
X12777D01*
Y9393D01*
X12111D01*
Y9456D01*
X11791D01*
Y9393D01*
X11557D01*
X11510Y9384D01*
X11471Y9357D01*
X11077Y8963D01*
X11051Y8924D01*
X11041Y8877D01*
Y7696D01*
X11051Y7649D01*
X11077Y7609D01*
X11452Y7235D01*
X11465Y7216D01*
X11504Y7189D01*
X11551Y7180D01*
X11760D01*
Y7142D01*
X12110D01*
X12160Y7142D01*
X12180Y7142D01*
X12530D01*
Y7180D01*
X12798D01*
X12822Y7123D01*
X12879Y7049D01*
X12953Y6992D01*
X13039Y6956D01*
X13132Y6944D01*
X13225Y6956D01*
X13311Y6992D01*
X13386Y7049D01*
X13442Y7123D01*
X13478Y7209D01*
X13490Y7302D01*
X13478Y7395D01*
X13442Y7481D01*
X13386Y7556D01*
X13311Y7612D01*
X13225Y7648D01*
X13132Y7660D01*
X13039Y7648D01*
X12953Y7612D01*
X12879Y7556D01*
X12822Y7481D01*
X12798Y7424D01*
X12530D01*
Y7462D01*
X12180D01*
X12130Y7462D01*
X12110Y7462D01*
X11760D01*
Y7424D01*
X11608D01*
X11286Y7746D01*
Y8826D01*
X11608Y9148D01*
X11756D01*
X11791Y9113D01*
X11791Y9056D01*
X11791Y9036D01*
Y8686D01*
X11963D01*
X12433Y8216D01*
X12473Y8189D01*
X12520Y8180D01*
X12798D01*
X12822Y8123D01*
X12879Y8049D01*
X12953Y7992D01*
X13039Y7956D01*
X13132Y7944D01*
X13225Y7956D01*
X13311Y7992D01*
X13386Y8049D01*
X13442Y8123D01*
X13478Y8209D01*
X13490Y8302D01*
X13478Y8395D01*
X13442Y8481D01*
X13386Y8556D01*
X13311Y8612D01*
X13225Y8648D01*
X13132Y8660D01*
X13039Y8648D01*
X12953Y8612D01*
X12879Y8556D01*
X12822Y8481D01*
X12798Y8424D01*
X12570D01*
X12111Y8884D01*
X12111Y9086D01*
X12111Y9098D01*
X12129Y9148D01*
X12777D01*
Y8947D01*
X13487D01*
Y9657D01*
D02*
G37*
G36*
X9055Y9201D02*
X8962Y9189D01*
X8876Y9153D01*
X8802Y9096D01*
X8745Y9022D01*
X8709Y8935D01*
X8697Y8843D01*
X8709Y8750D01*
X8745Y8663D01*
X8802Y8589D01*
X8876Y8532D01*
X8962Y8496D01*
X9055Y8484D01*
X9148Y8496D01*
X9234Y8532D01*
X9309Y8589D01*
X9365Y8663D01*
X9401Y8750D01*
X9413Y8843D01*
X9401Y8935D01*
X9365Y9022D01*
X9309Y9096D01*
X9234Y9153D01*
X9148Y9189D01*
X9055Y9201D01*
D02*
G37*
G36*
Y8201D02*
X8962Y8189D01*
X8876Y8153D01*
X8802Y8096D01*
X8745Y8022D01*
X8709Y7935D01*
X8697Y7843D01*
X8709Y7750D01*
X8745Y7663D01*
X8802Y7589D01*
X8876Y7532D01*
X8962Y7496D01*
X9055Y7484D01*
X9148Y7496D01*
X9234Y7532D01*
X9309Y7589D01*
X9365Y7663D01*
X9401Y7750D01*
X9413Y7843D01*
X9401Y7935D01*
X9365Y8022D01*
X9309Y8096D01*
X9234Y8153D01*
X9148Y8189D01*
X9055Y8201D01*
D02*
G37*
G36*
Y7201D02*
X8962Y7189D01*
X8876Y7153D01*
X8802Y7096D01*
X8745Y7022D01*
X8709Y6935D01*
X8697Y6843D01*
X8709Y6750D01*
X8745Y6663D01*
X8802Y6589D01*
X8876Y6532D01*
X8962Y6496D01*
X9055Y6484D01*
X9148Y6496D01*
X9234Y6532D01*
X9309Y6589D01*
X9365Y6663D01*
X9401Y6750D01*
X9413Y6843D01*
X9401Y6935D01*
X9365Y7022D01*
X9309Y7096D01*
X9234Y7153D01*
X9148Y7189D01*
X9055Y7201D01*
D02*
G37*
G36*
X13132Y6660D02*
X13039Y6648D01*
X12953Y6612D01*
X12879Y6556D01*
X12822Y6481D01*
X12798Y6424D01*
X12132D01*
X12085Y6415D01*
X12046Y6389D01*
X11471Y5814D01*
X11444Y5774D01*
X11435Y5727D01*
Y5494D01*
X11366D01*
Y5174D01*
X11716D01*
X11766Y5174D01*
X11786Y5174D01*
X12136D01*
Y5211D01*
X12786D01*
X12786Y5209D01*
X12822Y5123D01*
X12879Y5049D01*
X12953Y4992D01*
X13039Y4956D01*
X13132Y4944D01*
X13225Y4956D01*
X13311Y4992D01*
X13386Y5049D01*
X13442Y5123D01*
X13478Y5209D01*
X13490Y5302D01*
X13478Y5395D01*
X13442Y5481D01*
X13386Y5556D01*
X13311Y5612D01*
X13225Y5648D01*
X13132Y5660D01*
X13039Y5648D01*
X12953Y5612D01*
X12879Y5556D01*
X12822Y5481D01*
X12811Y5456D01*
X12136D01*
Y5494D01*
X11730Y5494D01*
X11680Y5527D01*
Y5677D01*
X12183Y6180D01*
X12798D01*
X12822Y6123D01*
X12879Y6049D01*
X12953Y5992D01*
X13039Y5956D01*
X13132Y5944D01*
X13225Y5956D01*
X13311Y5992D01*
X13386Y6049D01*
X13442Y6123D01*
X13478Y6209D01*
X13490Y6302D01*
X13478Y6395D01*
X13442Y6481D01*
X13386Y6556D01*
X13311Y6612D01*
X13225Y6648D01*
X13132Y6660D01*
D02*
G37*
G36*
X9055Y6201D02*
X8962Y6189D01*
X8876Y6153D01*
X8802Y6096D01*
X8745Y6022D01*
X8709Y5935D01*
X8697Y5843D01*
X8709Y5750D01*
X8745Y5663D01*
X8802Y5589D01*
X8876Y5532D01*
X8962Y5496D01*
X9055Y5484D01*
X9148Y5496D01*
X9234Y5532D01*
X9309Y5589D01*
X9365Y5663D01*
X9401Y5750D01*
X9413Y5843D01*
X9401Y5935D01*
X9365Y6022D01*
X9309Y6096D01*
X9234Y6153D01*
X9148Y6189D01*
X9055Y6201D01*
D02*
G37*
G36*
X9410Y5198D02*
X8700D01*
Y4487D01*
X9410D01*
Y5198D01*
D02*
G37*
G36*
X13132Y4660D02*
X13039Y4648D01*
X12953Y4612D01*
X12879Y4556D01*
X12822Y4481D01*
X12797Y4422D01*
X12365D01*
Y4460D01*
X12015D01*
X11965Y4460D01*
X11945Y4460D01*
X11820D01*
Y4300D01*
Y4140D01*
X11945D01*
X11995Y4140D01*
X12015Y4140D01*
X12365D01*
Y4178D01*
X12799D01*
X12822Y4123D01*
X12879Y4049D01*
X12953Y3992D01*
X13039Y3956D01*
X13132Y3944D01*
X13225Y3956D01*
X13311Y3992D01*
X13386Y4049D01*
X13442Y4123D01*
X13478Y4209D01*
X13490Y4302D01*
X13478Y4395D01*
X13442Y4481D01*
X13386Y4556D01*
X13311Y4612D01*
X13225Y4648D01*
X13132Y4660D01*
D02*
G37*
G36*
X11740Y4460D02*
X11595D01*
Y4340D01*
X11740D01*
Y4460D01*
D02*
G37*
G36*
Y4260D02*
X11595D01*
Y4140D01*
X11740D01*
Y4260D01*
D02*
G37*
G36*
X11490Y28553D02*
Y28240D01*
X11803D01*
X11796Y28293D01*
X11760Y28379D01*
X11703Y28453D01*
X11629Y28510D01*
X11543Y28546D01*
X11490Y28553D01*
D02*
G37*
G36*
X11410D02*
X11357Y28546D01*
X11271Y28510D01*
X11197Y28453D01*
X11140Y28379D01*
X11104Y28293D01*
X11097Y28240D01*
X11410D01*
Y28553D01*
D02*
G37*
G36*
X11803Y28160D02*
X11490D01*
Y27847D01*
X11543Y27854D01*
X11629Y27890D01*
X11703Y27947D01*
X11760Y28021D01*
X11796Y28107D01*
X11803Y28160D01*
D02*
G37*
G36*
X11410D02*
X11097D01*
X11104Y28107D01*
X11140Y28021D01*
X11197Y27947D01*
X11271Y27890D01*
X11357Y27854D01*
X11410Y27847D01*
Y28160D01*
D02*
G37*
G36*
X9450Y28558D02*
X9357Y28546D01*
X9271Y28510D01*
X9197Y28453D01*
X9140Y28379D01*
X9104Y28293D01*
X9092Y28200D01*
X9104Y28107D01*
X9140Y28021D01*
X9197Y27947D01*
X9271Y27890D01*
X9357Y27854D01*
X9450Y27842D01*
X9543Y27854D01*
X9629Y27890D01*
X9703Y27947D01*
X9760Y28021D01*
X9796Y28107D01*
X9808Y28200D01*
X9796Y28293D01*
X9760Y28379D01*
X9703Y28453D01*
X9629Y28510D01*
X9543Y28546D01*
X9450Y28558D01*
D02*
G37*
G36*
X8450D02*
X8357Y28546D01*
X8271Y28510D01*
X8197Y28453D01*
X8140Y28379D01*
X8104Y28293D01*
X8092Y28200D01*
X8104Y28107D01*
X8140Y28021D01*
X8197Y27947D01*
X8271Y27890D01*
X8357Y27854D01*
X8450Y27842D01*
X8543Y27854D01*
X8629Y27890D01*
X8703Y27947D01*
X8760Y28021D01*
X8796Y28107D01*
X8808Y28200D01*
X8796Y28293D01*
X8760Y28379D01*
X8703Y28453D01*
X8629Y28510D01*
X8543Y28546D01*
X8450Y28558D01*
D02*
G37*
G36*
X7450D02*
X7357Y28546D01*
X7271Y28510D01*
X7197Y28453D01*
X7140Y28379D01*
X7104Y28293D01*
X7092Y28200D01*
X7104Y28107D01*
X7140Y28021D01*
X7197Y27947D01*
X7271Y27890D01*
X7357Y27854D01*
X7450Y27842D01*
X7543Y27854D01*
X7629Y27890D01*
X7703Y27947D01*
X7760Y28021D01*
X7796Y28107D01*
X7808Y28200D01*
X7796Y28293D01*
X7760Y28379D01*
X7703Y28453D01*
X7629Y28510D01*
X7543Y28546D01*
X7450Y28558D01*
D02*
G37*
G36*
X10490Y27553D02*
Y27240D01*
X10803D01*
X10796Y27293D01*
X10760Y27379D01*
X10703Y27453D01*
X10629Y27510D01*
X10543Y27546D01*
X10490Y27553D01*
D02*
G37*
G36*
X10410D02*
X10357Y27546D01*
X10271Y27510D01*
X10197Y27453D01*
X10140Y27379D01*
X10104Y27293D01*
X10097Y27240D01*
X10410D01*
Y27553D01*
D02*
G37*
G36*
X9490D02*
Y27240D01*
X9803D01*
X9796Y27293D01*
X9760Y27379D01*
X9703Y27453D01*
X9629Y27510D01*
X9543Y27546D01*
X9490Y27553D01*
D02*
G37*
G36*
X9410D02*
X9357Y27546D01*
X9271Y27510D01*
X9197Y27453D01*
X9140Y27379D01*
X9104Y27293D01*
X9097Y27240D01*
X9410D01*
Y27553D01*
D02*
G37*
G36*
X18404Y23659D02*
X17990D01*
Y23570D01*
X18404D01*
Y23659D01*
D02*
G37*
G36*
X17910D02*
X17496D01*
Y23570D01*
X17910D01*
Y23659D01*
D02*
G37*
G36*
X18404Y23490D02*
X17990D01*
Y23401D01*
X18404D01*
Y23490D01*
D02*
G37*
G36*
X17910D02*
X17496D01*
Y23401D01*
X17910D01*
Y23490D01*
D02*
G37*
G36*
X18275Y22480D02*
X17625D01*
X17575Y22470D01*
X17532Y22442D01*
X17504Y22399D01*
X17494Y22349D01*
X17504Y22299D01*
X17532Y22256D01*
X17575Y22227D01*
X17625Y22217D01*
X18275D01*
X18325Y22227D01*
X18368Y22256D01*
X18396Y22299D01*
X18406Y22349D01*
X18396Y22399D01*
X18368Y22442D01*
X18325Y22470D01*
X18275Y22480D01*
D02*
G37*
G36*
Y22087D02*
X17625D01*
X17575Y22077D01*
X17532Y22048D01*
X17504Y22005D01*
X17494Y21955D01*
X17504Y21905D01*
X17532Y21862D01*
X17575Y21834D01*
X17625Y21824D01*
X18275D01*
X18325Y21834D01*
X18368Y21862D01*
X18396Y21905D01*
X18406Y21955D01*
X18396Y22005D01*
X18368Y22048D01*
X18325Y22077D01*
X18275Y22087D01*
D02*
G37*
G36*
Y21693D02*
X17625D01*
X17575Y21683D01*
X17532Y21654D01*
X17504Y21612D01*
X17494Y21561D01*
X17504Y21511D01*
X17532Y21469D01*
X17575Y21440D01*
X17625Y21430D01*
X18275D01*
X18325Y21440D01*
X18368Y21469D01*
X18396Y21511D01*
X18406Y21561D01*
X18396Y21612D01*
X18368Y21654D01*
X18325Y21683D01*
X18275Y21693D01*
D02*
G37*
G36*
Y21299D02*
X17625D01*
X17575Y21289D01*
X17532Y21261D01*
X17504Y21218D01*
X17494Y21168D01*
X17504Y21117D01*
X17532Y21075D01*
X17575Y21046D01*
X17625Y21036D01*
X18275D01*
X18325Y21046D01*
X18368Y21075D01*
X18396Y21117D01*
X18406Y21168D01*
X18396Y21218D01*
X18368Y21261D01*
X18325Y21289D01*
X18275Y21299D01*
D02*
G37*
G36*
Y20906D02*
X17625D01*
X17575Y20896D01*
X17532Y20867D01*
X17504Y20824D01*
X17494Y20774D01*
X17504Y20724D01*
X17532Y20681D01*
X17575Y20653D01*
X17625Y20643D01*
X18275D01*
X18325Y20653D01*
X18368Y20681D01*
X18396Y20724D01*
X18406Y20774D01*
X18396Y20824D01*
X18368Y20867D01*
X18325Y20896D01*
X18275Y20906D01*
D02*
G37*
G36*
Y20512D02*
X17625D01*
X17575Y20502D01*
X17532Y20473D01*
X17504Y20431D01*
X17494Y20380D01*
X17504Y20330D01*
X17532Y20287D01*
X17575Y20259D01*
X17625Y20249D01*
X18275D01*
X18325Y20259D01*
X18368Y20287D01*
X18396Y20330D01*
X18406Y20380D01*
X18396Y20431D01*
X18368Y20473D01*
X18325Y20502D01*
X18275Y20512D01*
D02*
G37*
G36*
X18404Y20116D02*
X17496D01*
Y19858D01*
X18404D01*
Y20116D01*
D02*
G37*
G36*
X18275Y19724D02*
X17625D01*
X17575Y19714D01*
X17532Y19686D01*
X17504Y19643D01*
X17494Y19593D01*
X17504Y19543D01*
X17532Y19500D01*
X17575Y19472D01*
X17625Y19462D01*
X18275D01*
X18325Y19472D01*
X18368Y19500D01*
X18396Y19543D01*
X18406Y19593D01*
X18396Y19643D01*
X18368Y19686D01*
X18325Y19714D01*
X18275Y19724D01*
D02*
G37*
G36*
Y18531D02*
X17625D01*
X17575Y18521D01*
X17532Y18492D01*
X17504Y18450D01*
X17494Y18399D01*
X17504Y18349D01*
X17532Y18306D01*
X17575Y18278D01*
X17625Y18268D01*
X18275D01*
X18325Y18278D01*
X18368Y18306D01*
X18396Y18349D01*
X18406Y18399D01*
X18396Y18450D01*
X18368Y18492D01*
X18325Y18521D01*
X18275Y18531D01*
D02*
G37*
G36*
Y18137D02*
X17625D01*
X17575Y18127D01*
X17532Y18099D01*
X17504Y18056D01*
X17494Y18006D01*
X17504Y17955D01*
X17532Y17913D01*
X17575Y17884D01*
X17625Y17874D01*
X18275D01*
X18325Y17884D01*
X18368Y17913D01*
X18396Y17955D01*
X18406Y18006D01*
X18396Y18056D01*
X18368Y18099D01*
X18325Y18127D01*
X18275Y18137D01*
D02*
G37*
G36*
X1181Y18264D02*
X1088Y18252D01*
X1002Y18216D01*
X928Y18159D01*
X871Y18085D01*
X835Y17998D01*
X823Y17906D01*
X835Y17813D01*
X871Y17726D01*
X928Y17652D01*
X1002Y17595D01*
X1088Y17559D01*
X1181Y17547D01*
X1274Y17559D01*
X1360Y17595D01*
X1434Y17652D01*
X1491Y17726D01*
X1527Y17813D01*
X1539Y17906D01*
X1527Y17998D01*
X1491Y18085D01*
X1434Y18159D01*
X1360Y18216D01*
X1274Y18252D01*
X1181Y18264D01*
D02*
G37*
G36*
X18275Y17743D02*
X17625D01*
X17575Y17733D01*
X17532Y17705D01*
X17504Y17662D01*
X17494Y17612D01*
X17504Y17562D01*
X17532Y17519D01*
X17575Y17490D01*
X17625Y17480D01*
X18275D01*
X18325Y17490D01*
X18368Y17519D01*
X18396Y17562D01*
X18406Y17612D01*
X18396Y17662D01*
X18368Y17705D01*
X18325Y17733D01*
X18275Y17743D01*
D02*
G37*
G36*
Y17350D02*
X17625D01*
X17575Y17340D01*
X17532Y17311D01*
X17504Y17268D01*
X17494Y17218D01*
X17504Y17168D01*
X17532Y17125D01*
X17575Y17097D01*
X17625Y17087D01*
X18275D01*
X18325Y17097D01*
X18368Y17125D01*
X18396Y17168D01*
X18406Y17218D01*
X18396Y17268D01*
X18368Y17311D01*
X18325Y17340D01*
X18275Y17350D01*
D02*
G37*
G36*
Y16956D02*
X17625D01*
X17575Y16946D01*
X17532Y16917D01*
X17504Y16875D01*
X17494Y16824D01*
X17504Y16774D01*
X17532Y16732D01*
X17575Y16703D01*
X17625Y16693D01*
X18275D01*
X18325Y16703D01*
X18368Y16732D01*
X18396Y16774D01*
X18406Y16824D01*
X18396Y16875D01*
X18368Y16917D01*
X18325Y16946D01*
X18275Y16956D01*
D02*
G37*
G36*
X1181Y17264D02*
X1088Y17252D01*
X1002Y17216D01*
X928Y17159D01*
X871Y17085D01*
X835Y16998D01*
X823Y16906D01*
X835Y16813D01*
X871Y16726D01*
X928Y16652D01*
X1002Y16595D01*
X1088Y16559D01*
X1181Y16547D01*
X1274Y16559D01*
X1360Y16595D01*
X1434Y16652D01*
X1491Y16726D01*
X1527Y16813D01*
X1539Y16906D01*
X1527Y16998D01*
X1491Y17085D01*
X1434Y17159D01*
X1360Y17216D01*
X1274Y17252D01*
X1181Y17264D01*
D02*
G37*
G36*
X18275Y16562D02*
X17625D01*
X17575Y16552D01*
X17532Y16524D01*
X17504Y16481D01*
X17494Y16431D01*
X17504Y16380D01*
X17532Y16338D01*
X17575Y16309D01*
X17625Y16299D01*
X18275D01*
X18325Y16309D01*
X18368Y16338D01*
X18396Y16380D01*
X18406Y16431D01*
X18396Y16481D01*
X18368Y16524D01*
X18325Y16552D01*
X18275Y16562D01*
D02*
G37*
G36*
Y16169D02*
X17625D01*
X17575Y16158D01*
X17532Y16130D01*
X17504Y16087D01*
X17494Y16037D01*
X17504Y15987D01*
X17532Y15944D01*
X17575Y15916D01*
X17625Y15906D01*
X18275D01*
X18325Y15916D01*
X18368Y15944D01*
X18396Y15987D01*
X18406Y16037D01*
X18396Y16087D01*
X18368Y16130D01*
X18325Y16158D01*
X18275Y16169D01*
D02*
G37*
G36*
X1181Y16264D02*
X1088Y16252D01*
X1002Y16216D01*
X928Y16159D01*
X871Y16085D01*
X835Y15998D01*
X823Y15906D01*
X835Y15813D01*
X871Y15726D01*
X928Y15652D01*
X1002Y15595D01*
X1088Y15559D01*
X1181Y15547D01*
X1274Y15559D01*
X1360Y15595D01*
X1434Y15652D01*
X1491Y15726D01*
X1527Y15813D01*
X1539Y15906D01*
X1527Y15998D01*
X1491Y16085D01*
X1434Y16159D01*
X1360Y16216D01*
X1274Y16252D01*
X1181Y16264D01*
D02*
G37*
G36*
X18275Y15775D02*
X17625D01*
X17575Y15765D01*
X17532Y15736D01*
X17504Y15694D01*
X17494Y15643D01*
X17504Y15593D01*
X17532Y15550D01*
X17575Y15522D01*
X17625Y15512D01*
X18275D01*
X18325Y15522D01*
X18368Y15550D01*
X18396Y15593D01*
X18406Y15643D01*
X18396Y15694D01*
X18368Y15736D01*
X18325Y15765D01*
X18275Y15775D01*
D02*
G37*
G36*
X18404Y15379D02*
X17496D01*
Y15121D01*
X18404D01*
Y15379D01*
D02*
G37*
G36*
X18275Y14987D02*
X17625D01*
X17575Y14977D01*
X17532Y14949D01*
X17504Y14906D01*
X17494Y14856D01*
X17504Y14806D01*
X17532Y14763D01*
X17575Y14735D01*
X17625Y14725D01*
X18275D01*
X18325Y14735D01*
X18368Y14763D01*
X18396Y14806D01*
X18406Y14856D01*
X18396Y14906D01*
X18368Y14949D01*
X18325Y14977D01*
X18275Y14987D01*
D02*
G37*
G36*
X1181Y15264D02*
X1088Y15252D01*
X1002Y15216D01*
X928Y15159D01*
X871Y15085D01*
X835Y14998D01*
X823Y14906D01*
X835Y14813D01*
X871Y14726D01*
X928Y14652D01*
X1002Y14595D01*
X1088Y14559D01*
X1181Y14547D01*
X1274Y14559D01*
X1360Y14595D01*
X1434Y14652D01*
X1491Y14726D01*
X1527Y14813D01*
X1539Y14906D01*
X1527Y14998D01*
X1491Y15085D01*
X1434Y15159D01*
X1360Y15216D01*
X1274Y15252D01*
X1181Y15264D01*
D02*
G37*
G36*
X18275Y14594D02*
X17625D01*
X17575Y14584D01*
X17532Y14555D01*
X17504Y14513D01*
X17494Y14462D01*
X17504Y14412D01*
X17532Y14369D01*
X17575Y14341D01*
X17625Y14331D01*
X18275D01*
X18325Y14341D01*
X18368Y14369D01*
X18396Y14412D01*
X18406Y14462D01*
X18396Y14513D01*
X18368Y14555D01*
X18325Y14584D01*
X18275Y14594D01*
D02*
G37*
G36*
Y14200D02*
X17625D01*
X17575Y14190D01*
X17532Y14162D01*
X17504Y14119D01*
X17494Y14069D01*
X17504Y14018D01*
X17532Y13976D01*
X17575Y13947D01*
X17625Y13937D01*
X18275D01*
X18325Y13947D01*
X18368Y13976D01*
X18396Y14018D01*
X18406Y14069D01*
X18396Y14119D01*
X18368Y14162D01*
X18325Y14190D01*
X18275Y14200D01*
D02*
G37*
G36*
X1181Y14264D02*
X1088Y14252D01*
X1002Y14216D01*
X928Y14159D01*
X871Y14085D01*
X835Y13998D01*
X823Y13906D01*
X835Y13813D01*
X871Y13726D01*
X928Y13652D01*
X1002Y13595D01*
X1088Y13559D01*
X1181Y13547D01*
X1274Y13559D01*
X1360Y13595D01*
X1434Y13652D01*
X1491Y13726D01*
X1527Y13813D01*
X1539Y13906D01*
X1527Y13998D01*
X1491Y14085D01*
X1434Y14159D01*
X1360Y14216D01*
X1274Y14252D01*
X1181Y14264D01*
D02*
G37*
G36*
X18275Y13806D02*
X17625D01*
X17575Y13796D01*
X17532Y13768D01*
X17504Y13725D01*
X17494Y13675D01*
X17504Y13625D01*
X17532Y13582D01*
X17575Y13553D01*
X17625Y13543D01*
X18275D01*
X18325Y13553D01*
X18368Y13582D01*
X18396Y13625D01*
X18406Y13675D01*
X18396Y13725D01*
X18368Y13768D01*
X18325Y13796D01*
X18275Y13806D01*
D02*
G37*
G36*
Y13413D02*
X17625D01*
X17575Y13403D01*
X17532Y13374D01*
X17504Y13331D01*
X17494Y13281D01*
X17504Y13231D01*
X17532Y13188D01*
X17575Y13160D01*
X17625Y13150D01*
X18275D01*
X18325Y13160D01*
X18368Y13188D01*
X18396Y13231D01*
X18406Y13281D01*
X18396Y13331D01*
X18368Y13374D01*
X18325Y13403D01*
X18275Y13413D01*
D02*
G37*
G36*
Y13019D02*
X17625D01*
X17575Y13009D01*
X17532Y12980D01*
X17504Y12938D01*
X17494Y12887D01*
X17504Y12837D01*
X17532Y12795D01*
X17575Y12766D01*
X17625Y12756D01*
X18275D01*
X18325Y12766D01*
X18368Y12795D01*
X18396Y12837D01*
X18406Y12887D01*
X18396Y12938D01*
X18368Y12980D01*
X18325Y13009D01*
X18275Y13019D01*
D02*
G37*
G36*
X1181Y13264D02*
X1088Y13252D01*
X1002Y13216D01*
X928Y13159D01*
X871Y13085D01*
X835Y12998D01*
X823Y12906D01*
X835Y12813D01*
X871Y12726D01*
X928Y12652D01*
X1002Y12595D01*
X1088Y12559D01*
X1181Y12547D01*
X1274Y12559D01*
X1360Y12595D01*
X1434Y12652D01*
X1491Y12726D01*
X1527Y12813D01*
X1539Y12906D01*
X1527Y12998D01*
X1491Y13085D01*
X1434Y13159D01*
X1360Y13216D01*
X1274Y13252D01*
X1181Y13264D01*
D02*
G37*
G36*
X18275Y12625D02*
X17625D01*
X17575Y12615D01*
X17532Y12587D01*
X17504Y12544D01*
X17494Y12494D01*
X17504Y12443D01*
X17532Y12401D01*
X17575Y12372D01*
X17625Y12362D01*
X18275D01*
X18325Y12372D01*
X18368Y12401D01*
X18396Y12443D01*
X18406Y12494D01*
X18396Y12544D01*
X18368Y12587D01*
X18325Y12615D01*
X18275Y12625D01*
D02*
G37*
G36*
Y12231D02*
X17625D01*
X17575Y12221D01*
X17532Y12193D01*
X17504Y12150D01*
X17494Y12100D01*
X17504Y12050D01*
X17532Y12007D01*
X17575Y11979D01*
X17625Y11969D01*
X18275D01*
X18325Y11979D01*
X18368Y12007D01*
X18396Y12050D01*
X18406Y12100D01*
X18396Y12150D01*
X18368Y12193D01*
X18325Y12221D01*
X18275Y12231D01*
D02*
G37*
G36*
Y11838D02*
X17625D01*
X17575Y11828D01*
X17532Y11799D01*
X17504Y11757D01*
X17494Y11706D01*
X17504Y11656D01*
X17532Y11613D01*
X17575Y11585D01*
X17625Y11575D01*
X18275D01*
X18325Y11585D01*
X18368Y11613D01*
X18396Y11656D01*
X18406Y11706D01*
X18396Y11757D01*
X18368Y11799D01*
X18325Y11828D01*
X18275Y11838D01*
D02*
G37*
G36*
X1181Y12264D02*
X1088Y12252D01*
X1002Y12216D01*
X928Y12159D01*
X871Y12085D01*
X835Y11998D01*
X823Y11906D01*
X835Y11813D01*
X871Y11726D01*
X928Y11652D01*
X1002Y11595D01*
X1088Y11559D01*
X1181Y11547D01*
X1274Y11559D01*
X1360Y11595D01*
X1434Y11652D01*
X1491Y11726D01*
X1527Y11813D01*
X1539Y11906D01*
X1527Y11998D01*
X1491Y12085D01*
X1434Y12159D01*
X1360Y12216D01*
X1274Y12252D01*
X1181Y12264D01*
D02*
G37*
G36*
X18404Y11442D02*
X17496D01*
Y11184D01*
X18404D01*
Y11442D01*
D02*
G37*
G36*
X18275Y11050D02*
X17625D01*
X17575Y11040D01*
X17532Y11012D01*
X17504Y10969D01*
X17494Y10919D01*
X17504Y10869D01*
X17532Y10826D01*
X17575Y10798D01*
X17625Y10788D01*
X18275D01*
X18325Y10798D01*
X18368Y10826D01*
X18396Y10869D01*
X18406Y10919D01*
X18396Y10969D01*
X18368Y11012D01*
X18325Y11040D01*
X18275Y11050D01*
D02*
G37*
G36*
X1181Y11264D02*
X1088Y11252D01*
X1002Y11216D01*
X928Y11159D01*
X871Y11085D01*
X835Y10998D01*
X823Y10906D01*
X835Y10813D01*
X871Y10726D01*
X928Y10652D01*
X1002Y10595D01*
X1088Y10559D01*
X1181Y10547D01*
X1274Y10559D01*
X1360Y10595D01*
X1434Y10652D01*
X1491Y10726D01*
X1527Y10813D01*
X1539Y10906D01*
X1527Y10998D01*
X1491Y11085D01*
X1434Y11159D01*
X1360Y11216D01*
X1274Y11252D01*
X1181Y11264D01*
D02*
G37*
G36*
X18275Y10657D02*
X17625D01*
X17575Y10647D01*
X17532Y10618D01*
X17504Y10576D01*
X17494Y10525D01*
X17504Y10475D01*
X17532Y10432D01*
X17575Y10404D01*
X17625Y10394D01*
X18275D01*
X18325Y10404D01*
X18368Y10432D01*
X18396Y10475D01*
X18406Y10525D01*
X18396Y10576D01*
X18368Y10618D01*
X18325Y10647D01*
X18275Y10657D01*
D02*
G37*
G36*
X1181Y10264D02*
X1088Y10252D01*
X1002Y10216D01*
X928Y10159D01*
X871Y10085D01*
X835Y9998D01*
X823Y9906D01*
X835Y9813D01*
X871Y9726D01*
X928Y9652D01*
X1002Y9595D01*
X1088Y9559D01*
X1181Y9547D01*
X1274Y9559D01*
X1360Y9595D01*
X1434Y9652D01*
X1491Y9726D01*
X1527Y9813D01*
X1539Y9906D01*
X1527Y9998D01*
X1491Y10085D01*
X1434Y10159D01*
X1360Y10216D01*
X1274Y10252D01*
X1181Y10264D01*
D02*
G37*
G36*
X16802Y8820D02*
X16682D01*
Y8675D01*
X16802D01*
Y8820D01*
D02*
G37*
G36*
X1181Y9264D02*
X1088Y9252D01*
X1002Y9216D01*
X928Y9159D01*
X871Y9085D01*
X835Y8998D01*
X823Y8906D01*
X835Y8813D01*
X871Y8726D01*
X928Y8652D01*
X1002Y8595D01*
X1088Y8559D01*
X1181Y8547D01*
X1274Y8559D01*
X1360Y8595D01*
X1434Y8652D01*
X1491Y8726D01*
X1527Y8813D01*
X1539Y8906D01*
X1527Y8998D01*
X1491Y9085D01*
X1434Y9159D01*
X1360Y9216D01*
X1274Y9252D01*
X1181Y9264D01*
D02*
G37*
G36*
X16172Y8655D02*
Y8342D01*
X16485D01*
X16478Y8395D01*
X16442Y8481D01*
X16386Y8556D01*
X16311Y8612D01*
X16225Y8648D01*
X16172Y8655D01*
D02*
G37*
G36*
X16092D02*
X16039Y8648D01*
X15953Y8612D01*
X15879Y8556D01*
X15822Y8481D01*
X15786Y8395D01*
X15779Y8342D01*
X16092D01*
Y8655D01*
D02*
G37*
G36*
X16485Y8262D02*
X16172D01*
Y7949D01*
X16225Y7956D01*
X16311Y7992D01*
X16386Y8049D01*
X16442Y8123D01*
X16478Y8209D01*
X16485Y8262D01*
D02*
G37*
G36*
X16092D02*
X15779D01*
X15786Y8209D01*
X15822Y8123D01*
X15879Y8049D01*
X15953Y7992D01*
X16039Y7956D01*
X16092Y7949D01*
Y8262D01*
D02*
G37*
G36*
X1181Y8264D02*
X1088Y8252D01*
X1002Y8216D01*
X928Y8159D01*
X871Y8085D01*
X835Y7998D01*
X823Y7906D01*
X835Y7813D01*
X871Y7726D01*
X928Y7652D01*
X1002Y7595D01*
X1088Y7559D01*
X1181Y7547D01*
X1274Y7559D01*
X1360Y7595D01*
X1434Y7652D01*
X1491Y7726D01*
X1527Y7813D01*
X1539Y7906D01*
X1527Y7998D01*
X1491Y8085D01*
X1434Y8159D01*
X1360Y8216D01*
X1274Y8252D01*
X1181Y8264D01*
D02*
G37*
G36*
X16132Y7660D02*
X16039Y7648D01*
X15953Y7612D01*
X15879Y7556D01*
X15822Y7481D01*
X15786Y7395D01*
X15774Y7302D01*
X15786Y7209D01*
X15822Y7123D01*
X15879Y7049D01*
X15953Y6992D01*
X16039Y6956D01*
X16132Y6944D01*
X16225Y6956D01*
X16311Y6992D01*
X16386Y7049D01*
X16442Y7123D01*
X16478Y7209D01*
X16490Y7302D01*
X16478Y7395D01*
X16442Y7481D01*
X16386Y7556D01*
X16311Y7612D01*
X16225Y7648D01*
X16132Y7660D01*
D02*
G37*
G36*
X1181Y7264D02*
X1088Y7252D01*
X1002Y7216D01*
X928Y7159D01*
X871Y7085D01*
X835Y6998D01*
X823Y6906D01*
X835Y6813D01*
X871Y6726D01*
X928Y6652D01*
X1002Y6595D01*
X1088Y6559D01*
X1181Y6547D01*
X1274Y6559D01*
X1360Y6595D01*
X1434Y6652D01*
X1491Y6726D01*
X1527Y6813D01*
X1539Y6906D01*
X1527Y6998D01*
X1491Y7085D01*
X1434Y7159D01*
X1360Y7216D01*
X1274Y7252D01*
X1181Y7264D01*
D02*
G37*
G36*
X16132Y6660D02*
X16039Y6648D01*
X15953Y6612D01*
X15879Y6556D01*
X15822Y6481D01*
X15786Y6395D01*
X15774Y6302D01*
X15786Y6209D01*
X15822Y6123D01*
X15879Y6049D01*
X15953Y5992D01*
X16039Y5956D01*
X16132Y5944D01*
X16225Y5956D01*
X16311Y5992D01*
X16386Y6049D01*
X16442Y6123D01*
X16478Y6209D01*
X16490Y6302D01*
X16478Y6395D01*
X16442Y6481D01*
X16386Y6556D01*
X16311Y6612D01*
X16225Y6648D01*
X16132Y6660D01*
D02*
G37*
G36*
X1181Y6264D02*
X1088Y6252D01*
X1002Y6216D01*
X928Y6159D01*
X871Y6085D01*
X835Y5998D01*
X823Y5906D01*
X835Y5813D01*
X871Y5726D01*
X928Y5652D01*
X1002Y5595D01*
X1088Y5559D01*
X1181Y5547D01*
X1274Y5559D01*
X1360Y5595D01*
X1434Y5652D01*
X1491Y5726D01*
X1527Y5813D01*
X1539Y5906D01*
X1527Y5998D01*
X1491Y6085D01*
X1434Y6159D01*
X1360Y6216D01*
X1274Y6252D01*
X1181Y6264D01*
D02*
G37*
G36*
X16132Y5660D02*
X16039Y5648D01*
X15953Y5612D01*
X15879Y5556D01*
X15822Y5481D01*
X15786Y5395D01*
X15774Y5302D01*
X15786Y5209D01*
X15822Y5123D01*
X15879Y5049D01*
X15953Y4992D01*
X16039Y4956D01*
X16132Y4944D01*
X16225Y4956D01*
X16311Y4992D01*
X16386Y5049D01*
X16442Y5123D01*
X16478Y5209D01*
X16490Y5302D01*
X16478Y5395D01*
X16442Y5481D01*
X16386Y5556D01*
X16311Y5612D01*
X16225Y5648D01*
X16132Y5660D01*
D02*
G37*
G36*
X1536Y5261D02*
X826D01*
Y4550D01*
X1536D01*
Y5261D01*
D02*
G37*
G36*
X16132Y4660D02*
X16039Y4648D01*
X15953Y4612D01*
X15879Y4556D01*
X15822Y4481D01*
X15786Y4395D01*
X15774Y4302D01*
X15786Y4209D01*
X15822Y4123D01*
X15879Y4049D01*
X15953Y3992D01*
X16039Y3956D01*
X16132Y3944D01*
X16225Y3956D01*
X16311Y3992D01*
X16386Y4049D01*
X16442Y4123D01*
X16478Y4209D01*
X16490Y4302D01*
X16478Y4395D01*
X16442Y4481D01*
X16386Y4556D01*
X16311Y4612D01*
X16225Y4648D01*
X16132Y4660D01*
D02*
G37*
%LPD*%
D14*
X4352Y28102D02*
X4450Y28200D01*
D17*
X9182Y25380D02*
D03*
X8438Y24976D02*
D03*
Y25784D02*
D03*
D18*
X11640Y16968D02*
D03*
X11236Y17712D02*
D03*
X12044D02*
D03*
D19*
X11700Y23835D02*
D03*
Y19905D02*
D03*
D20*
X12021Y18530D02*
D03*
X10958D02*
D03*
D21*
X17950Y10525D02*
D03*
Y10919D02*
D03*
Y11706D02*
D03*
Y12100D02*
D03*
Y12494D02*
D03*
Y12887D02*
D03*
Y13281D02*
D03*
Y13675D02*
D03*
Y14069D02*
D03*
Y14462D02*
D03*
Y14856D02*
D03*
Y15643D02*
D03*
Y16037D02*
D03*
Y16431D02*
D03*
Y16824D02*
D03*
Y17218D02*
D03*
Y17612D02*
D03*
Y18006D02*
D03*
Y18399D02*
D03*
Y23136D02*
D03*
Y22743D02*
D03*
Y22349D02*
D03*
Y21955D02*
D03*
Y21561D02*
D03*
Y21168D02*
D03*
Y20774D02*
D03*
Y20380D02*
D03*
Y19593D02*
D03*
D22*
Y11313D02*
D03*
Y15250D02*
D03*
Y23530D02*
D03*
Y19987D02*
D03*
D23*
X7130Y22000D02*
D03*
X6630D02*
D03*
X6130D02*
D03*
X5630D02*
D03*
X7130Y24250D02*
D03*
X6630D02*
D03*
X6130D02*
D03*
X5630D02*
D03*
D24*
X4040Y24265D02*
D03*
Y24895D02*
D03*
X3380Y24885D02*
D03*
Y24255D02*
D03*
D25*
X7140Y21080D02*
D03*
X6740D02*
D03*
X3500Y23180D02*
D03*
X3100D02*
D03*
X11780Y4300D02*
D03*
X12180D02*
D03*
X11945Y7302D02*
D03*
X12345D02*
D03*
X11551Y5334D02*
D03*
X11951D02*
D03*
X6740Y20580D02*
D03*
X7140D02*
D03*
X3950Y23700D02*
D03*
X3550D02*
D03*
D26*
X3355Y22560D02*
D03*
X2725D02*
D03*
X3335Y21930D02*
D03*
X3965D02*
D03*
D27*
X16842Y8860D02*
D03*
Y9260D02*
D03*
X11951Y9271D02*
D03*
Y8871D02*
D03*
X3980Y22780D02*
D03*
Y23180D02*
D03*
D41*
X6380Y23125D02*
D03*
D42*
X720Y27910D02*
X1640Y28830D01*
X720Y20110D02*
Y27910D01*
Y20110D02*
X7710Y13120D01*
X1070Y20473D02*
Y27570D01*
Y20473D02*
X4700Y16843D01*
X1420Y20810D02*
X2830Y19400D01*
X1420Y20810D02*
Y26930D01*
X2105Y27615D01*
X2830Y19400D02*
X8630D01*
X8950Y2750D02*
X13691D01*
X7710Y3990D02*
X8950Y2750D01*
X7710Y3990D02*
Y13120D01*
X11490Y29070D02*
X17424Y23136D01*
X6530Y29070D02*
X11490D01*
X5940Y28480D02*
X6530Y29070D01*
X1640Y28830D02*
X3130D01*
X2105Y27615D02*
X3035D01*
X3450Y27200D01*
X360Y19810D02*
Y28220D01*
X3450Y28200D02*
Y28510D01*
X3130Y28830D02*
X3450Y28510D01*
X4227Y29010D02*
X4960Y28277D01*
X1150Y29010D02*
X4227D01*
X360Y28220D02*
X1150Y29010D01*
X360Y19810D02*
X7260Y12910D01*
Y3700D02*
Y12910D01*
Y3700D02*
X8660Y2300D01*
X4960Y27690D02*
Y28277D01*
Y27690D02*
X5450Y27200D01*
X8660Y2300D02*
X11136D01*
X17424Y23136D02*
X17950D01*
X14810Y4240D02*
Y24481D01*
X13872Y3302D02*
X14810Y4240D01*
X13091Y26200D02*
X14810Y24481D01*
X13165Y26380D02*
X17062Y22483D01*
X8166Y26380D02*
X13165D01*
X13130Y26670D02*
X17242Y22558D01*
X8590Y26670D02*
X13130D01*
X17242Y3412D02*
Y22558D01*
X7450Y27096D02*
X8166Y26380D01*
X17062Y4232D02*
Y22483D01*
X13132Y3302D02*
X13872D01*
X7450Y26200D02*
X13091D01*
X16132Y2302D02*
X17242Y3412D01*
X16132Y3302D02*
X17062Y4232D01*
X12021Y18530D02*
X12044Y18508D01*
Y17712D02*
Y18508D01*
X6450Y27200D02*
X7450Y26200D01*
X12645Y27615D02*
X17517Y22743D01*
X11278Y27615D02*
X12645D01*
X11268Y27605D02*
X11278Y27615D01*
X11045Y27605D02*
X11268D01*
X17517Y22743D02*
X17950D01*
X8450Y26810D02*
X8590Y26670D01*
X8450Y26810D02*
Y27200D01*
X3090Y26560D02*
X3460Y26190D01*
X3090Y26560D02*
X5560D01*
X2450Y27200D02*
X3090Y26560D01*
X6110Y25440D02*
Y25860D01*
X6090Y25420D02*
X6110Y25440D01*
X5780Y26190D02*
X6110Y25860D01*
X3460Y26190D02*
X5780D01*
X8438Y24976D02*
X9964D01*
X11105Y23835D01*
X11700D01*
X7776Y24610D02*
X8143Y24976D01*
X7220Y24610D02*
X7776D01*
X7130Y24520D02*
X7220Y24610D01*
X7130Y24250D02*
Y24520D01*
X8143Y24976D02*
X8438D01*
X5940Y26940D02*
Y28480D01*
X5560Y26560D02*
X5940Y26940D01*
X4700Y16843D02*
X9055D01*
X8630Y19400D02*
X10183Y17847D01*
X11116D01*
X11236Y17727D01*
Y17712D02*
Y17727D01*
X11700Y19905D02*
X12021Y19583D01*
Y18530D02*
Y19583D01*
X3590Y19700D02*
X11495D01*
X11700Y19905D01*
X2725Y20565D02*
X3590Y19700D01*
X2725Y20565D02*
Y22560D01*
X5560Y21930D02*
X5610Y21980D01*
X3965Y21930D02*
X5560D01*
X5614Y24265D02*
X5630Y24250D01*
X4040Y24265D02*
X5614D01*
X6090Y24289D02*
X6130Y24250D01*
X6090Y24289D02*
Y25420D01*
X7140Y20040D02*
Y20580D01*
Y21080D01*
Y21740D01*
X7040Y21840D02*
X7140Y21740D01*
X7040Y21840D02*
X7130Y21930D01*
Y22000D01*
X13691Y2750D02*
X15540Y4599D01*
Y8710D02*
X16132Y9302D01*
X15540Y4599D02*
Y8710D01*
X3380Y24885D02*
X3390Y24895D01*
X4040D01*
X2810Y23180D02*
X3100D01*
X2725Y23095D02*
X2810Y23180D01*
X2725Y22560D02*
Y23095D01*
X3335Y22540D02*
X3355Y22560D01*
X3335Y21930D02*
Y22540D01*
X3525Y23180D02*
X3980D01*
X3960Y21935D02*
X3965Y21930D01*
X3960Y21935D02*
Y22200D01*
X3720Y22440D02*
X3960Y22200D01*
X3720Y22440D02*
Y22985D01*
X3525Y23180D02*
X3720Y22985D01*
X3500Y23180D02*
X3525D01*
X3500D02*
X3550Y23230D01*
Y23700D01*
X3950D02*
X4010Y23760D01*
Y24235D01*
X4040Y24265D01*
X3380Y24255D02*
X3517Y24118D01*
Y23733D02*
Y24118D01*
Y23733D02*
X3550Y23700D01*
X13132Y3302D02*
Y3315D01*
X13130Y4300D02*
X13132Y4302D01*
X12180Y4300D02*
X13130D01*
X16834Y9268D02*
X16842Y9260D01*
X11138Y2302D02*
X13132D01*
X11951Y5334D02*
X13101D01*
X11551D02*
X11557Y5340D01*
Y5727D01*
X12132Y6302D01*
X11557Y9271D02*
X11951D01*
X11164Y8877D02*
X11557Y9271D01*
X11164Y7696D02*
Y8877D01*
Y7696D02*
X11551Y7308D01*
Y7302D02*
Y7308D01*
X11951Y8871D02*
X12520Y8302D01*
X11951Y9271D02*
X13101D01*
X13132Y9302D01*
X13101Y5334D02*
X13132Y5302D01*
X12132Y6302D02*
X13132D01*
X12520Y8302D02*
X13132D01*
X11551Y7302D02*
X11945D01*
X12345D02*
X13132D01*
X7450Y27096D02*
Y27200D01*
X11136Y2300D02*
X11138Y2302D01*
X10450Y28200D02*
X11045Y27605D01*
D43*
X2450Y27200D02*
D03*
X13132Y9302D02*
D03*
D44*
X2450Y28200D02*
D03*
X3450Y27200D02*
D03*
Y28200D02*
D03*
X4450Y27200D02*
D03*
Y28200D02*
D03*
X5450Y27200D02*
D03*
Y28200D02*
D03*
X6450Y27200D02*
D03*
Y28200D02*
D03*
X7450Y27200D02*
D03*
Y28200D02*
D03*
X8450Y27200D02*
D03*
Y28200D02*
D03*
X9450Y27200D02*
D03*
Y28200D02*
D03*
X10450Y27200D02*
D03*
Y28200D02*
D03*
X11450Y27200D02*
D03*
Y28200D02*
D03*
X16132Y2302D02*
D03*
Y3302D02*
D03*
Y4302D02*
D03*
Y5302D02*
D03*
Y6302D02*
D03*
Y7302D02*
D03*
Y8302D02*
D03*
Y9302D02*
D03*
X13132Y2302D02*
D03*
Y3302D02*
D03*
Y4302D02*
D03*
Y5302D02*
D03*
Y6302D02*
D03*
Y7302D02*
D03*
Y8302D02*
D03*
X9055Y5843D02*
D03*
Y6843D02*
D03*
Y7843D02*
D03*
Y8843D02*
D03*
Y9843D02*
D03*
Y10843D02*
D03*
Y11843D02*
D03*
Y12843D02*
D03*
Y13843D02*
D03*
Y14843D02*
D03*
Y15843D02*
D03*
Y16843D02*
D03*
Y17843D02*
D03*
X1181Y5906D02*
D03*
Y6906D02*
D03*
Y7906D02*
D03*
Y8906D02*
D03*
Y9906D02*
D03*
Y10906D02*
D03*
Y11906D02*
D03*
Y12906D02*
D03*
Y13906D02*
D03*
Y14906D02*
D03*
Y15906D02*
D03*
Y16906D02*
D03*
Y17906D02*
D03*
D45*
X9055Y4843D02*
D03*
X1181Y4906D02*
D03*
D46*
X1070Y27570D02*
D03*
X6090Y25420D02*
D03*
X7140Y20040D02*
D03*
M02*
