G04 Layer_Color=65535*
%FSLAX24Y24*%
%MOIN*%
G70*
G01*
G75*
%ADD18C,0.0100*%
%ADD25C,0.0236*%
%ADD26C,0.0098*%
%ADD27C,0.0079*%
%ADD28C,0.0010*%
%ADD29C,0.0080*%
%ADD30R,0.0079X0.0118*%
G36*
X3500Y21930D02*
X3000D01*
Y22180D01*
X3500D01*
Y21930D01*
D02*
G37*
D18*
X7370Y22590D02*
Y23190D01*
X7670D01*
X7770Y23090D01*
Y22890D01*
X7670Y22790D01*
X7370D01*
X7570D02*
X7770Y22590D01*
X8370Y23190D02*
X7970D01*
Y22890D01*
X8170Y22990D01*
X8270D01*
X8370Y22890D01*
Y22690D01*
X8270Y22590D01*
X8070D01*
X7970Y22690D01*
X1770Y22550D02*
Y23150D01*
X2070D01*
X2170Y23050D01*
Y22850D01*
X2070Y22750D01*
X1770D01*
X1970D02*
X2170Y22550D01*
X2370Y23050D02*
X2470Y23150D01*
X2670D01*
X2770Y23050D01*
Y22950D01*
X2670Y22850D01*
X2570D01*
X2670D01*
X2770Y22750D01*
Y22650D01*
X2670Y22550D01*
X2470D01*
X2370Y22650D01*
X3860Y23290D02*
Y23890D01*
X4160D01*
X4260Y23790D01*
Y23590D01*
X4160Y23490D01*
X3860D01*
X4060D02*
X4260Y23290D01*
X4860D02*
X4460D01*
X4860Y23690D01*
Y23790D01*
X4760Y23890D01*
X4560D01*
X4460Y23790D01*
X6410Y24760D02*
Y25360D01*
X6710D01*
X6810Y25260D01*
Y25060D01*
X6710Y24960D01*
X6410D01*
X6610D02*
X6810Y24760D01*
X7010D02*
X7210D01*
X7110D01*
Y25360D01*
X7010Y25260D01*
X746Y18741D02*
Y19340D01*
X1046D01*
X1146Y19240D01*
Y19040D01*
X1046Y18940D01*
X746D01*
X1746Y18741D02*
X1346D01*
X1746Y19140D01*
Y19240D01*
X1646Y19340D01*
X1446D01*
X1346Y19240D01*
X2340Y25440D02*
Y24840D01*
X2740D01*
X2940D02*
X3140D01*
X3040D01*
Y25440D01*
X2940Y25340D01*
X2350Y24650D02*
Y24050D01*
X2650D01*
X2750Y24150D01*
Y24550D01*
X2650Y24650D01*
X2350D01*
X3350Y24050D02*
X2950D01*
X3350Y24450D01*
Y24550D01*
X3250Y24650D01*
X3050D01*
X2950Y24550D01*
X6390Y26200D02*
Y25600D01*
X6690D01*
X6790Y25700D01*
Y26100D01*
X6690Y26200D01*
X6390D01*
X6990Y25600D02*
X7190D01*
X7090D01*
Y26200D01*
X6990Y26100D01*
X11703Y3870D02*
X11603Y3970D01*
X11403D01*
X11303Y3870D01*
Y3470D01*
X11403Y3370D01*
X11603D01*
X11703Y3470D01*
X11903Y3370D02*
X12103D01*
X12003D01*
Y3970D01*
X11903Y3870D01*
X12403D02*
X12503Y3970D01*
X12703D01*
X12803Y3870D01*
Y3470D01*
X12703Y3370D01*
X12503D01*
X12403Y3470D01*
Y3870D01*
X17093Y8909D02*
X16993Y9009D01*
X16793D01*
X16693Y8909D01*
Y8509D01*
X16793Y8409D01*
X16993D01*
X17093Y8509D01*
X17293D02*
X17393Y8409D01*
X17593D01*
X17693Y8509D01*
Y8909D01*
X17593Y9009D01*
X17393D01*
X17293Y8909D01*
Y8809D01*
X17393Y8709D01*
X17693D01*
X11070Y9270D02*
X10970Y9370D01*
X10770D01*
X10670Y9270D01*
Y8870D01*
X10770Y8770D01*
X10970D01*
X11070Y8870D01*
X11270Y9270D02*
X11370Y9370D01*
X11570D01*
X11670Y9270D01*
Y9170D01*
X11570Y9070D01*
X11670Y8970D01*
Y8870D01*
X11570Y8770D01*
X11370D01*
X11270Y8870D01*
Y8970D01*
X11370Y9070D01*
X11270Y9170D01*
Y9270D01*
X11370Y9070D02*
X11570D01*
X11070Y7500D02*
X10970Y7600D01*
X10770D01*
X10670Y7500D01*
Y7100D01*
X10770Y7000D01*
X10970D01*
X11070Y7100D01*
X11270Y7600D02*
X11670D01*
Y7500D01*
X11270Y7100D01*
Y7000D01*
X10640Y5500D02*
X10540Y5600D01*
X10340D01*
X10240Y5500D01*
Y5100D01*
X10340Y5000D01*
X10540D01*
X10640Y5100D01*
X11240Y5600D02*
X11040Y5500D01*
X10840Y5300D01*
Y5100D01*
X10940Y5000D01*
X11140D01*
X11240Y5100D01*
Y5200D01*
X11140Y5300D01*
X10840D01*
X2160Y23790D02*
X2060Y23890D01*
X1860D01*
X1760Y23790D01*
Y23390D01*
X1860Y23290D01*
X2060D01*
X2160Y23390D01*
X2760Y23890D02*
X2360D01*
Y23590D01*
X2560Y23690D01*
X2660D01*
X2760Y23590D01*
Y23390D01*
X2660Y23290D01*
X2460D01*
X2360Y23390D01*
X6670Y21950D02*
X6570Y22050D01*
X6370D01*
X6270Y21950D01*
Y21550D01*
X6370Y21450D01*
X6570D01*
X6670Y21550D01*
X7170Y21450D02*
Y22050D01*
X6870Y21750D01*
X7270D01*
X7760Y23850D02*
X7660Y23950D01*
X7460D01*
X7360Y23850D01*
Y23450D01*
X7460Y23350D01*
X7660D01*
X7760Y23450D01*
X7960Y23850D02*
X8060Y23950D01*
X8260D01*
X8360Y23850D01*
Y23750D01*
X8260Y23650D01*
X8160D01*
X8260D01*
X8360Y23550D01*
Y23450D01*
X8260Y23350D01*
X8060D01*
X7960Y23450D01*
X2750Y26090D02*
X2650Y26190D01*
X2450D01*
X2350Y26090D01*
Y25690D01*
X2450Y25590D01*
X2650D01*
X2750Y25690D01*
X3350Y25590D02*
X2950D01*
X3350Y25990D01*
Y26090D01*
X3250Y26190D01*
X3050D01*
X2950Y26090D01*
X7780Y24590D02*
X7680Y24690D01*
X7480D01*
X7380Y24590D01*
Y24190D01*
X7480Y24090D01*
X7680D01*
X7780Y24190D01*
X7980Y24090D02*
X8180D01*
X8080D01*
Y24690D01*
X7980Y24590D01*
X4240Y22460D02*
Y23060D01*
X4540D01*
X4640Y22960D01*
Y22760D01*
X4540Y22660D01*
X4240D01*
X4440D02*
X4640Y22460D01*
X5140D02*
Y23060D01*
X4840Y22760D01*
X5240D01*
X12817Y10817D02*
Y10317D01*
X12917Y10217D01*
X13117D01*
X13217Y10317D01*
Y10817D01*
X13817Y10217D02*
X13417D01*
X13817Y10617D01*
Y10717D01*
X13717Y10817D01*
X13517D01*
X13417Y10717D01*
X16700Y24639D02*
Y25239D01*
X17000D01*
X17100Y25139D01*
Y24939D01*
X17000Y24839D01*
X16700D01*
X17300Y24639D02*
X17500D01*
X17400D01*
Y25239D01*
X17300Y25139D01*
D25*
X14101Y9286D02*
G03*
X14101Y9286I-118J0D01*
G01*
D26*
X13181Y9814D02*
G03*
X13181Y9814I-49J0D01*
G01*
D27*
X14382Y9680D02*
G03*
X14882Y9680I250J0D01*
G01*
X6060Y24183D02*
X6100D01*
X6060Y24497D02*
X6100D01*
X4070Y25523D02*
X4110D01*
X4070Y25837D02*
X4110D01*
X6710Y23847D02*
X6750D01*
X6710Y23533D02*
X6750D01*
X4070Y24883D02*
X4110D01*
X4070Y25197D02*
X4110D01*
X681Y5156D02*
Y18406D01*
Y4406D02*
Y5156D01*
Y4406D02*
X1681D01*
Y18406D01*
X681D02*
X1681D01*
X5430Y25197D02*
X5470D01*
X5430Y24883D02*
X5470D01*
X6700Y22843D02*
X6740D01*
X6700Y23157D02*
X6740D01*
X13589Y1924D02*
X15675D01*
X14882Y9680D02*
X15675D01*
X13589D02*
X14382D01*
X15675Y1924D02*
Y9680D01*
X13589Y1924D02*
Y9680D01*
X136Y26394D02*
X844D01*
X136Y24686D02*
Y26394D01*
Y24686D02*
X844D01*
Y26394D01*
X8555Y5093D02*
Y18343D01*
Y4343D02*
Y5093D01*
Y4343D02*
X9555D01*
Y18343D01*
X8555D02*
X9555D01*
X11950Y26700D02*
Y28700D01*
X1950Y26700D02*
X2700D01*
X1950D02*
Y28700D01*
X2700D01*
X11950D01*
X2700Y26700D02*
X11950D01*
D28*
X5830Y22590D02*
X6130D01*
X5760Y22660D02*
Y22820D01*
X5700Y22660D02*
Y22820D01*
X5330Y22890D02*
X5630D01*
X5330Y22590D02*
Y22890D01*
Y22590D02*
X5630D01*
X6130D02*
Y22890D01*
X5830D02*
X6130D01*
X5830Y21540D02*
X6130D01*
X5760Y21610D02*
Y21770D01*
X5700Y21610D02*
Y21770D01*
X5330Y21840D02*
X5630D01*
X5330Y21540D02*
Y21840D01*
Y21540D02*
X5630D01*
X6130D02*
Y21840D01*
X5830D02*
X6130D01*
X2854Y23516D02*
X3154D01*
X3224Y23286D02*
Y23446D01*
X3284Y23286D02*
Y23446D01*
X3354Y23216D02*
X3654D01*
Y23516D01*
X3354D02*
X3654D01*
X2854Y23216D02*
Y23516D01*
Y23216D02*
X3154D01*
X11351Y5484D02*
X11651D01*
X11721Y5254D02*
Y5414D01*
X11781Y5254D02*
Y5414D01*
X11851Y5184D02*
X12151D01*
Y5484D01*
X11851D02*
X12151D01*
X11351Y5184D02*
Y5484D01*
Y5184D02*
X11651D01*
X11745Y7452D02*
X12045D01*
X12115Y7222D02*
Y7382D01*
X12175Y7222D02*
Y7382D01*
X12245Y7152D02*
X12545D01*
Y7452D01*
X12245D02*
X12545D01*
X11745Y7152D02*
Y7452D01*
Y7152D02*
X12045D01*
X12101Y9171D02*
Y9471D01*
X11871Y9101D02*
X12031D01*
X11871Y9041D02*
X12031D01*
X11801Y8671D02*
Y8971D01*
Y8671D02*
X12101D01*
Y8971D01*
X11801Y9471D02*
X12101D01*
X11801Y9171D02*
Y9471D01*
X17330Y9160D02*
X17630D01*
X17260Y9230D02*
Y9390D01*
X17200Y9230D02*
Y9390D01*
X16830Y9460D02*
X17130D01*
X16830Y9160D02*
Y9460D01*
Y9160D02*
X17130D01*
X17630D02*
Y9460D01*
X17330D02*
X17630D01*
X11580Y4450D02*
X11880D01*
X11950Y4220D02*
Y4380D01*
X12010Y4220D02*
Y4380D01*
X12080Y4150D02*
X12380D01*
Y4450D01*
X12080D02*
X12380D01*
X11580Y4150D02*
Y4450D01*
Y4150D02*
X11880D01*
X5430Y23450D02*
X5730D01*
X5360Y23520D02*
Y23680D01*
X5300Y23520D02*
Y23680D01*
X4930Y23750D02*
X5230D01*
X4930Y23450D02*
Y23750D01*
Y23450D02*
X5230D01*
X5730D02*
Y23750D01*
X5430D02*
X5730D01*
X3360Y22890D02*
X3660D01*
X3290Y22960D02*
Y23120D01*
X3230Y22960D02*
Y23120D01*
X2860Y23190D02*
X3160D01*
X2860Y22890D02*
Y23190D01*
Y22890D02*
X3160D01*
X3660D02*
Y23190D01*
X3360D02*
X3660D01*
D29*
X1975Y20280D02*
Y22280D01*
X5225D01*
Y20280D02*
Y22280D01*
X1975Y20280D02*
X5225D01*
X12383Y28000D02*
X12050D01*
X12383Y28333D01*
Y28417D01*
X12300Y28500D01*
X12133D01*
X12050Y28417D01*
X12550D02*
X12633Y28500D01*
X12800D01*
X12883Y28417D01*
Y28083D01*
X12800Y28000D01*
X12633D01*
X12550Y28083D01*
Y28417D01*
X12050Y27000D02*
X12217D01*
X12133D01*
Y27500D01*
X12050Y27417D01*
X12467Y27083D02*
X12550Y27000D01*
X12716D01*
X12800Y27083D01*
Y27417D01*
X12716Y27500D01*
X12550D01*
X12467Y27417D01*
Y27333D01*
X12550Y27250D01*
X12800D01*
X1450Y27000D02*
X1617D01*
X1533D01*
Y27500D01*
X1450Y27417D01*
X1783Y28000D02*
X1450D01*
X1783Y28333D01*
Y28417D01*
X1700Y28500D01*
X1533D01*
X1450Y28417D01*
D30*
X6159Y25424D02*
D03*
X3541Y24606D02*
D03*
M02*
