G04*
G04 #@! TF.GenerationSoftware,Altium Limited,Altium Designer,19.0.10 (269)*
G04*
G04 Layer_Color=65535*
%FSLAX24Y24*%
%MOIN*%
G70*
G01*
G75*
%ADD10C,0.0236*%
%ADD11C,0.0098*%
%ADD12C,0.0079*%
%ADD13C,0.0060*%
%ADD14C,0.0080*%
%ADD15C,0.0010*%
%ADD16C,0.0100*%
G36*
X7280Y23725D02*
X7030D01*
Y23225D01*
X7280D01*
Y23725D01*
D02*
G37*
D10*
X14101Y9286D02*
G03*
X14101Y9286I-118J0D01*
G01*
D11*
X13181Y9814D02*
G03*
X13181Y9814I-49J0D01*
G01*
D12*
X14382Y9680D02*
G03*
X14882Y9680I250J0D01*
G01*
X11950Y26700D02*
Y28700D01*
X1950Y26700D02*
X2700D01*
X1950D02*
Y28700D01*
X2700D01*
X11950D01*
X2700Y26700D02*
X11950D01*
X13589Y1924D02*
X15675D01*
X14882Y9680D02*
X15675D01*
X13589D02*
X14382D01*
X15675Y1924D02*
Y9680D01*
X13589Y1924D02*
Y9680D01*
X11333Y18235D02*
X11647D01*
X11333Y18825D02*
X11647D01*
X8555Y18343D02*
X9555D01*
Y4343D02*
Y18343D01*
X8555Y4343D02*
X9555D01*
X8555D02*
Y5093D01*
Y18343D01*
X3883Y24560D02*
Y24600D01*
X4197Y24560D02*
Y24600D01*
X3020Y22403D02*
X3060D01*
X3020Y22717D02*
X3060D01*
X681Y18406D02*
X1681D01*
Y4406D02*
Y18406D01*
X681Y4406D02*
X1681D01*
X681D02*
Y5156D01*
Y18406D01*
X3537Y24550D02*
Y24590D01*
X3223Y24550D02*
Y24590D01*
X3630Y22087D02*
X3670D01*
X3630Y21773D02*
X3670D01*
D13*
X8368Y26480D02*
G03*
X8368Y26480I-50J0D01*
G01*
X12790Y17832D02*
G03*
X12790Y17832I-50J0D01*
G01*
X11730Y24920D02*
G03*
X11730Y24920I-30J0D01*
G01*
X9136Y25621D02*
Y26030D01*
X8484D02*
X9136D01*
Y24730D02*
Y25139D01*
X8484Y24730D02*
X9136D01*
X8484Y25218D02*
Y25542D01*
X11881Y17014D02*
X12290D01*
Y17666D01*
X10990Y17014D02*
X11399D01*
X10990D02*
Y17666D01*
X11478D02*
X11802D01*
X13211Y19260D02*
X14310D01*
X9090Y24480D02*
X10189D01*
X9090Y19260D02*
Y24480D01*
Y19260D02*
X10189D01*
X14310D02*
Y24480D01*
X13211D02*
X14310D01*
D14*
X5380Y21500D02*
Y24750D01*
Y21500D02*
X7380D01*
Y24750D01*
X5380D02*
X7380D01*
X12383Y28000D02*
X12050D01*
X12383Y28333D01*
Y28417D01*
X12300Y28500D01*
X12133D01*
X12050Y28417D01*
X12550D02*
X12633Y28500D01*
X12800D01*
X12883Y28417D01*
Y28083D01*
X12800Y28000D01*
X12633D01*
X12550Y28083D01*
Y28417D01*
X12050Y27000D02*
X12217D01*
X12133D01*
Y27500D01*
X12050Y27417D01*
X12467Y27083D02*
X12550Y27000D01*
X12716D01*
X12800Y27083D01*
Y27417D01*
X12716Y27500D01*
X12550D01*
X12467Y27417D01*
Y27333D01*
X12550Y27250D01*
X12800D01*
X1450Y27000D02*
X1617D01*
X1533D01*
Y27500D01*
X1450Y27417D01*
X1783Y28000D02*
X1450D01*
X1783Y28333D01*
Y28417D01*
X1700Y28500D01*
X1533D01*
X1450Y28417D01*
D15*
X7040Y21230D02*
X7340D01*
Y20930D02*
Y21230D01*
X6540Y20930D02*
X6840D01*
X6540D02*
Y21230D01*
X6840D01*
X6910Y21000D02*
Y21160D01*
X6970Y21000D02*
Y21160D01*
X7040Y20930D02*
X7340D01*
X3400Y23330D02*
X3700D01*
Y23030D02*
Y23330D01*
X2900Y23030D02*
X3200D01*
X2900D02*
Y23330D01*
X3200D01*
X3270Y23100D02*
Y23260D01*
X3330Y23100D02*
Y23260D01*
X3400Y23030D02*
X3700D01*
X11580Y4150D02*
X11880D01*
X11580D02*
Y4450D01*
X12080D02*
X12380D01*
Y4150D02*
Y4450D01*
X12080Y4150D02*
X12380D01*
X12010Y4220D02*
Y4380D01*
X11950Y4220D02*
Y4380D01*
X11580Y4450D02*
X11880D01*
X16992Y8660D02*
Y8960D01*
X16692Y8660D02*
X16992D01*
X16692Y9160D02*
Y9460D01*
X16992D01*
Y9160D02*
Y9460D01*
X16762Y9090D02*
X16922D01*
X16762Y9030D02*
X16922D01*
X16692Y8660D02*
Y8960D01*
X11801Y9171D02*
Y9471D01*
X12101D01*
Y8671D02*
Y8971D01*
X11801Y8671D02*
X12101D01*
X11801D02*
Y8971D01*
X11871Y9041D02*
X12031D01*
X11871Y9101D02*
X12031D01*
X12101Y9171D02*
Y9471D01*
X11745Y7152D02*
X12045D01*
X11745D02*
Y7452D01*
X12245D02*
X12545D01*
Y7152D02*
Y7452D01*
X12245Y7152D02*
X12545D01*
X12175Y7222D02*
Y7382D01*
X12115Y7222D02*
Y7382D01*
X11745Y7452D02*
X12045D01*
X11351Y5184D02*
X11651D01*
X11351D02*
Y5484D01*
X11851D02*
X12151D01*
Y5184D02*
Y5484D01*
X11851Y5184D02*
X12151D01*
X11781Y5254D02*
Y5414D01*
X11721Y5254D02*
Y5414D01*
X11351Y5484D02*
X11651D01*
X6540Y20430D02*
X6840D01*
X6540D02*
Y20730D01*
X7040D02*
X7340D01*
Y20430D02*
Y20730D01*
X7040Y20430D02*
X7340D01*
X6970Y20500D02*
Y20660D01*
X6910Y20500D02*
Y20660D01*
X6540Y20730D02*
X6840D01*
X3850Y23850D02*
X4150D01*
Y23550D02*
Y23850D01*
X3350Y23550D02*
X3650D01*
X3350D02*
Y23850D01*
X3650D01*
X3720Y23620D02*
Y23780D01*
X3780Y23620D02*
Y23780D01*
X3850Y23550D02*
X4150D01*
X4130Y22580D02*
Y22880D01*
X3830Y22580D02*
X4130D01*
X3830Y23080D02*
Y23380D01*
X4130D01*
Y23080D02*
Y23380D01*
X3900Y23010D02*
X4060D01*
X3900Y22950D02*
X4060D01*
X3830Y22580D02*
Y22880D01*
D16*
X880Y1180D02*
X780Y1280D01*
X580D01*
X480Y1180D01*
Y780D01*
X580Y680D01*
X780D01*
X880Y780D01*
X1080Y680D02*
Y1280D01*
X1380D01*
X1480Y1180D01*
Y980D01*
X1380Y880D01*
X1080D01*
X1680Y1280D02*
Y680D01*
Y980D01*
X2079D01*
Y1280D01*
Y680D01*
X2879Y1280D02*
X3279D01*
X3079D01*
Y680D01*
X3779D02*
X3579D01*
X3479Y780D01*
Y980D01*
X3579Y1080D01*
X3779D01*
X3879Y980D01*
Y880D01*
X3479D01*
X4479Y1080D02*
X4179D01*
X4079Y980D01*
Y780D01*
X4179Y680D01*
X4479D01*
X4679Y1280D02*
Y680D01*
Y980D01*
X4779Y1080D01*
X4979D01*
X5079Y980D01*
Y680D01*
X5278D02*
Y1080D01*
X5578D01*
X5678Y980D01*
Y680D01*
X5978D02*
X6178D01*
X6278Y780D01*
Y980D01*
X6178Y1080D01*
X5978D01*
X5878Y980D01*
Y780D01*
X5978Y680D01*
X6478D02*
X6678D01*
X6578D01*
Y1280D01*
X6478D01*
X7078Y680D02*
X7278D01*
X7378Y780D01*
Y980D01*
X7278Y1080D01*
X7078D01*
X6978Y980D01*
Y780D01*
X7078Y680D01*
X7778Y480D02*
X7878D01*
X7978Y580D01*
Y1080D01*
X7678D01*
X7578Y980D01*
Y780D01*
X7678Y680D01*
X7978D01*
X8178D02*
X8377D01*
X8277D01*
Y1080D01*
X8178D01*
X8977Y680D02*
X8777D01*
X8677Y780D01*
Y980D01*
X8777Y1080D01*
X8977D01*
X9077Y980D01*
Y880D01*
X8677D01*
X9277Y680D02*
X9577D01*
X9677Y780D01*
X9577Y880D01*
X9377D01*
X9277Y980D01*
X9377Y1080D01*
X9677D01*
X10877Y680D02*
X10477D01*
X10877Y1080D01*
Y1180D01*
X10777Y1280D01*
X10577D01*
X10477Y1180D01*
X11077D02*
X11177Y1280D01*
X11376D01*
X11476Y1180D01*
Y780D01*
X11376Y680D01*
X11177D01*
X11077Y780D01*
Y1180D01*
X11676Y680D02*
X11876D01*
X11776D01*
Y1280D01*
X11676Y1180D01*
X12176D02*
X12276Y1280D01*
X12476D01*
X12576Y1180D01*
Y1080D01*
X12476Y980D01*
X12576Y880D01*
Y780D01*
X12476Y680D01*
X12276D01*
X12176Y780D01*
Y880D01*
X12276Y980D01*
X12176Y1080D01*
Y1180D01*
X12276Y980D02*
X12476D01*
X510Y2320D02*
Y1720D01*
X810D01*
X910Y1820D01*
Y2220D01*
X810Y2320D01*
X510D01*
X1410Y1720D02*
X1210D01*
X1110Y1820D01*
Y2020D01*
X1210Y2120D01*
X1410D01*
X1510Y2020D01*
Y1920D01*
X1110D01*
X1710Y1720D02*
X2010D01*
X2109Y1820D01*
X2010Y1920D01*
X1810D01*
X1710Y2020D01*
X1810Y2120D01*
X2109D01*
X2309Y1720D02*
X2509D01*
X2409D01*
Y2120D01*
X2309D01*
X3009Y1520D02*
X3109D01*
X3209Y1620D01*
Y2120D01*
X2909D01*
X2809Y2020D01*
Y1820D01*
X2909Y1720D01*
X3209D01*
X3409D02*
Y2120D01*
X3709D01*
X3809Y2020D01*
Y1720D01*
X4609Y2320D02*
Y1720D01*
X4909D01*
X5009Y1820D01*
Y1920D01*
Y2020D01*
X4909Y2120D01*
X4609D01*
X5208D02*
Y1820D01*
X5308Y1720D01*
X5608D01*
Y1620D01*
X5508Y1520D01*
X5408D01*
X5608Y1720D02*
Y2120D01*
X6408Y1720D02*
Y2320D01*
X6608Y2120D01*
X6808Y2320D01*
Y1720D01*
X7108Y2120D02*
X7308D01*
X7408Y2020D01*
Y1720D01*
X7108D01*
X7008Y1820D01*
X7108Y1920D01*
X7408D01*
X7708Y2220D02*
Y2120D01*
X7608D01*
X7808D01*
X7708D01*
Y1820D01*
X7808Y1720D01*
X8208Y2220D02*
Y2120D01*
X8108D01*
X8307D01*
X8208D01*
Y1820D01*
X8307Y1720D01*
X17310Y24229D02*
Y24829D01*
X17610D01*
X17710Y24729D01*
Y24529D01*
X17610Y24429D01*
X17310D01*
X17910Y24229D02*
X18110D01*
X18010D01*
Y24829D01*
X17910Y24729D01*
X12817Y10817D02*
Y10317D01*
X12917Y10217D01*
X13117D01*
X13217Y10317D01*
Y10817D01*
X13817Y10217D02*
X13417D01*
X13817Y10617D01*
Y10717D01*
X13717Y10817D01*
X13517D01*
X13417Y10717D01*
X4240Y22680D02*
Y23280D01*
X4540D01*
X4640Y23180D01*
Y22980D01*
X4540Y22880D01*
X4240D01*
X4440D02*
X4640Y22680D01*
X5140D02*
Y23280D01*
X4840Y22980D01*
X5240D01*
X2710Y21990D02*
X2610Y22090D01*
X2410D01*
X2310Y21990D01*
Y21590D01*
X2410Y21490D01*
X2610D01*
X2710Y21590D01*
X2910Y21490D02*
X3110D01*
X3010D01*
Y22090D01*
X2910Y21990D01*
X10150Y18940D02*
X10050Y19040D01*
X9850D01*
X9750Y18940D01*
Y18540D01*
X9850Y18440D01*
X10050D01*
X10150Y18540D01*
X10750Y18440D02*
X10350D01*
X10750Y18840D01*
Y18940D01*
X10650Y19040D01*
X10450D01*
X10350Y18940D01*
X2940Y25730D02*
X2840Y25830D01*
X2640D01*
X2540Y25730D01*
Y25330D01*
X2640Y25230D01*
X2840D01*
X2940Y25330D01*
X3140Y25730D02*
X3240Y25830D01*
X3440D01*
X3540Y25730D01*
Y25630D01*
X3440Y25530D01*
X3340D01*
X3440D01*
X3540Y25430D01*
Y25330D01*
X3440Y25230D01*
X3240D01*
X3140Y25330D01*
X2440Y24270D02*
X2340Y24370D01*
X2140D01*
X2040Y24270D01*
Y23870D01*
X2140Y23770D01*
X2340D01*
X2440Y23870D01*
X2940Y23770D02*
Y24370D01*
X2640Y24070D01*
X3040D01*
X7970Y20590D02*
X7870Y20690D01*
X7670D01*
X7570Y20590D01*
Y20190D01*
X7670Y20090D01*
X7870D01*
X7970Y20190D01*
X8570Y20690D02*
X8170D01*
Y20390D01*
X8370Y20490D01*
X8470D01*
X8570Y20390D01*
Y20190D01*
X8470Y20090D01*
X8270D01*
X8170Y20190D01*
X10640Y5500D02*
X10540Y5600D01*
X10340D01*
X10240Y5500D01*
Y5100D01*
X10340Y5000D01*
X10540D01*
X10640Y5100D01*
X11240Y5600D02*
X11040Y5500D01*
X10840Y5300D01*
Y5100D01*
X10940Y5000D01*
X11140D01*
X11240Y5100D01*
Y5200D01*
X11140Y5300D01*
X10840D01*
X11070Y7500D02*
X10970Y7600D01*
X10770D01*
X10670Y7500D01*
Y7100D01*
X10770Y7000D01*
X10970D01*
X11070Y7100D01*
X11270Y7600D02*
X11670D01*
Y7500D01*
X11270Y7100D01*
Y7000D01*
X11070Y9270D02*
X10970Y9370D01*
X10770D01*
X10670Y9270D01*
Y8870D01*
X10770Y8770D01*
X10970D01*
X11070Y8870D01*
X11270Y9270D02*
X11370Y9370D01*
X11570D01*
X11670Y9270D01*
Y9170D01*
X11570Y9070D01*
X11670Y8970D01*
Y8870D01*
X11570Y8770D01*
X11370D01*
X11270Y8870D01*
Y8970D01*
X11370Y9070D01*
X11270Y9170D01*
Y9270D01*
X11370Y9070D02*
X11570D01*
X17110Y8480D02*
X17010Y8580D01*
X16810D01*
X16710Y8480D01*
Y8080D01*
X16810Y7980D01*
X17010D01*
X17110Y8080D01*
X17310D02*
X17410Y7980D01*
X17610D01*
X17710Y8080D01*
Y8480D01*
X17610Y8580D01*
X17410D01*
X17310Y8480D01*
Y8380D01*
X17410Y8280D01*
X17710D01*
X11703Y3870D02*
X11603Y3970D01*
X11403D01*
X11303Y3870D01*
Y3470D01*
X11403Y3370D01*
X11603D01*
X11703Y3470D01*
X11903Y3370D02*
X12103D01*
X12003D01*
Y3970D01*
X11903Y3870D01*
X12403D02*
X12503Y3970D01*
X12703D01*
X12803Y3870D01*
Y3470D01*
X12703Y3370D01*
X12503D01*
X12403Y3470D01*
Y3870D01*
X12580Y17860D02*
Y17260D01*
X12880D01*
X12980Y17360D01*
Y17760D01*
X12880Y17860D01*
X12580D01*
X13180Y17260D02*
X13380D01*
X13280D01*
Y17860D01*
X13180Y17760D01*
X9610Y25920D02*
Y25320D01*
X9910D01*
X10010Y25420D01*
Y25820D01*
X9910Y25920D01*
X9610D01*
X10610Y25320D02*
X10210D01*
X10610Y25720D01*
Y25820D01*
X10510Y25920D01*
X10310D01*
X10210Y25820D01*
X11951Y25520D02*
Y24920D01*
X12351D01*
X12551D02*
X12751D01*
X12651D01*
Y25520D01*
X12551Y25420D01*
X746Y18741D02*
Y19340D01*
X1046D01*
X1146Y19240D01*
Y19040D01*
X1046Y18940D01*
X746D01*
X1746Y18741D02*
X1346D01*
X1746Y19140D01*
Y19240D01*
X1646Y19340D01*
X1446D01*
X1346Y19240D01*
X1600Y22270D02*
Y22870D01*
X1900D01*
X2000Y22770D01*
Y22570D01*
X1900Y22470D01*
X1600D01*
X1800D02*
X2000Y22270D01*
X2200D02*
X2400D01*
X2300D01*
Y22870D01*
X2200Y22770D01*
X1780Y23010D02*
Y23610D01*
X2080D01*
X2180Y23510D01*
Y23310D01*
X2080Y23210D01*
X1780D01*
X1980D02*
X2180Y23010D01*
X2780D02*
X2380D01*
X2780Y23410D01*
Y23510D01*
X2680Y23610D01*
X2480D01*
X2380Y23510D01*
X7570Y20970D02*
Y21570D01*
X7870D01*
X7970Y21470D01*
Y21270D01*
X7870Y21170D01*
X7570D01*
X7770D02*
X7970Y20970D01*
X8170Y21470D02*
X8270Y21570D01*
X8470D01*
X8570Y21470D01*
Y21370D01*
X8470Y21270D01*
X8370D01*
X8470D01*
X8570Y21170D01*
Y21070D01*
X8470Y20970D01*
X8270D01*
X8170Y21070D01*
X3890Y25270D02*
Y25870D01*
X4190D01*
X4290Y25770D01*
Y25570D01*
X4190Y25470D01*
X3890D01*
X4090D02*
X4290Y25270D01*
X4890Y25870D02*
X4490D01*
Y25570D01*
X4690Y25670D01*
X4790D01*
X4890Y25570D01*
Y25370D01*
X4790Y25270D01*
X4590D01*
X4490Y25370D01*
M02*
