G04 Layer_Color=255*
%FSLAX24Y24*%
%MOIN*%
G70*
G01*
G75*
%ADD10R,0.0250X0.0200*%
%ADD11R,0.0354X0.0394*%
%ADD12R,0.0200X0.0250*%
%ADD13R,0.0256X0.0532*%
%ADD14O,0.0787X0.0138*%
%ADD15R,0.0787X0.0138*%
%ADD16R,0.0800X0.0260*%
%ADD17R,0.1000X0.1260*%
%ADD19C,0.0591*%
%ADD20R,0.0591X0.0591*%
%ADD21R,0.0591X0.0591*%
%ADD22C,0.0394*%
%ADD23R,0.0394X0.0394*%
D10*
X5530Y22740D02*
D03*
X5930D02*
D03*
X5530Y21690D02*
D03*
X5930D02*
D03*
X3454Y23366D02*
D03*
X3054D02*
D03*
X11951Y5334D02*
D03*
X11551D02*
D03*
X12345Y7302D02*
D03*
X11945D02*
D03*
X17030Y9310D02*
D03*
X17430D02*
D03*
X12180Y4300D02*
D03*
X11780D02*
D03*
X5130Y23600D02*
D03*
X5530D02*
D03*
X3060Y23040D02*
D03*
X3460D02*
D03*
D11*
X6395Y24340D02*
D03*
X5765D02*
D03*
X4405Y25680D02*
D03*
X3775D02*
D03*
X6415Y23690D02*
D03*
X7045D02*
D03*
X4405Y25040D02*
D03*
X3775D02*
D03*
X5135D02*
D03*
X5765D02*
D03*
X7035Y23000D02*
D03*
X6405D02*
D03*
D12*
X11951Y8871D02*
D03*
Y9271D02*
D03*
D13*
X5922Y25680D02*
D03*
X4978D02*
D03*
X3778Y24350D02*
D03*
X4722D02*
D03*
D14*
X17340Y10935D02*
D03*
Y11329D02*
D03*
Y12116D02*
D03*
Y12510D02*
D03*
Y12904D02*
D03*
Y13297D02*
D03*
Y13691D02*
D03*
Y14085D02*
D03*
Y14479D02*
D03*
Y14872D02*
D03*
Y15266D02*
D03*
Y16053D02*
D03*
Y16447D02*
D03*
Y16841D02*
D03*
Y17234D02*
D03*
Y17628D02*
D03*
Y18022D02*
D03*
Y18416D02*
D03*
Y18809D02*
D03*
Y23546D02*
D03*
Y23153D02*
D03*
Y22759D02*
D03*
Y22365D02*
D03*
Y21971D02*
D03*
Y21578D02*
D03*
Y21184D02*
D03*
Y20790D02*
D03*
Y20003D02*
D03*
D15*
Y11723D02*
D03*
Y15660D02*
D03*
Y23940D02*
D03*
Y20397D02*
D03*
D16*
X2475Y20530D02*
D03*
Y21030D02*
D03*
Y21530D02*
D03*
Y22030D02*
D03*
X4725Y20530D02*
D03*
Y21030D02*
D03*
Y21530D02*
D03*
Y22030D02*
D03*
D17*
X3600Y21280D02*
D03*
D19*
X1181Y17906D02*
D03*
Y16906D02*
D03*
Y15906D02*
D03*
Y14906D02*
D03*
Y13906D02*
D03*
Y12906D02*
D03*
Y11906D02*
D03*
Y10906D02*
D03*
Y9906D02*
D03*
Y8906D02*
D03*
Y7906D02*
D03*
Y6906D02*
D03*
Y5906D02*
D03*
X16132Y2302D02*
D03*
Y3302D02*
D03*
Y4302D02*
D03*
Y5302D02*
D03*
Y6302D02*
D03*
Y7302D02*
D03*
Y8302D02*
D03*
Y9302D02*
D03*
X13132Y2302D02*
D03*
Y3302D02*
D03*
Y4302D02*
D03*
Y5302D02*
D03*
Y6302D02*
D03*
Y7302D02*
D03*
Y8302D02*
D03*
X9055Y17843D02*
D03*
Y16843D02*
D03*
Y15843D02*
D03*
Y14843D02*
D03*
Y13843D02*
D03*
Y12843D02*
D03*
Y11843D02*
D03*
Y10843D02*
D03*
Y9843D02*
D03*
Y8843D02*
D03*
Y7843D02*
D03*
Y6843D02*
D03*
Y5843D02*
D03*
X2450Y28200D02*
D03*
X3450Y27200D02*
D03*
Y28200D02*
D03*
X4450Y27200D02*
D03*
Y28200D02*
D03*
X5450Y27200D02*
D03*
Y28200D02*
D03*
X6450Y27200D02*
D03*
Y28200D02*
D03*
X7450Y27200D02*
D03*
Y28200D02*
D03*
X8450Y27200D02*
D03*
Y28200D02*
D03*
X9450Y27200D02*
D03*
Y28200D02*
D03*
X10450Y27200D02*
D03*
Y28200D02*
D03*
X11450Y27200D02*
D03*
Y28200D02*
D03*
D20*
X1181Y4906D02*
D03*
X9055Y4843D02*
D03*
D21*
X13132Y9302D02*
D03*
X2450Y27200D02*
D03*
D22*
X490Y26040D02*
D03*
Y25540D02*
D03*
D23*
Y25040D02*
D03*
M02*
