G04*
G04 #@! TF.GenerationSoftware,Altium Limited,Altium Designer,19.0.10 (269)*
G04*
G04 Layer_Color=8421504*
%FSLAX24Y24*%
%MOIN*%
G70*
G01*
G75*
%ADD17R,0.0350X0.0320*%
%ADD18R,0.0320X0.0350*%
%ADD19R,0.2760X0.1570*%
%ADD20R,0.0433X0.0669*%
%ADD21O,0.0787X0.0138*%
%ADD22R,0.0787X0.0138*%
%ADD23R,0.0260X0.0800*%
%ADD24R,0.0394X0.0354*%
%ADD25R,0.0250X0.0200*%
%ADD26R,0.0354X0.0394*%
%ADD27R,0.0200X0.0250*%
G36*
X5770Y23045D02*
Y22645D01*
X6300D01*
Y23045D01*
X5770D01*
D02*
G37*
G36*
Y23605D02*
Y23205D01*
X6300D01*
Y23605D01*
X5770D01*
D02*
G37*
G36*
X6460Y23045D02*
Y22645D01*
X6990D01*
Y23045D01*
X6460D01*
D02*
G37*
G36*
Y23605D02*
Y23205D01*
X6990D01*
Y23605D01*
X6460D01*
D02*
G37*
D17*
X9182Y25380D02*
D03*
X8438Y24976D02*
D03*
Y25784D02*
D03*
D18*
X11640Y16968D02*
D03*
X11236Y17712D02*
D03*
X12044D02*
D03*
D19*
X11700Y23835D02*
D03*
Y19905D02*
D03*
D20*
X12021Y18530D02*
D03*
X10958D02*
D03*
D21*
X17950Y10525D02*
D03*
Y10919D02*
D03*
Y11706D02*
D03*
Y12100D02*
D03*
Y12494D02*
D03*
Y12887D02*
D03*
Y13281D02*
D03*
Y13675D02*
D03*
Y14069D02*
D03*
Y14462D02*
D03*
Y14856D02*
D03*
Y15643D02*
D03*
Y16037D02*
D03*
Y16431D02*
D03*
Y16824D02*
D03*
Y17218D02*
D03*
Y17612D02*
D03*
Y18006D02*
D03*
Y18399D02*
D03*
Y23136D02*
D03*
Y22743D02*
D03*
Y22349D02*
D03*
Y21955D02*
D03*
Y21561D02*
D03*
Y21168D02*
D03*
Y20774D02*
D03*
Y20380D02*
D03*
Y19593D02*
D03*
D22*
Y11313D02*
D03*
Y15250D02*
D03*
Y23530D02*
D03*
Y19987D02*
D03*
D23*
X7130Y22000D02*
D03*
X6630D02*
D03*
X6130D02*
D03*
X5630D02*
D03*
X7130Y24250D02*
D03*
X6630D02*
D03*
X6130D02*
D03*
X5630D02*
D03*
D24*
X4040Y24265D02*
D03*
Y24895D02*
D03*
X3380Y24885D02*
D03*
Y24255D02*
D03*
D25*
X7140Y21080D02*
D03*
X6740D02*
D03*
X3500Y23180D02*
D03*
X3100D02*
D03*
X11780Y4300D02*
D03*
X12180D02*
D03*
X11945Y7302D02*
D03*
X12345D02*
D03*
X11551Y5334D02*
D03*
X11951D02*
D03*
X6740Y20580D02*
D03*
X7140D02*
D03*
X3950Y23700D02*
D03*
X3550D02*
D03*
D26*
X3355Y22560D02*
D03*
X2725D02*
D03*
X3335Y21930D02*
D03*
X3965D02*
D03*
D27*
X16842Y8860D02*
D03*
Y9260D02*
D03*
X11951Y9271D02*
D03*
Y8871D02*
D03*
X3980Y22780D02*
D03*
Y23180D02*
D03*
M02*
