G04*
G04 #@! TF.GenerationSoftware,Altium Limited,Altium Designer,19.0.10 (269)*
G04*
G04 Layer_Physical_Order=2*
G04 Layer_Color=16711680*
%FSLAX24Y24*%
%MOIN*%
G70*
G01*
G75*
%ADD21O,0.0787X0.0138*%
%ADD22R,0.0787X0.0138*%
%ADD42C,0.0120*%
%ADD43R,0.0591X0.0591*%
%ADD44C,0.0591*%
%ADD45R,0.0591X0.0591*%
%ADD46C,0.0300*%
D21*
X17950Y10525D02*
D03*
Y10919D02*
D03*
Y11706D02*
D03*
Y12100D02*
D03*
Y12494D02*
D03*
Y12887D02*
D03*
Y13281D02*
D03*
Y13675D02*
D03*
Y14069D02*
D03*
Y14462D02*
D03*
Y14856D02*
D03*
Y15643D02*
D03*
Y16037D02*
D03*
Y16431D02*
D03*
Y16824D02*
D03*
Y17218D02*
D03*
Y17612D02*
D03*
Y18006D02*
D03*
Y18399D02*
D03*
Y23136D02*
D03*
Y22743D02*
D03*
Y22349D02*
D03*
Y21955D02*
D03*
Y21561D02*
D03*
Y21168D02*
D03*
Y20774D02*
D03*
Y20380D02*
D03*
Y19593D02*
D03*
D22*
Y11313D02*
D03*
Y15250D02*
D03*
Y23530D02*
D03*
Y19987D02*
D03*
D42*
X1070Y27570D02*
Y28350D01*
X1590Y28870D01*
X3780D01*
X9102Y28880D02*
X10390D01*
X8450Y28228D02*
X9102Y28880D01*
X8450Y28200D02*
Y28228D01*
X10390Y28880D02*
X11010Y28260D01*
X8622Y27785D02*
X8950Y28113D01*
X7865Y27785D02*
X8622D01*
X7450Y28200D02*
X7865Y27785D01*
X9630Y28690D02*
X9970Y28350D01*
X9166Y28690D02*
X9630D01*
X8950Y28474D02*
X9166Y28690D01*
X8950Y28113D02*
Y28474D01*
X3780Y28870D02*
X4450Y28200D01*
X6090Y20570D02*
Y25420D01*
Y20570D02*
X6620Y20040D01*
X7140D01*
X9970Y13757D02*
Y28350D01*
X9055Y12843D02*
X9970Y13757D01*
X11010Y13797D02*
Y28260D01*
X9055Y11843D02*
X11010Y13797D01*
X11450Y27200D02*
Y28200D01*
X8940Y27690D02*
X9450Y28200D01*
X8940Y27070D02*
Y27690D01*
X8590Y26720D02*
X8940Y27070D01*
X4920Y26720D02*
X8590D01*
X4450Y27200D02*
X4920Y26730D01*
Y26720D02*
Y26730D01*
X2450Y27200D02*
Y28200D01*
X3450Y27200D02*
X4450D01*
D43*
X2450D02*
D03*
X13132Y9302D02*
D03*
D44*
X2450Y28200D02*
D03*
X3450Y27200D02*
D03*
Y28200D02*
D03*
X4450Y27200D02*
D03*
Y28200D02*
D03*
X5450Y27200D02*
D03*
Y28200D02*
D03*
X6450Y27200D02*
D03*
Y28200D02*
D03*
X7450Y27200D02*
D03*
Y28200D02*
D03*
X8450Y27200D02*
D03*
Y28200D02*
D03*
X9450Y27200D02*
D03*
Y28200D02*
D03*
X10450Y27200D02*
D03*
Y28200D02*
D03*
X11450Y27200D02*
D03*
Y28200D02*
D03*
X16132Y2302D02*
D03*
Y3302D02*
D03*
Y4302D02*
D03*
Y5302D02*
D03*
Y6302D02*
D03*
Y7302D02*
D03*
Y8302D02*
D03*
Y9302D02*
D03*
X13132Y2302D02*
D03*
Y3302D02*
D03*
Y4302D02*
D03*
Y5302D02*
D03*
Y6302D02*
D03*
Y7302D02*
D03*
Y8302D02*
D03*
X9055Y5843D02*
D03*
Y6843D02*
D03*
Y7843D02*
D03*
Y8843D02*
D03*
Y9843D02*
D03*
Y10843D02*
D03*
Y11843D02*
D03*
Y12843D02*
D03*
Y13843D02*
D03*
Y14843D02*
D03*
Y15843D02*
D03*
Y16843D02*
D03*
Y17843D02*
D03*
X1181Y5906D02*
D03*
Y6906D02*
D03*
Y7906D02*
D03*
Y8906D02*
D03*
Y9906D02*
D03*
Y10906D02*
D03*
Y11906D02*
D03*
Y12906D02*
D03*
Y13906D02*
D03*
Y14906D02*
D03*
Y15906D02*
D03*
Y16906D02*
D03*
Y17906D02*
D03*
D45*
X9055Y4843D02*
D03*
X1181Y4906D02*
D03*
D46*
X1070Y27570D02*
D03*
X6090Y25420D02*
D03*
X7140Y20040D02*
D03*
M02*
