G04*
G04 #@! TF.GenerationSoftware,Altium Limited,Altium Designer,19.0.10 (269)*
G04*
G04 Layer_Color=255*
%FSLAX24Y24*%
%MOIN*%
G70*
G01*
G75*
%ADD17R,0.0350X0.0320*%
%ADD18R,0.0320X0.0350*%
%ADD19R,0.2760X0.1570*%
%ADD20R,0.0433X0.0669*%
%ADD21O,0.0787X0.0138*%
%ADD22R,0.0787X0.0138*%
%ADD23R,0.0260X0.0800*%
%ADD24R,0.0394X0.0354*%
%ADD25R,0.0250X0.0200*%
%ADD26R,0.0354X0.0394*%
%ADD27R,0.0200X0.0250*%
%ADD41R,0.1260X0.1000*%
%ADD43R,0.0591X0.0591*%
%ADD44C,0.0591*%
%ADD45R,0.0591X0.0591*%
D17*
X9182Y25380D02*
D03*
X8438Y24976D02*
D03*
Y25784D02*
D03*
D18*
X11640Y16968D02*
D03*
X11236Y17712D02*
D03*
X12044D02*
D03*
D19*
X11700Y23835D02*
D03*
Y19905D02*
D03*
D20*
X12021Y18530D02*
D03*
X10958D02*
D03*
D21*
X17950Y10525D02*
D03*
Y10919D02*
D03*
Y11706D02*
D03*
Y12100D02*
D03*
Y12494D02*
D03*
Y12887D02*
D03*
Y13281D02*
D03*
Y13675D02*
D03*
Y14069D02*
D03*
Y14462D02*
D03*
Y14856D02*
D03*
Y15643D02*
D03*
Y16037D02*
D03*
Y16431D02*
D03*
Y16824D02*
D03*
Y17218D02*
D03*
Y17612D02*
D03*
Y18006D02*
D03*
Y18399D02*
D03*
Y23136D02*
D03*
Y22743D02*
D03*
Y22349D02*
D03*
Y21955D02*
D03*
Y21561D02*
D03*
Y21168D02*
D03*
Y20774D02*
D03*
Y20380D02*
D03*
Y19593D02*
D03*
D22*
Y11313D02*
D03*
Y15250D02*
D03*
Y23530D02*
D03*
Y19987D02*
D03*
D23*
X7130Y22000D02*
D03*
X6630D02*
D03*
X6130D02*
D03*
X5630D02*
D03*
X7130Y24250D02*
D03*
X6630D02*
D03*
X6130D02*
D03*
X5630D02*
D03*
D24*
X4040Y24265D02*
D03*
Y24895D02*
D03*
X3380Y24885D02*
D03*
Y24255D02*
D03*
D25*
X7140Y21080D02*
D03*
X6740D02*
D03*
X3500Y23180D02*
D03*
X3100D02*
D03*
X11780Y4300D02*
D03*
X12180D02*
D03*
X11945Y7302D02*
D03*
X12345D02*
D03*
X11551Y5334D02*
D03*
X11951D02*
D03*
X6740Y20580D02*
D03*
X7140D02*
D03*
X3950Y23700D02*
D03*
X3550D02*
D03*
D26*
X3355Y22560D02*
D03*
X2725D02*
D03*
X3335Y21930D02*
D03*
X3965D02*
D03*
D27*
X16842Y8860D02*
D03*
Y9260D02*
D03*
X11951Y9271D02*
D03*
Y8871D02*
D03*
X3980Y22780D02*
D03*
Y23180D02*
D03*
D41*
X6380Y23125D02*
D03*
D43*
X2450Y27200D02*
D03*
X13132Y9302D02*
D03*
D44*
X2450Y28200D02*
D03*
X3450Y27200D02*
D03*
Y28200D02*
D03*
X4450Y27200D02*
D03*
Y28200D02*
D03*
X5450Y27200D02*
D03*
Y28200D02*
D03*
X6450Y27200D02*
D03*
Y28200D02*
D03*
X7450Y27200D02*
D03*
Y28200D02*
D03*
X8450Y27200D02*
D03*
Y28200D02*
D03*
X9450Y27200D02*
D03*
Y28200D02*
D03*
X10450Y27200D02*
D03*
Y28200D02*
D03*
X11450Y27200D02*
D03*
Y28200D02*
D03*
X16132Y2302D02*
D03*
Y3302D02*
D03*
Y4302D02*
D03*
Y5302D02*
D03*
Y6302D02*
D03*
Y7302D02*
D03*
Y8302D02*
D03*
Y9302D02*
D03*
X13132Y2302D02*
D03*
Y3302D02*
D03*
Y4302D02*
D03*
Y5302D02*
D03*
Y6302D02*
D03*
Y7302D02*
D03*
Y8302D02*
D03*
X9055Y5843D02*
D03*
Y6843D02*
D03*
Y7843D02*
D03*
Y8843D02*
D03*
Y9843D02*
D03*
Y10843D02*
D03*
Y11843D02*
D03*
Y12843D02*
D03*
Y13843D02*
D03*
Y14843D02*
D03*
Y15843D02*
D03*
Y16843D02*
D03*
Y17843D02*
D03*
X1181Y5906D02*
D03*
Y6906D02*
D03*
Y7906D02*
D03*
Y8906D02*
D03*
Y9906D02*
D03*
Y10906D02*
D03*
Y11906D02*
D03*
Y12906D02*
D03*
Y13906D02*
D03*
Y14906D02*
D03*
Y15906D02*
D03*
Y16906D02*
D03*
Y17906D02*
D03*
D45*
X9055Y4843D02*
D03*
X1181Y4906D02*
D03*
M02*
