M48
;Layer_Color=9474304
;FILE_FORMAT=2:4
INCH,LZ
;TYPE=PLATED
T1F00S00C0.0150
T2F00S00C0.0236
T3F00S00C0.0354
%
T01
X015746Y023546
T02
X00049Y02504
Y02554
Y02604
T03
X009055Y004843
Y005843
Y006843
Y007843
Y008843
Y009843
X013132Y009302
Y008302
Y007302
Y006302
Y005302
Y004302
Y003302
Y002302
X016132
Y003302
Y004302
Y005302
Y006302
Y007302
Y008302
Y009302
X001181Y008906
Y009906
Y007906
Y006906
Y005906
Y004906
Y010906
Y011906
Y012906
Y013906
Y014906
Y015906
Y016906
Y017906
X009055Y017843
Y016843
Y015843
Y014843
Y013843
Y012843
Y011843
Y010843
X00945Y0272
X00845
X00745
X00645
Y0282
X00745
X00845
X00945
X01045
Y0272
X01145
Y0282
X00545
X00445
X00345
X00245
Y0272
X00345
X00445
X00545
M30
